<svg xmlns="http://www.w3.org/2000/svg" viewBox="0 0 307.62 309.4"><defs><style>.cls-1{fill:#00f4a3}.cls-2{fill:#00afa3}.cls-3{fill:#00d5a3}</style></defs><g id="Layer_2" data-name="Layer 2"><g id="Layer_1-2" data-name="Layer 1"><path class="cls-1" d="M101.28 180.82H0a114.16 114.16 0 0183.82-96.09 114.23 114.23 0 0017.46 96.09zM223.78 224.69A114.28 114.28 0 010 209.4h130.82a112.18 112.18 0 0018.76 10.15l-46.28 46.28h40.41l37.94-37.94a115 115 0 0042.13-3.2z"/><path class="cls-2" d="M275 33.48A114.28 114.28 0 0083.82 84.73a115 115 0 0142.18-3.2l38-37.95h40.42L158 89.87A110.64 110.64 0 01176.78 100H307.6A113.76 113.76 0 00275 33.48zM206.32 128.57a114.32 114.32 0 0117.46 96.12 114.3 114.3 0 0083.84-96.12z"/><path class="cls-3" d="M126 81.53a115 115 0 00-42.13 3.2 114.23 114.23 0 0017.46 96.09h58.45l-66.59-66.54zM149.58 219.55l10.15-10.15h-28.91a112.18 112.18 0 0018.76 10.15zM158 89.87L147.89 100h28.89A110.64 110.64 0 00158 89.87zM206.32 128.57h-58.43l66.54 66.54-32.78 32.78a115 115 0 0042.13-3.2 114.32 114.32 0 00-17.46-96.12z"/></g></g></svg>