<svg xmlns="http://www.w3.org/2000/svg" viewBox="0 0 307.62 309.4"><defs><style>.cls-1{fill:#00f4a3;}.cls-2{fill:#00afa3;}.cls-3{fill:#00d5a3;}</style></defs><title>Asset 1</title><g id="Layer_2" data-name="Layer 2"><g id="Layer_1-2" data-name="Layer 1"><path class="cls-1" d="M101.28,180.82H0A114.16,114.16,0,0,1,83.82,84.73,114.23,114.23,0,0,0,101.28,180.82Z"/><path class="cls-1" d="M223.78,224.69A114.28,114.28,0,0,1,0,209.4H130.82a112.18,112.18,0,0,0,18.76,10.15L103.3,265.83h40.41l37.94-37.94A115,115,0,0,0,223.78,224.69Z"/><path class="cls-2" d="M275,33.48A114.28,114.28,0,0,0,83.82,84.73,115,115,0,0,1,126,81.53l38-37.95h40.42L158,89.87A110.64,110.64,0,0,1,176.78,100H307.6A113.76,113.76,0,0,0,275,33.48Z"/><path class="cls-2" d="M206.32,128.57a114.32,114.32,0,0,1,17.46,96.12,114.3,114.3,0,0,0,83.84-96.12Z"/><path class="cls-3" d="M126,81.53a115,115,0,0,0-42.13,3.2,114.23,114.23,0,0,0,17.46,96.09h58.45L93.19,114.28Z"/><path class="cls-3" d="M149.58,219.55l10.15-10.15H130.82A112.18,112.18,0,0,0,149.58,219.55Z"/><path class="cls-3" d="M158,89.87,147.89,100h28.89A110.64,110.64,0,0,0,158,89.87Z"/><path class="cls-3" d="M206.32,128.57H147.89l66.54,66.54-32.78,32.78a115,115,0,0,0,42.13-3.2A114.32,114.32,0,0,0,206.32,128.57Z"/></g></g></svg>