<svg xmlns="http://www.w3.org/2000/svg" viewBox="0 0 1294.16 202.86"><defs><style>.cls-88{fill:#2f4858;}</style></defs><title>logo-asset</title><g id="Layer_2" data-name="Layer 2"><g id="Layer_1-2" data-name="Layer 1"><path class="cls-88" d="M26.91.83Q37.67.83,46,8.9a26.43,26.43,0,0,1,8.28,19.67v72.86a44.35,44.35,0,0,0,3.73,18,46.74,46.74,0,0,0,24.63,24.63,44.22,44.22,0,0,0,18,3.73A46.36,46.36,0,0,0,118,144.49a48.8,48.8,0,0,0,14.7-9.11,41.77,41.77,0,0,0,10.14-14.08,42.93,42.93,0,0,0,3.73-17.8V28.15q0-10.33,7.86-18.63A26.76,26.76,0,0,1,173.47.83,26.3,26.3,0,0,1,192.72,8.9q8.07,8.07,8.48,18v74.52a97.21,97.21,0,0,1-7.86,38.92,101.13,101.13,0,0,1-53.41,53.4,98,98,0,0,1-39.33,7.87,87.66,87.66,0,0,1-38.09-6.83A103.08,103.08,0,0,1,8.28,142.21,89.64,89.64,0,0,1,0,104.33V28.15A26.52,26.52,0,0,1,7.66,9.31,26.82,26.82,0,0,1,26.91.83Z"/><path class="cls-88" d="M349.83,0a102.11,102.11,0,0,1,38.08,7.25,98.25,98.25,0,0,1,31.88,20.28,101.26,101.26,0,0,1,21.94,30.84A90.21,90.21,0,0,1,450,96.88v76.59a25.78,25.78,0,0,1-7.66,18.63,26.75,26.75,0,0,1-18.83,8.28,27.85,27.85,0,0,1-19.25-7.25,23.63,23.63,0,0,1-8.08-18.42V100.19a46.48,46.48,0,0,0-3.52-18,43.37,43.37,0,0,0-9.93-14.7,50.23,50.23,0,0,0-14.91-9.93,45.2,45.2,0,0,0-18.42-3.73A44.13,44.13,0,0,0,332,57.34a49.41,49.41,0,0,0-14.49,9.31,43.3,43.3,0,0,0-9.93,14.08,41.83,41.83,0,0,0-3.73,17.39v75.35q0,10.77-8.28,18.83t-19,8.08a27.64,27.64,0,0,1-19.05-7.46,23.55,23.55,0,0,1-8.28-18.21V100.19a104.93,104.93,0,0,1,8.08-38.92,100.37,100.37,0,0,1,21.11-31.88A98.84,98.84,0,0,1,349.83,0Z"/><path class="cls-88" d="M527,2.48a28.78,28.78,0,0,0-18.63,7.46,25.61,25.61,0,0,0-8.7,17.8V177.61q1.65,12,9.11,18.63A26.47,26.47,0,0,0,527,202.86q12-.84,19-8.28t7-18.63V29.39a30.71,30.71,0,0,0-8.07-19A23.53,23.53,0,0,0,527,2.48Z"/><path class="cls-88" d="M779.56,1.24a25.5,25.5,0,0,1,18.63,7.87q7.84,8.69,7.86,18.63a26,26,0,0,1-7.86,19c-1.39,1.39-2.77,2.76-4.14,4.14l-4.14,4.14-46.17,46.16q-23,23-46.57,46.16h82.39q10.34.42,18.63,8.28,7.84,8.7,7.86,19.46,0,9.94-7.86,18.63-8.7,7.88-18.63,7.87H631.76a25.43,25.43,0,0,1-18.63-7.87q-8.29-8.28-7.87-18.63a21.7,21.7,0,0,1,7.45-18.63l101-101.43h-82a28.39,28.39,0,0,1-18.63-8.28q-8.7-7.86-7.87-19-.42-10.35,7.87-18.63a24.62,24.62,0,0,1,18.63-7.87Z"/><path class="cls-88" d="M949.3,1.24a91,91,0,0,1,38.08,8.28,108.83,108.83,0,0,1,54.24,54,89.64,89.64,0,0,1,8.28,37.88q0,10.77-8.07,17t-20.08,5.8H911.62q13.67,23.6,37.68,23.6a43.45,43.45,0,0,0,11.17-1.24,50.39,50.39,0,0,0,8.08-2.9q3.51-1.65,7-2.9a24.09,24.09,0,0,1,8.07-1.24,28,28,0,0,1,24.63,16.35,26.49,26.49,0,0,1,2.07,14.7,25.91,25.91,0,0,1-7.24,14.49,64.3,64.3,0,0,1-24.84,12.62,129.5,129.5,0,0,1-29,3.94,84.2,84.2,0,0,1-38.09-7.25,105.16,105.16,0,0,1-32.09-21.94,103.71,103.71,0,0,1-21.94-32.5,95.9,95.9,0,0,1-8.07-38.5,92,92,0,0,1,8.07-37.67,107.1,107.1,0,0,1,21.74-32.09A105.9,105.9,0,0,1,910.79,9.52,92,92,0,0,1,949.3,1.24Zm37.67,77q-7.05-12.84-16.56-18a46,46,0,0,0-42.43,0q-9.32,5.17-16.36,18Z"/><path class="cls-88" d="M1194,0a102.16,102.16,0,0,1,38.09,7.25,98.36,98.36,0,0,1,31.88,20.28,101.6,101.6,0,0,1,21.94,30.84,90.21,90.21,0,0,1,8.28,38.51v76.59a25.82,25.82,0,0,1-7.66,18.63,26.76,26.76,0,0,1-18.84,8.28,27.85,27.85,0,0,1-19.25-7.25,23.65,23.65,0,0,1-8.07-18.42V100.19a46.67,46.67,0,0,0-3.52-18,43.39,43.39,0,0,0-9.94-14.7,50.31,50.31,0,0,0-14.9-9.93,45.23,45.23,0,0,0-18.42-3.73,44.09,44.09,0,0,0-17.39,3.52,49.28,49.28,0,0,0-14.49,9.31,43.48,43.48,0,0,0-9.94,14.08A42,42,0,0,0,1148,98.12v75.35q0,10.77-8.28,18.83t-19,8.08a27.62,27.62,0,0,1-19-7.46,23.55,23.55,0,0,1-8.28-18.21V100.19a104.72,104.72,0,0,1,8.07-38.92,100.4,100.4,0,0,1,21.12-31.88A98.84,98.84,0,0,1,1194,0Z"/></g></g></svg>