<?xml version="1.0" standalone="no"?>
<!DOCTYPE svg PUBLIC "-//W3C//DTD SVG 20010904//EN"
 "http://www.w3.org/TR/2001/REC-SVG-20010904/DTD/svg10.dtd">
<svg version="1.0" xmlns="http://www.w3.org/2000/svg"
 width="1290.000000pt" height="1290.000000pt" viewBox="0 0 1290.000000 1290.000000"
 preserveAspectRatio="xMidYMid meet">
<metadata>
Created by potrace 1.11, written by Peter Selinger 2001-2013
</metadata>
<g transform="translate(0.000000,1290.000000) scale(0.100000,-0.100000)"
fill="#000000" stroke="none">
<path d="M7918 12895 c-2 -1 -53 -5 -114 -9 -61 -4 -121 -8 -135 -10 -13 -3
-51 -7 -84 -11 -148 -17 -179 -22 -240 -34 -27 -5 -70 -12 -95 -16 -25 -3 -63
-11 -85 -17 -22 -5 -51 -12 -65 -14 -141 -24 -591 -163 -725 -223 -11 -5 -60
-26 -110 -46 -270 -113 -615 -305 -860 -478 -671 -478 -1196 -1092 -1545
-1812 -124 -255 -201 -455 -307 -799 l-18 -58 -160 -48 c-656 -198 -1277 -549
-1795 -1015 -141 -127 -367 -365 -495 -520 -129 -156 -344 -463 -417 -595 -14
-25 -41 -73 -61 -107 -115 -201 -254 -512 -340 -763 -30 -87 -94 -299 -101
-332 -2 -13 -18 -79 -34 -148 -28 -113 -40 -176 -57 -280 -3 -19 -8 -42 -10
-50 -2 -8 -7 -42 -11 -75 -3 -33 -8 -63 -11 -67 -2 -5 1496 -8 3329 -8 l3333
0 -1387 1388 -1386 1387 1473 1473 1473 1472 839 0 838 0 -1175 -1175 -1175
-1175 3331 0 3331 0 -7 48 c-5 26 -16 94 -25 152 -42 261 -140 636 -215 825
-4 11 -34 85 -65 165 -68 169 -169 384 -249 524 -31 54 -56 100 -56 102 0 4
-78 128 -139 219 -83 126 -297 411 -341 455 -3 3 -41 45 -85 95 -484 543
-1112 981 -1791 1248 -251 99 -544 189 -727 223 -17 3 -36 7 -42 8 -11 3 -72
16 -95 20 -8 2 -31 6 -50 9 -60 12 -93 17 -170 28 -110 15 -138 18 -210 24
-36 3 -87 8 -115 11 -48 6 -562 13 -567 9z"/>
<path d="M7592 6153 l1386 -1388 -1470 -1470 -1471 -1470 -839 -1 -840 -1 254
254 c139 139 666 666 1170 1171 505 504 918 919 918 922 0 5 -6650 3 -6655 -2
-2 -3 11 -87 35 -228 197 -1138 821 -2184 1740 -2913 218 -174 469 -336 770
-498 280 -151 848 -355 1155 -414 22 -5 45 -9 50 -11 16 -3 177 -33 213 -39
17 -3 44 -7 60 -10 33 -5 101 -14 167 -21 28 -3 66 -7 85 -9 194 -24 728 -24
910 0 19 2 60 7 90 10 85 9 269 39 435 70 162 31 568 148 690 200 17 7 73 30
125 50 284 114 567 263 830 438 102 68 290 204 300 217 3 3 32 27 65 52 140
106 410 363 552 523 34 39 73 84 88 100 116 132 315 408 436 605 105 173 257
470 329 645 72 176 175 478 195 573 4 18 13 32 21 32 39 0 342 100 533 176
147 58 445 203 576 278 55 32 115 67 133 77 63 36 278 183 375 256 283 214
565 482 788 748 514 613 875 1370 1023 2140 24 127 30 165 45 273 l8 52 -3331
0 -3331 0 1387 -1387z"/>
</g>
</svg>
