<?xml version="1.0" standalone="no"?>
<!DOCTYPE svg PUBLIC "-//W3C//DTD SVG 20010904//EN"
 "http://www.w3.org/TR/2001/REC-SVG-20010904/DTD/svg10.dtd">
<svg version="1.0" xmlns="http://www.w3.org/2000/svg"
 width="512.000000pt" height="512.000000pt" viewBox="0 0 512.000000 512.000000"
 preserveAspectRatio="xMidYMid meet">
<metadata>
Created by potrace 1.11, written by Peter Selinger 2001-2013
</metadata>
<g transform="translate(0.000000,512.000000) scale(0.100000,-0.100000)"
fill="#000000" stroke="none">
<path d="M2927 4613 c-3 -2 -20 -6 -38 -8 -19 -3 -50 -7 -69 -11 -19 -3 -42
-7 -50 -8 -20 -3 -72 -16 -90 -23 -8 -3 -24 -8 -35 -10 -10 -2 -30 -11 -43
-19 -14 -9 -21 -11 -17 -4 5 9 1 8 -16 -1 -13 -7 -26 -14 -29 -14 -3 0 -15 -6
-27 -13 -13 -7 -23 -10 -23 -7 0 4 -26 -7 -57 -24 -31 -17 -61 -31 -65 -31
-18 0 -37 -27 -26 -38 6 -6 6 -12 -3 -17 -7 -5 -10 -4 -5 3 3 6 2 13 -3 16
-14 9 -82 -34 -74 -47 3 -5 1 -7 -4 -4 -14 9 -76 -34 -158 -108 -37 -33 -70
-62 -74 -65 -33 -26 -101 -113 -95 -122 4 -6 3 -8 -3 -5 -11 7 -86 -82 -81
-94 2 -3 -5 -13 -14 -23 -30 -30 -89 -138 -84 -153 3 -8 2 -12 -2 -9 -5 3 -17
-15 -28 -40 -10 -24 -23 -44 -28 -44 -5 0 -2 -8 5 -17 9 -10 9 -14 2 -10 -18
11 -65 -143 -50 -162 10 -12 9 -13 -2 -7 -8 5 -16 4 -21 -4 -4 -6 -47 -25 -96
-41 -482 -162 -866 -571 -989 -1057 -13 -54 -26 -110 -29 -127 -3 -16 -11 -63
-19 -104 -15 -85 -14 -262 1 -324 6 -23 18 -80 27 -126 37 -195 133 -417 252
-584 126 -177 336 -360 534 -464 146 -77 346 -142 494 -160 130 -15 413 -8
485 12 8 2 27 6 41 9 14 2 59 14 100 25 475 134 858 498 1018 967 25 75 46
120 56 122 8 2 15 7 15 10 0 4 12 8 26 9 15 0 30 6 34 13 4 6 10 11 14 10 30
-5 256 95 295 131 10 9 28 20 40 24 13 4 20 12 17 20 -3 9 0 12 9 9 16 -6 97
55 90 67 -3 4 0 11 6 15 8 4 9 3 5 -4 -19 -30 16 -5 92 67 46 44 81 84 77 90
-3 6 0 11 7 11 7 0 24 14 38 31 14 17 33 40 43 52 10 12 28 37 39 57 12 19 24
37 27 40 16 14 31 52 25 62 -4 6 -3 8 3 5 8 -5 74 106 79 133 0 3 9 23 19 45
9 22 18 45 19 50 1 6 4 15 8 20 10 17 37 115 31 115 -3 0 0 7 7 15 10 12 10
15 -1 15 -11 0 -11 2 -1 8 7 5 17 37 23 73 6 35 17 79 26 97 33 74 36 191 8
303 -20 78 -34 144 -39 185 -5 35 -27 110 -59 199 -12 33 -22 62 -23 65 -3 20
-29 58 -35 54 -5 -3 -6 2 -3 10 6 14 -66 154 -93 181 -8 8 -12 15 -8 15 5 0
-3 12 -32 45 -7 7 -13 16 -13 19 0 14 -44 55 -53 49 -6 -4 -7 -1 -2 6 4 7 -1
20 -11 30 -11 10 -29 30 -41 44 -12 15 -29 24 -36 21 -8 -3 -20 3 -28 13 -13
16 -12 17 4 4 9 -8 20 -11 23 -8 8 8 -72 82 -161 150 -5 4 -21 16 -34 27 -14
11 -29 19 -34 17 -15 -5 -17 -39 -4 -57 10 -13 10 -13 -5 -1 -17 13 -19 43 -5
57 4 4 2 13 -4 21 -9 10 -15 11 -26 2 -11 -9 -12 -9 -7 5 4 10 -1 19 -12 24
-11 4 -44 20 -74 37 -30 16 -61 28 -67 27 -7 -2 -13 1 -13 6 0 5 -10 13 -22
17 -31 10 -37 12 -43 15 -3 1 -8 3 -12 4 -5 1 -18 7 -29 14 -18 9 -24 8 -37
-6 -9 -9 -16 -21 -15 -25 0 -5 -3 -11 -5 -14 -12 -11 0 26 12 41 16 19 19 18
-109 49 -86 22 -96 22 -108 8 -8 -9 -10 -10 -6 -2 3 7 0 17 -7 22 -20 13 -31
11 -23 -3 5 -9 2 -8 -10 1 -13 11 -59 15 -196 17 -98 1 -181 0 -183 -3z m164
-16 c-6 -8 -7 -18 -3 -22 4 -5 1 -5 -6 -1 -10 6 -10 11 -1 22 6 8 14 14 16 14
3 0 0 -6 -6 -13z m96 -2 c0 -8 -4 -12 -9 -9 -5 3 -6 10 -3 15 9 13 12 11 12
-6z m-260 -10 c0 -8 -10 -23 -21 -32 -21 -18 -21 -18 -2 5 11 12 16 22 12 22
-4 0 -4 5 -1 10 9 14 12 13 12 -5z m126 1 c6 -15 -17 -16 -30 -1 -4 4 -2 5 5
1 6 -4 12 -2 12 3 0 15 7 14 13 -3z m197 10 c0 -2 -8 -10 -17 -17 -16 -13 -17
-12 -4 4 13 16 21 21 21 13z m-350 -10 c0 -2 -8 -10 -17 -17 -16 -13 -17 -12
-4 4 13 16 21 21 21 13z m70 -4 c0 -5 -7 -9 -15 -9 -8 0 -12 4 -9 9 3 4 9 8
15 8 5 0 9 -4 9 -8z m160 4 c0 -2 -7 -7 -16 -10 -8 -3 -12 -2 -9 4 6 10 25 14
25 6z m52 -21 c2 3 5 -2 5 -10 0 -10 -4 -12 -12 -5 -7 5 -16 6 -21 2 -5 -4 -6
-3 -2 2 4 5 2 16 -4 25 -10 12 -7 12 8 -2 11 -9 23 -15 26 -12z m141 0 c-3 -9
-8 -14 -10 -11 -3 3 -2 9 2 15 9 16 15 13 8 -4z m-582 -18 c-10 -9 -11 -8 -5
6 3 10 9 15 12 12 3 -3 0 -11 -7 -18z m280 6 c13 -17 13 -17 -6 -3 -11 8 -22
16 -24 17 -2 2 0 3 6 3 6 0 17 -8 24 -17z m246 2 c0 -8 -4 -12 -9 -9 -4 3 -8
9 -8 15 0 5 4 9 8 9 5 0 9 -7 9 -15z m104 2 c-6 -8 -9 -16 -6 -19 3 -3 -5 -13
-17 -24 l-23 -19 19 23 c11 12 16 22 11 22 -4 0 -2 7 5 15 7 8 15 15 17 15 3
0 0 -6 -6 -13z m25 -15 c-17 -16 -18 -16 -5 5 7 12 15 20 18 17 3 -2 -3 -12
-13 -22z m48 20 c3 -5 -1 -9 -9 -9 -8 0 -12 4 -9 9 3 4 7 8 9 8 2 0 6 -4 9 -8z
m-634 -16 c0 -2 -7 -7 -16 -10 -8 -3 -12 -2 -9 4 6 10 25 14 25 6z m35 -4 c-3
-3 0 -11 6 -19 17 -20 5 -16 -14 5 -15 16 -15 19 -2 19 8 0 13 -3 10 -5z m156
-9 c13 -16 12 -17 -3 -4 -10 7 -18 15 -18 17 0 8 8 3 21 -13z m99 12 c0 -1
-10 -10 -22 -21 -14 -12 -18 -13 -10 -3 6 9 10 18 7 21 -3 2 2 5 10 5 8 0 15
-1 15 -2z m35 -5 c3 -6 -1 -7 -9 -4 -18 7 -21 14 -7 14 6 0 13 -4 16 -10z
m127 -15 c3 3 13 -5 24 -17 19 -23 19 -23 -2 -5 -11 9 -23 15 -26 12 -3 -3
-13 5 -24 17 -19 23 -19 23 2 5 11 -9 23 -15 26 -12z m232 17 c2 -4 -4 -8 -14
-8 -10 0 -16 4 -14 8 3 4 9 8 14 8 5 0 11 -4 14 -8z m-724 -5 c0 -2 -8 -11
-18 -20 -15 -14 -19 -15 -19 -2 0 8 4 12 8 9 4 -2 10 0 14 6 6 10 15 14 15 7z
m412 -12 c2 3 5 -2 5 -10 0 -19 0 -19 -23 7 -12 14 -13 18 -3 10 9 -6 18 -10
21 -7z m129 -2 c13 -16 12 -17 -3 -4 -10 7 -18 15 -18 17 0 8 8 3 21 -13z
m116 2 c0 -8 -3 -13 -5 -10 -3 3 -12 -1 -21 -7 -10 -8 -9 -4 3 10 23 26 23 26
23 7z m-787 1 c0 -2 -8 -10 -17 -17 -16 -13 -17 -12 -4 4 13 16 21 21 21 13z
m67 -13 c0 -10 -4 -10 -16 -1 -9 7 -18 13 -20 15 -2 1 5 1 16 0 11 0 20 -7 20
-14z m114 0 c13 -16 12 -17 -3 -4 -17 13 -22 21 -14 21 2 0 10 -8 17 -17z
m126 0 c0 -10 -4 -10 -16 -1 -9 7 -18 13 -20 15 -2 1 5 1 16 0 11 0 20 -7 20
-14z m173 13 c0 -2 -8 -10 -17 -17 -16 -13 -17 -12 -4 4 13 16 21 21 21 13z
m370 -10 c0 -2 -8 -10 -17 -17 -16 -13 -17 -12 -4 4 13 16 21 21 21 13z m120
0 c0 -2 -8 -10 -17 -17 -16 -13 -17 -12 -4 4 13 16 21 21 21 13z m-1043 -24
c-17 -18 -51 -27 -41 -10 3 5 9 6 14 3 4 -3 13 2 20 10 7 8 15 15 18 15 3 0
-2 -8 -11 -18z m93 14 c0 -2 -8 -10 -17 -17 -16 -13 -17 -12 -4 4 13 16 21 21
21 13z m162 -21 c2 3 5 -2 5 -10 0 -19 1 -20 -28 12 -17 20 -18 23 -3 10 11
-9 23 -15 26 -12z m99 8 c13 -16 12 -17 -3 -4 -10 7 -18 15 -18 17 0 8 8 3 21
-13z m99 13 c0 -2 -8 -10 -17 -17 -16 -13 -17 -12 -4 4 13 16 21 21 21 13z
m120 0 c0 -2 -8 -10 -17 -17 -16 -13 -17 -12 -4 4 13 16 21 21 21 13z m228
-16 c-7 -10 -14 -17 -17 -15 -4 4 18 35 25 35 2 0 -1 -9 -8 -20z m-666 -5 c2
3 5 -2 5 -10 0 -19 0 -19 -23 7 -12 14 -13 18 -3 10 9 -6 18 -10 21 -7z m63
-7 c-1 -13 5 -32 14 -43 16 -20 16 -20 -5 -2 -17 14 -25 46 -15 65 4 9 7 -1 6
-20z m118 9 c4 3 7 1 7 -5 0 -17 -16 -15 -31 6 -12 15 -12 16 2 5 9 -7 19 -10
22 -6z m388 -4 c13 -16 12 -17 -3 -4 -17 13 -22 21 -14 21 2 0 10 -8 17 -17z
m155 2 c-1 -8 -5 -17 -8 -21 -5 -4 -4 16 1 34 3 9 9 -1 7 -13z m81 0 c0 -8 -3
-13 -5 -10 -3 3 -15 -3 -26 -12 -15 -13 -14 -10 3 10 29 32 28 31 28 12z
m-883 -11 c3 -8 2 -12 -4 -9 -6 3 -10 10 -10 16 0 14 7 11 14 -7z m317 -7
c-10 -9 -11 -8 -5 6 3 10 9 15 12 12 3 -3 0 -11 -7 -18z m109 -2 c14 -19 14
-19 -2 -6 -10 7 -18 18 -18 24 0 6 1 8 3 6 1 -2 9 -13 17 -24z m54 9 c3 -8 2
-12 -4 -9 -6 3 -10 10 -10 16 0 14 7 11 14 -7z m83 1 c0 -8 -4 -12 -9 -9 -5 3
-6 10 -3 15 9 13 12 11 12 -6z m34 -2 c13 -16 12 -17 -3 -4 -17 13 -22 21 -14
21 2 0 10 -8 17 -17z m110 -10 c13 -16 12 -17 -3 -4 -10 7 -18 15 -18 17 0 8
8 3 21 -13z m360 0 c13 -16 12 -17 -3 -4 -17 13 -22 21 -14 21 2 0 10 -8 17
-17z m-1200 -20 c13 -15 17 -22 8 -15 -9 6 -20 8 -25 4 -5 -4 -6 -3 -2 2 4 5
3 15 -3 23 -21 25 -3 13 22 -14z m318 -7 c-3 -3 -11 5 -18 17 -13 21 -12 21 5
5 10 -10 16 -20 13 -22z m156 14 c-10 -11 -20 -18 -23 -15 -3 3 -15 -3 -26
-12 -21 -18 -21 -18 -2 4 10 13 22 20 26 18 4 -3 13 2 20 10 7 8 15 15 18 15
3 0 -3 -9 -13 -20z m218 -3 c4 3 7 4 7 0 0 -17 -20 -14 -36 6 -19 22 -19 22 2
4 11 -9 24 -14 27 -10z m422 3 c-10 -11 -20 -18 -23 -15 -3 3 -15 -3 -26 -12
-21 -18 -21 -18 -2 4 10 13 22 20 26 18 4 -3 13 2 20 10 7 8 15 15 18 15 3 0
-3 -9 -13 -20z m-1055 6 c0 -2 -8 -10 -17 -17 -16 -13 -17 -12 -4 4 13 16 21
21 21 13z m72 -11 c2 3 5 -2 5 -10 0 -19 0 -19 -23 7 -12 14 -13 18 -3 10 9
-6 18 -10 21 -7z m264 -10 c-1 -13 -4 -27 -7 -30 -5 -4 -4 41 0 53 4 10 8 -2
7 -23z m159 -13 c-3 -3 3 -15 12 -26 14 -15 14 -18 2 -8 -9 6 -18 9 -22 6 -3
-3 -4 2 -2 13 1 10 -5 27 -14 38 -16 20 -16 20 7 1 12 -11 20 -21 17 -24z m57
23 c2 3 5 -2 5 -10 0 -19 0 -19 -23 7 -12 14 -13 18 -3 10 9 -6 18 -10 21 -7z
m214 -7 c12 -14 13 -18 3 -10 -9 6 -18 10 -21 7 -2 -3 -5 2 -5 10 0 19 0 19
23 -7z m191 7 c0 -8 -3 -13 -5 -10 -3 3 -12 -1 -21 -7 -10 -8 -9 -4 3 10 23
26 23 26 23 7z m164 -2 c13 -16 12 -17 -3 -4 -17 13 -22 21 -14 21 2 0 10 -8
17 -17z m-1247 -9 c3 -8 2 -12 -4 -9 -6 3 -10 10 -10 16 0 14 7 11 14 -7z
m265 13 c-2 -2 -11 -8 -20 -15 -12 -9 -16 -9 -16 1 0 7 9 14 20 14 11 1 18 1
16 0z m311 -1 c0 -2 -8 -10 -17 -17 -16 -13 -17 -12 -4 4 13 16 21 21 21 13z
m201 -19 c-10 -9 -11 -8 -5 6 3 10 9 15 12 12 3 -3 0 -11 -7 -18z m44 3 c10
-11 16 -20 13 -20 -3 0 -13 9 -23 20 -10 11 -16 20 -13 20 3 0 13 -9 23 -20z
m395 16 c0 -2 -8 -10 -17 -17 -16 -13 -17 -12 -4 4 13 16 21 21 21 13z m91
-23 c13 -16 12 -17 -3 -4 -17 13 -22 21 -14 21 2 0 10 -8 17 -17z m-1161 3 c0
-2 -7 -7 -16 -10 -8 -3 -12 -2 -9 4 6 10 25 14 25 6z m31 -13 c13 -16 12 -17
-3 -4 -17 13 -22 21 -14 21 2 0 10 -8 17 -17z m86 -1 c-17 -18 -51 -27 -41
-10 3 5 9 6 14 3 4 -3 13 2 20 10 7 8 15 15 18 15 3 0 -2 -8 -11 -18z m394 1
c13 -16 12 -17 -3 -4 -17 13 -22 21 -14 21 2 0 10 -8 17 -17z m295 5 c3 -4 -1
-5 -10 -4 -8 1 -18 5 -22 8 -3 4 1 5 10 4 8 -1 18 -5 22 -8z m79 3 c-9 -8 -36
-10 -30 -2 2 4 11 8 20 8 8 0 13 -3 10 -6z m-989 -27 c1 -9 0 -13 -4 -10 -3 4
-7 14 -8 22 -1 9 0 13 4 10 3 -4 7 -14 8 -22z m360 11 c-1 -8 -5 -17 -8 -21
-5 -4 -4 16 1 34 3 9 9 -1 7 -13z m121 0 c0 -8 -4 -15 -9 -15 -10 0 -11 14 -1
23 9 10 10 9 10 -8z m640 0 c0 -8 -4 -15 -9 -15 -10 0 -11 14 -1 23 9 10 10 9
10 -8z m138 -23 c-3 -3 3 -15 12 -26 18 -21 18 -21 -5 -2 -12 11 -20 21 -17
24 3 3 -3 15 -12 26 -18 21 -18 21 5 2 12 -11 20 -21 17 -24z m78 25 c4 3 7 1
7 -5 0 -17 -16 -15 -31 6 -12 15 -12 16 2 5 9 -7 19 -10 22 -6z m-1222 -14
c13 -16 12 -17 -3 -4 -17 13 -22 21 -14 21 2 0 10 -8 17 -17z m40 -6 c-10 -9
-11 -8 -5 6 3 10 9 15 12 12 3 -3 0 -11 -7 -18z m108 20 c-2 -1 -13 -9 -24
-17 -19 -14 -19 -14 -6 3 7 9 18 17 24 17 6 0 8 -1 6 -3z m372 -20 c-10 -9
-11 -8 -5 6 3 10 9 15 12 12 3 -3 0 -11 -7 -18z m99 19 c0 -2 -8 -10 -17 -17
-16 -13 -17 -12 -4 4 13 16 21 21 21 13z m47 -21 c0 -8 -10 -23 -21 -32 -21
-18 -21 -18 -2 5 11 12 16 22 12 22 -4 0 -4 5 -1 10 9 14 12 13 12 -5z m278
-30 c1 -19 -1 -32 -4 -29 -3 3 -6 21 -6 39 -1 19 1 32 4 29 3 -3 6 -21 6 -39z
m166 28 c13 -16 12 -17 -3 -4 -17 13 -22 21 -14 21 2 0 10 -8 17 -17z m-1277
-1 c2 -4 -4 -8 -14 -8 -10 0 -16 4 -14 8 3 4 9 8 14 8 5 0 11 -4 14 -8z m351
0 c-3 -3 0 -11 6 -19 17 -20 5 -16 -14 5 -15 16 -15 19 -2 19 8 0 13 -3 10 -5z
m82 -10 c-9 -10 -26 -18 -39 -19 -17 -2 -19 0 -8 7 8 5 17 7 21 4 4 -2 12 3
19 11 7 8 15 15 18 15 3 0 -2 -8 -11 -18z m373 14 c0 -2 -8 -10 -17 -17 -16
-13 -17 -12 -4 4 13 16 21 21 21 13z m75 -5 c-9 -8 -36 -10 -30 -2 2 4 11 8
20 8 8 0 13 -3 10 -6z m199 1 c2 -4 -4 -8 -14 -8 -10 0 -16 4 -14 8 3 4 9 8
14 8 5 0 11 -4 14 -8z m71 -12 c10 -11 16 -20 13 -20 -3 0 -13 9 -23 20 -10
11 -16 20 -13 20 3 0 13 -9 23 -20z m211 8 c3 -4 -1 -5 -10 -4 -8 1 -18 5 -22
8 -3 4 1 5 10 4 8 -1 18 -5 22 -8z m-1406 -1 c0 -2 -8 -11 -18 -20 -15 -14
-19 -15 -19 -2 0 8 4 12 8 9 4 -2 10 0 14 6 6 10 15 14 15 7z m92 -12 c2 3 5
-2 5 -10 0 -19 0 -19 -23 7 -12 14 -13 18 -3 10 9 -6 18 -10 21 -7z m195 -2
c-14 -14 -19 -15 -29 -4 -11 10 -10 11 3 6 10 -4 20 -2 24 4 3 6 9 11 13 11 3
0 -1 -8 -11 -17z m350 -28 c0 -8 -4 -12 -9 -9 -5 4 -7 9 -4 12 3 3 -2 15 -11
26 -18 21 -18 21 3 3 11 -9 21 -24 21 -32z m130 27 c-10 -10 -15 -21 -12 -24
3 -2 -2 -5 -10 -5 -10 0 -12 4 -5 12 5 7 6 16 2 20 -4 5 -2 5 5 1 6 -3 14 -2
18 4 3 5 9 10 12 10 3 0 -1 -8 -10 -18z m221 -5 c17 -18 19 -24 7 -24 -8 0
-13 3 -10 5 3 3 -2 14 -12 24 -24 27 -10 22 15 -5z m48 -37 c1 -19 -7 -36 -20
-47 -21 -18 -21 -18 -5 2 19 24 19 65 0 91 -14 18 -14 18 4 1 11 -9 20 -31 21
-47z m228 41 c14 -15 15 -21 4 -27 -7 -4 -10 -3 -5 1 4 5 0 17 -10 27 -9 10
-14 18 -11 18 3 0 13 -9 22 -19z m-1067 3 c-3 -3 -12 -6 -20 -8 -8 -1 -23 -8
-33 -16 -18 -14 -18 -14 -2 6 9 11 27 20 39 21 12 1 19 0 16 -3z m36 -12 c15
-16 15 -19 2 -19 -8 0 -13 3 -10 5 3 3 0 11 -6 19 -17 20 -5 16 14 -5z m88 5
c-6 -8 -9 -16 -6 -19 3 -2 -2 -5 -10 -5 -13 0 -13 3 2 19 19 21 31 25 14 5z
m50 -4 c13 -17 13 -17 -6 -3 -11 8 -22 16 -24 17 -2 2 0 3 6 3 6 0 17 -8 24
-17z m229 -8 c14 -19 14 -19 -2 -6 -10 7 -18 18 -18 24 0 6 1 8 3 6 1 -2 9
-13 17 -24z m121 12 c-6 -8 -9 -16 -6 -19 3 -2 -2 -5 -10 -5 -13 0 -13 3 2 19
19 21 31 25 14 5z m80 0 c-6 -8 -9 -16 -6 -19 3 -2 -2 -5 -10 -5 -13 0 -13 3
2 19 19 21 31 25 14 5z m149 9 c0 -2 -8 -10 -17 -17 -16 -13 -17 -12 -4 4 13
16 21 21 21 13z m290 -21 c14 -19 14 -19 -2 -6 -10 7 -18 18 -18 24 0 6 1 8 3
6 1 -2 9 -13 17 -24z m-1319 -2 c13 -16 12 -17 -3 -4 -10 7 -18 15 -18 17 0 8
8 3 21 -13z m1200 0 c13 -16 12 -17 -3 -4 -17 13 -22 21 -14 21 2 0 10 -8 17
-17z m-1111 4 c0 -2 -10 -13 -23 -25 -18 -17 -24 -19 -24 -8 0 8 4 13 8 11 3
-3 12 2 19 10 12 14 20 19 20 12z m82 -22 c2 3 5 -2 5 -10 0 -19 1 -20 -28 12
-17 20 -18 23 -3 10 11 -9 23 -15 26 -12z m78 0 c-7 -8 -17 -15 -23 -15 -6 0
-2 7 9 15 25 19 30 19 14 0z m290 11 c0 -2 -8 -10 -17 -17 -16 -13 -17 -12 -4
4 13 16 21 21 21 13z m634 -26 c-6 -6 -10 -3 -10 10 0 13 4 16 10 10 7 -7 7
-13 0 -20z m-1224 15 c0 -2 -6 -8 -13 -14 -10 -8 -14 -7 -14 2 0 8 6 14 14 14
7 0 13 -1 13 -2z m507 -12 c0 -9 -4 -10 -14 -2 -7 6 -13 12 -13 14 0 1 6 2 13
2 8 0 14 -6 14 -14z m143 13 c0 -2 -7 -7 -16 -10 -8 -3 -12 -2 -9 4 6 10 25
14 25 6z m150 0 c0 -2 -8 -10 -17 -17 -16 -13 -17 -12 -4 4 13 16 21 21 21 13z
m715 -7 c3 -3 -14 -5 -37 -4 -24 2 -48 -1 -54 -6 -6 -5 -11 -4 -11 4 0 10 15
13 48 13 26 -1 50 -4 54 -7z m106 -6 c12 -16 12 -17 -2 -6 -9 7 -19 10 -22 6
-4 -3 -7 -1 -7 5 0 17 16 15 31 -5z m-1574 -8 c0 -8 -10 -23 -21 -32 -21 -18
-21 -18 -2 5 11 12 16 22 12 22 -4 0 -4 5 -1 10 9 14 12 13 12 -5z m563 11 c0
-2 -8 -10 -17 -17 -16 -13 -17 -12 -4 4 13 16 21 21 21 13z m120 0 c0 -2 -8
-10 -17 -17 -16 -13 -17 -12 -4 4 13 16 21 21 21 13z m640 0 c0 -2 -8 -10 -17
-17 -16 -13 -17 -12 -4 4 13 16 21 21 21 13z m-1147 -29 c4 3 7 4 7 0 0 -17
-20 -14 -36 6 -19 22 -19 22 2 4 11 -9 24 -14 27 -10z m104 16 c-4 -3 1 -16
10 -27 18 -21 18 -21 -4 -2 -25 21 -30 36 -11 36 6 0 8 -3 5 -7z m40 -16 c1
-11 1 -18 0 -16 -2 2 -8 11 -15 20 -9 12 -9 16 1 16 7 0 14 -9 14 -20z m773
20 c0 -2 -12 -14 -27 -28 l-28 -24 24 28 c23 25 31 32 31 24z m120 -1 c0 -2
-8 -10 -17 -17 -16 -13 -17 -12 -4 4 13 16 21 21 21 13z m-965 -26 c10 -11 16
-20 13 -20 -3 0 -13 9 -23 20 -10 11 -16 20 -13 20 3 0 13 -9 23 -20z m159 -1
c-10 -12 -18 -24 -17 -28 1 -3 0 -8 -2 -9 -2 -2 -3 3 -1 11 2 16 25 47 34 47
3 0 -3 -9 -14 -21z m97 4 c13 -16 12 -17 -3 -4 -17 13 -22 21 -14 21 2 0 10
-8 17 -17z m76 2 c0 -8 -3 -13 -5 -10 -3 3 -12 -1 -21 -7 -10 -8 -9 -4 3 10
23 26 23 26 23 7z m63 12 c0 -2 -8 -11 -18 -20 -15 -14 -19 -15 -19 -2 0 8 4
12 8 9 4 -2 10 0 14 6 6 10 15 14 15 7z m60 -1 c0 -2 -8 -10 -17 -17 -16 -13
-17 -12 -4 4 13 16 21 21 21 13z m177 -47 c2 -23 -7 -20 -11 4 -1 8 -8 23 -16
33 -14 18 -14 18 6 2 11 -9 20 -27 21 -39z m80 6 c0 -8 -4 -12 -9 -9 -5 4 -7
9 -4 12 3 3 -2 15 -11 26 -18 21 -18 21 3 3 11 -9 21 -24 21 -32z m64 28 c13
-16 12 -17 -3 -4 -10 7 -18 15 -18 17 0 8 8 3 21 -13z m259 14 c0 -2 -8 -11
-18 -20 -15 -14 -19 -15 -19 -2 0 8 4 12 8 9 4 -2 10 0 14 6 6 10 15 14 15 7z
m60 -1 c0 -2 -8 -10 -17 -17 -16 -13 -17 -12 -4 4 13 16 21 21 21 13z m177
-47 c2 -23 -7 -20 -11 4 -1 8 -8 23 -16 33 -14 18 -14 18 6 2 11 -9 20 -27 21
-39z m104 34 c13 -16 12 -17 -3 -4 -17 13 -22 21 -14 21 2 0 10 -8 17 -17z
m76 2 c0 -8 -3 -13 -5 -10 -3 3 -12 -1 -21 -7 -10 -8 -9 -4 3 10 23 26 23 26
23 7z m-1784 -13 c15 -16 15 -19 2 -19 -8 0 -13 3 -10 5 3 3 0 11 -6 19 -17
20 -5 16 14 -5z m184 1 c0 -10 -4 -10 -16 -1 -9 7 -18 13 -20 15 -2 1 5 1 16
0 11 0 20 -7 20 -14z m376 -1 c15 -16 15 -19 2 -19 -8 0 -13 3 -10 5 3 3 0 11
-6 19 -17 20 -5 16 14 -5z m248 5 c-6 -8 -9 -16 -6 -19 3 -2 -2 -5 -10 -5 -13
0 -13 3 2 19 19 21 31 25 14 5z m640 0 c-6 -8 -9 -16 -6 -19 3 -2 -2 -5 -10
-5 -13 0 -13 3 2 19 19 21 31 25 14 5z m232 -5 c15 -16 15 -19 2 -19 -8 0 -13
3 -10 5 3 3 0 11 -6 19 -17 20 -5 16 14 -5z m-1736 -22 c-2 -11 -6 -22 -9 -26
-4 -3 -5 2 -3 13 2 10 4 21 4 26 1 4 3 7 6 7 3 0 4 -9 2 -20z m235 -5 c2 3 5
-2 5 -10 0 -10 -4 -12 -12 -5 -7 5 -16 6 -21 2 -5 -4 -6 -3 -2 2 4 5 2 16 -4
25 -10 12 -7 12 8 -2 11 -9 23 -15 26 -12z m352 17 c2 -4 -4 -8 -14 -8 -10 0
-16 4 -14 8 3 4 9 8 14 8 5 0 11 -4 14 -8z m81 -2 c-3 -5 -12 -10 -18 -10 -7
0 -6 4 3 10 19 12 23 12 15 0z m150 -8 c-3 -3 -11 0 -18 7 -9 10 -8 11 6 5 10
-3 15 -9 12 -12z m90 9 c-9 -8 -36 -10 -30 -2 2 4 11 8 20 8 8 0 13 -3 10 -6z
m81 -3 c3 -4 -1 -5 -10 -4 -8 1 -18 5 -22 8 -3 4 1 5 10 4 8 -1 18 -5 22 -8z
m80 0 c3 -4 -1 -5 -10 -4 -8 1 -18 5 -22 8 -3 4 1 5 10 4 8 -1 18 -5 22 -8z
m80 0 c3 -4 -1 -5 -10 -4 -8 1 -18 5 -22 8 -3 4 1 5 10 4 8 -1 18 -5 22 -8z
m194 -2 c-7 -7 -13 -7 -20 0 -6 6 -3 10 10 10 13 0 16 -4 10 -10z m115 -4 c-3
-3 -11 0 -18 7 -9 10 -8 11 6 5 10 -3 15 -9 12 -12z m85 10 c0 -5 -7 -9 -15
-9 -8 0 -12 4 -9 9 3 4 9 8 15 8 5 0 9 -4 9 -8z m86 -4 c3 -4 -1 -5 -10 -4 -8
1 -18 5 -22 8 -3 4 1 5 10 4 8 -1 18 -5 22 -8z m159 2 c-3 -5 -12 -10 -18 -10
-7 0 -6 4 3 10 19 12 23 12 15 0z m-1068 -15 c0 -8 -3 -13 -5 -10 -3 3 -15 -3
-26 -12 -15 -14 -18 -14 -8 -2 6 9 8 20 4 24 -4 5 -2 5 5 1 6 -3 14 -2 18 4 9
14 12 13 12 -5z m60 -2 c-4 -3 -1 -13 6 -22 11 -14 10 -14 -5 -2 -16 12 -16
31 -1 31 4 0 3 -3 0 -7z m162 4 c-2 -1 -13 -9 -24 -17 -19 -14 -19 -14 -6 3 7
9 18 17 24 17 6 0 8 -1 6 -3z m476 -5 c-3 -3 1 -12 7 -21 10 -12 7 -12 -8 2
-11 9 -24 14 -29 10 -4 -5 -5 -3 -2 3 3 6 13 11 22 11 8 0 13 -3 10 -5z m164
5 c-2 -1 -13 -9 -24 -17 -19 -14 -19 -14 -6 3 7 9 18 17 24 17 6 0 8 -1 6 -3z
m-767 -24 c-1 -4 7 -17 16 -28 17 -20 17 -20 -4 -2 -11 9 -21 24 -21 32 0 8 2
13 5 11 2 -2 4 -8 4 -13z m640 0 c-1 -4 7 -17 16 -28 17 -20 17 -20 -4 -2 -11
9 -21 24 -21 32 0 8 2 13 5 11 2 -2 4 -8 4 -13z m-1431 -6 c-6 -8 -8 -17 -4
-20 3 -4 1 -7 -5 -7 -15 0 -15 13 0 28 16 16 23 15 9 -1z m37 -6 c-7 -9 -13
-18 -15 -20 -1 -2 -1 5 0 16 0 11 7 20 14 20 10 0 10 -4 1 -16z m42 4 c-5 -7
-9 -14 -7 -16 1 -2 0 -3 -2 -2 -2 2 -11 -3 -20 -9 -12 -10 -12 -7 2 8 9 11 15
23 12 26 -3 2 2 5 10 5 10 0 12 -4 5 -12z m50 10 c0 -1 -10 -10 -22 -21 -14
-12 -18 -13 -10 -3 6 9 10 18 7 21 -3 2 2 5 10 5 8 0 15 -1 15 -2z m35 -5 c3
-6 -1 -7 -9 -4 -18 7 -21 14 -7 14 6 0 13 -4 16 -10z m160 1 c-9 -8 -36 -10
-30 -2 2 4 11 8 20 8 8 0 13 -3 10 -6z m45 4 c0 -1 -10 -10 -22 -21 -14 -12
-18 -13 -10 -3 6 9 10 18 7 21 -3 2 2 5 10 5 8 0 15 -1 15 -2z m34 -3 c3 -5
-1 -9 -9 -9 -8 0 -12 4 -9 9 3 4 7 8 9 8 2 0 6 -4 9 -8z m511 -12 c-10 -11
-20 -18 -23 -15 -3 3 -15 -3 -26 -12 -21 -18 -21 -18 -2 4 10 13 22 20 26 18
4 -3 13 2 20 10 7 8 15 15 18 15 3 0 -3 -9 -13 -20z m160 0 c-10 -11 -20 -18
-23 -15 -3 3 -12 -1 -21 -8 -14 -11 -14 -10 -2 5 7 10 17 16 21 13 4 -3 13 2
20 10 7 8 15 15 18 15 3 0 -3 -9 -13 -20z m130 11 c-9 -8 -36 -10 -30 -2 2 4
11 8 20 8 8 0 13 -3 10 -6z m81 -3 c3 -4 -1 -5 -10 -4 -8 1 -18 5 -22 8 -3 4
1 5 10 4 8 -1 18 -5 22 -8z m269 -8 c-10 -11 -20 -18 -23 -15 -3 3 -15 -3 -26
-12 -21 -18 -21 -18 -2 4 10 13 22 20 26 18 4 -3 13 2 20 10 7 8 15 15 18 15
3 0 -3 -9 -13 -20z m359 12 c3 -5 -1 -9 -9 -9 -8 0 -12 4 -9 9 3 4 7 8 9 8 2
0 6 -4 9 -8z m-1702 -17 c2 3 5 -2 5 -10 0 -19 0 -19 -23 7 -12 14 -13 18 -3
10 9 -6 18 -10 21 -7z m68 12 c0 -2 -8 -11 -18 -20 -15 -14 -19 -15 -19 -2 0
8 4 12 8 9 4 -2 10 0 14 6 6 10 15 14 15 7z m172 -12 c2 3 5 -2 5 -10 0 -19 0
-19 -23 7 -12 14 -13 18 -3 10 9 -6 18 -10 21 -7z m143 -33 c-1 -9 3 -24 9
-32 9 -13 9 -13 -6 -2 -9 7 -15 21 -13 30 1 9 -5 26 -14 37 -16 20 -16 20 6 2
11 -10 20 -26 18 -35z m102 35 c0 -7 -9 -14 -20 -14 -19 -2 -19 -2 -1 12 11 8
19 15 20 15 0 0 1 -6 1 -13z m49 -9 c12 -14 13 -18 3 -10 -9 6 -18 10 -21 7
-2 -3 -5 2 -5 10 0 19 0 19 23 -7z m114 18 c0 -2 -8 -10 -17 -17 -16 -13 -17
-12 -4 4 13 16 21 21 21 13z m140 1 c0 -2 -8 -11 -18 -20 -15 -14 -19 -15 -19
-2 0 8 4 12 8 9 4 -2 10 0 14 6 6 10 15 14 15 7z m160 0 c0 -2 -8 -11 -18 -20
-15 -14 -19 -15 -19 -2 0 8 4 12 8 9 4 -2 10 0 14 6 6 10 15 14 15 7z m172
-12 c2 3 5 -2 5 -10 0 -19 0 -19 -23 7 -12 14 -13 18 -3 10 9 -6 18 -10 21 -7z
m54 -7 c12 -14 13 -18 3 -10 -9 6 -18 10 -21 7 -2 -3 -5 2 -5 10 0 19 0 19 23
-7z m114 18 c0 -2 -8 -10 -17 -17 -16 -13 -17 -12 -4 4 13 16 21 21 21 13z
m140 1 c0 -2 -8 -11 -18 -20 -15 -14 -19 -15 -19 -2 0 8 4 12 8 9 4 -2 10 0
14 6 6 10 15 14 15 7z m240 0 c0 -2 -8 -11 -18 -20 -15 -14 -19 -15 -19 -2 0
8 4 12 8 9 4 -2 10 0 14 6 6 10 15 14 15 7z m-1730 -11 c0 -2 -8 -10 -17 -17
-16 -13 -17 -12 -4 4 13 16 21 21 21 13z m410 -21 c14 -19 14 -19 -2 -6 -10 7
-18 18 -18 24 0 6 1 8 3 6 1 -2 9 -13 17 -24z m1237 1 c18 -21 18 -21 -3 -3
-11 9 -23 14 -26 11 -3 -3 -8 -1 -12 4 -11 18 25 8 41 -12z m-1602 -34 c-1 -9
5 -26 14 -37 16 -20 16 -20 -6 -2 -11 10 -20 26 -18 35 1 9 -3 24 -9 32 -9 13
-9 13 6 2 9 -7 15 -21 13 -30z m95 34 c0 -2 -8 -10 -17 -17 -16 -13 -17 -12
-4 4 13 16 21 21 21 13z m141 -13 c13 -16 12 -17 -3 -4 -10 7 -18 15 -18 17 0
8 8 3 21 -13z m381 -8 c2 3 5 -2 5 -10 0 -19 1 -20 -28 12 -17 20 -18 23 -3
10 11 -9 23 -15 26 -12z m198 21 c0 -2 -8 -10 -17 -17 -16 -13 -17 -12 -4 4
13 16 21 21 21 13z m148 -16 c-7 -10 -14 -17 -17 -15 -4 4 18 35 25 35 2 0 -1
-9 -8 -20z m174 -4 c3 3 8 1 12 -4 11 -18 -25 -8 -41 12 -18 21 -18 21 3 3 11
-9 23 -14 26 -11z m104 -12 c1 -9 -1 -13 -4 -9 -4 4 -7 10 -7 13 0 4 -4 14 -9
22 -7 12 -6 13 4 3 8 -7 15 -20 16 -29z m214 32 c0 -2 -8 -10 -17 -17 -16 -13
-17 -12 -4 4 13 16 21 21 21 13z m40 -1 c0 -1 -12 -12 -27 -26 -20 -17 -23
-18 -10 -3 9 11 15 23 12 26 -3 2 2 5 10 5 8 0 15 -1 15 -2z m185 -15 c-10
-11 -20 -18 -23 -15 -3 3 -15 -3 -26 -12 -21 -18 -21 -18 -2 4 10 13 22 20 26
18 4 -3 13 2 20 10 7 8 15 15 18 15 3 0 -3 -9 -13 -20z m-1983 -2 c-14 -14
-44 -20 -36 -7 3 5 9 7 14 4 5 -3 11 -1 15 5 3 5 9 10 13 10 3 0 1 -5 -6 -12z
m204 -3 c-1 -8 -5 -17 -8 -21 -5 -4 -4 16 1 34 3 9 9 -1 7 -13z m237 0 c-3 -9
-8 -14 -10 -11 -3 3 -2 9 2 15 9 16 15 13 8 -4z m61 -14 c-2 -3 -12 3 -22 13
-16 17 -16 18 5 5 12 -7 20 -15 17 -18z m144 4 c-3 -3 -9 2 -12 12 -6 14 -5
15 5 6 7 -7 10 -15 7 -18z m118 -1 c1 -9 0 -13 -4 -10 -3 4 -7 14 -8 22 -1 9
0 13 4 10 3 -4 7 -14 8 -22z m82 1 c-3 -3 -9 2 -12 12 -6 14 -5 15 5 6 7 -7
10 -15 7 -18z m155 10 c-3 -9 -8 -14 -10 -11 -3 3 -2 9 2 15 9 16 15 13 8 -4z
m327 11 c0 -2 -6 -9 -14 -15 -11 -9 -16 -9 -22 0 -4 7 -3 9 4 5 6 -3 13 -2 17
4 6 10 15 14 15 6z m34 -26 c-6 -6 -10 -3 -10 10 0 13 4 16 10 10 7 -7 7 -13
0 -20z m122 4 c1 -9 0 -13 -4 -10 -3 4 -7 14 -8 22 -1 9 0 13 4 10 3 -4 7 -14
8 -22z m157 11 c-3 -9 -8 -14 -10 -11 -3 3 -2 9 2 15 9 16 15 13 8 -4z m241
-15 c-6 -6 -10 -3 -10 10 0 13 4 16 10 10 7 -7 7 -13 0 -20z m156 15 c-7 -9
-15 -13 -18 -10 -3 3 -12 -1 -21 -8 -14 -11 -14 -10 -2 5 7 10 17 16 21 13 5
-3 11 -1 15 5 3 5 9 10 12 10 3 0 0 -7 -7 -15z m-2024 -23 c-17 -16 -18 -16
-5 5 7 12 15 20 18 17 3 -2 -3 -12 -13 -22z m240 0 c-17 -16 -18 -16 -5 5 7
12 15 20 18 17 3 -2 -3 -12 -13 -22z m108 12 c3 -8 2 -12 -4 -9 -6 3 -10 10
-10 16 0 14 7 11 14 -7z m197 -7 c-10 -9 -11 -8 -5 6 3 10 9 15 12 12 3 -3 0
-11 -7 -18z m523 7 c3 -8 2 -12 -4 -9 -6 3 -10 10 -10 16 0 14 7 11 14 -7z
m56 12 c0 -2 -8 -10 -17 -17 -16 -13 -17 -12 -4 4 13 16 21 21 21 13z m90 -21
c14 -19 14 -19 -2 -6 -10 7 -18 18 -18 24 0 6 1 8 3 6 1 -2 9 -13 17 -24z
m494 9 c3 -8 2 -12 -4 -9 -6 3 -10 10 -10 16 0 14 7 11 14 -7z m105 13 c-2 -1
-13 -9 -24 -17 -19 -14 -19 -14 -6 3 7 9 18 17 24 17 6 0 8 -1 6 -3z m-1358
-24 c13 -16 12 -17 -3 -4 -10 7 -18 15 -18 17 0 8 8 3 21 -13z m159 13 c0 -2
-8 -10 -17 -17 -16 -13 -17 -12 -4 4 13 16 21 21 21 13z m401 -13 c13 -16 12
-17 -3 -4 -10 7 -18 15 -18 17 0 8 8 3 21 -13z m559 13 c0 -2 -8 -10 -17 -17
-16 -13 -17 -12 -4 4 13 16 21 21 21 13z m81 -13 c13 -16 12 -17 -3 -4 -17 13
-22 21 -14 21 2 0 10 -8 17 -17z m-1549 -18 c3 3 13 -5 24 -17 19 -23 19 -23
-2 -5 -11 9 -23 15 -26 12 -3 -3 -13 5 -24 17 -19 23 -19 23 2 5 11 -9 23 -15
26 -12z m227 -9 c-3 -3 -11 5 -18 17 -13 21 -12 21 5 5 10 -10 16 -20 13 -22z
m811 30 c0 -2 -8 -10 -17 -17 -16 -13 -17 -12 -4 4 13 16 21 21 21 13z m225
-16 c-10 -11 -20 -18 -23 -15 -3 3 -15 -3 -26 -12 -21 -18 -21 -18 -2 4 10 13
22 20 26 18 4 -3 13 2 20 10 7 8 15 15 18 15 3 0 -3 -9 -13 -20z m440 0 c-10
-11 -20 -18 -23 -15 -3 3 -15 -3 -26 -12 -15 -14 -18 -14 -8 -2 6 9 9 19 6 22
-4 4 3 5 14 2 11 -2 26 3 33 11 6 8 14 14 17 14 3 0 -3 -9 -13 -20z m-1849
-12 c12 -14 13 -18 3 -10 -9 6 -18 10 -21 7 -2 -3 -5 2 -5 10 0 19 0 19 23 -7z
m74 18 c0 -2 -8 -10 -17 -17 -16 -13 -17 -12 -4 4 13 16 21 21 21 13z m180 1
c0 -2 -8 -11 -18 -20 -15 -14 -19 -15 -19 -2 0 8 4 12 8 9 4 -2 10 0 14 6 6
10 15 14 15 7z m226 -19 c12 -14 13 -18 3 -10 -9 6 -18 10 -21 7 -2 -3 -5 2
-5 10 0 19 0 19 23 -7z m74 18 c0 -2 -8 -10 -17 -17 -16 -13 -17 -12 -4 4 13
16 21 21 21 13z m117 -9 c0 -7 -9 -14 -20 -14 -19 -2 -19 -2 -1 12 11 8 19 15
20 15 0 0 1 -6 1 -13z m49 -9 c12 -14 13 -18 3 -10 -9 6 -18 10 -21 7 -2 -3
-5 2 -5 10 0 19 0 19 23 -7z m141 4 c-10 -10 -15 -21 -12 -24 3 -2 -2 -5 -10
-5 -10 0 -12 4 -5 12 5 7 6 16 2 20 -4 5 -2 5 5 1 6 -3 14 -2 18 4 3 5 9 10
12 10 3 0 -1 -8 -10 -18z m179 -4 c12 -14 13 -18 3 -10 -9 6 -18 10 -21 7 -2
-3 -5 2 -5 10 0 19 0 19 23 -7z m266 7 c2 3 5 -2 5 -10 0 -19 0 -19 -23 7 -12
14 -13 18 -3 10 9 -6 18 -10 21 -7z m184 3 c5 4 6 3 2 -2 -4 -5 -3 -14 2 -21
7 -8 5 -12 -5 -12 -8 0 -13 3 -10 5 3 3 -3 15 -12 26 -14 15 -14 18 -2 8 9 -6
20 -8 25 -4z m65 -5 c13 -16 12 -17 -3 -4 -17 13 -22 21 -14 21 2 0 10 -8 17
-17z m76 2 c0 -8 -3 -13 -5 -10 -3 3 -12 -1 -21 -7 -10 -8 -9 -4 3 10 23 26
23 26 23 7z m49 -7 c12 -14 13 -18 3 -10 -9 6 -18 10 -21 7 -2 -3 -5 2 -5 10
0 19 0 19 23 -7z m254 19 c0 -2 -8 -11 -18 -20 -15 -14 -19 -15 -19 -2 0 8 4
12 8 9 4 -2 10 0 14 6 6 10 15 14 15 7z m60 -1 c0 -2 -8 -10 -17 -17 -16 -13
-17 -12 -4 4 13 16 21 21 21 13z m-1889 -23 c13 -16 12 -17 -3 -4 -10 7 -18
15 -18 17 0 8 8 3 21 -13z m470 4 c-6 -8 -9 -16 -6 -19 3 -2 -2 -5 -10 -5 -13
0 -13 3 2 19 19 21 31 25 14 5z m240 0 c-6 -8 -9 -16 -6 -19 3 -2 -2 -5 -10
-5 -13 0 -13 3 2 19 19 21 31 25 14 5z m80 0 c-6 -8 -9 -16 -6 -19 3 -2 -2 -5
-10 -5 -13 0 -13 3 2 19 19 21 31 25 14 5z m77 -11 c16 -20 16 -20 -2 -6 -10
8 -25 15 -33 16 -24 4 -27 13 -4 11 12 -1 30 -10 39 -21z m163 11 c-6 -8 -9
-16 -6 -19 3 -2 -2 -5 -10 -5 -13 0 -13 3 2 19 19 21 31 25 14 5z m69 9 c0 -2
-8 -10 -17 -17 -16 -13 -17 -12 -4 4 13 16 21 21 21 13z m248 -17 c9 -12 9
-16 -1 -16 -7 0 -14 9 -14 20 -1 11 -1 18 0 16 2 -2 8 -11 15 -20z m75 3 c15
-16 15 -19 2 -19 -8 0 -13 3 -10 5 3 3 0 11 -6 19 -17 20 -5 16 14 -5z m248 5
c-6 -8 -9 -16 -6 -19 3 -2 -2 -5 -10 -5 -13 0 -13 3 2 19 19 21 31 25 14 5z
m240 0 c-6 -8 -9 -16 -6 -19 3 -2 -2 -5 -10 -5 -13 0 -13 3 2 19 19 21 31 25
14 5z m77 -11 c16 -20 16 -20 -2 -6 -10 8 -25 15 -33 16 -24 4 -27 13 -4 11
12 -1 30 -10 39 -21z m39 -16 c2 -11 -1 -20 -5 -20 -4 0 -8 11 -8 25 0 28 8
24 13 -5z m-2082 2 c-3 -3 -11 0 -18 7 -9 10 -8 11 6 5 10 -3 15 -9 12 -12z
m206 5 c-6 -8 -9 -17 -6 -20 3 -4 2 -5 -2 -2 -3 3 -11 0 -18 -5 -8 -7 -12 -5
-12 5 0 8 4 12 8 10 3 -3 12 2 19 10 7 8 15 15 17 15 3 0 0 -6 -6 -13z m274
-5 c-3 -3 -11 0 -18 7 -9 10 -8 11 6 5 10 -3 15 -9 12 -12z m240 0 c-3 -3 -11
0 -18 7 -9 10 -8 11 6 5 10 -3 15 -9 12 -12z m320 0 c-3 -3 -11 0 -18 7 -9 10
-8 11 6 5 10 -3 15 -9 12 -12z m217 -7 c2 3 5 -2 5 -10 0 -10 -4 -12 -12 -5
-7 5 -16 6 -21 2 -5 -4 -6 -3 -2 2 4 5 2 16 -4 25 -10 12 -7 12 8 -2 11 -9 23
-15 26 -12z m273 15 c-3 -5 -12 -10 -18 -10 -7 0 -6 4 3 10 19 12 23 12 15 0z
m150 -8 c-3 -3 -11 0 -18 7 -9 10 -8 11 6 5 10 -3 15 -9 12 -12z m240 0 c-3
-3 -11 0 -18 7 -9 10 -8 11 6 5 10 -3 15 -9 12 -12z m-2028 -10 c-10 -10 -15
-21 -12 -24 3 -3 -5 -13 -17 -24 -23 -19 -23 -19 -7 1 9 11 15 28 14 38 -2 9
1 15 5 12 5 -3 11 -1 15 5 3 5 9 10 12 10 3 0 -1 -8 -10 -18z m213 -3 c0 -5
-4 -9 -8 -9 -5 0 -9 7 -9 15 0 8 4 12 9 9 4 -3 8 -9 8 -15z m475 12 c3 -5 2
-12 -3 -15 -5 -3 -9 1 -9 9 0 17 3 19 12 6z m42 -6 c0 -8 -3 -13 -5 -10 -3 3
-15 -3 -26 -12 -15 -13 -14 -10 3 10 29 32 28 31 28 12z m59 3 c5 4 6 3 2 -2
-4 -5 -2 -16 4 -25 10 -12 7 -12 -8 2 -11 9 -23 15 -26 12 -2 -3 -5 2 -5 10 0
10 4 12 12 5 7 -5 16 -6 21 -2z m220 -14 c1 -9 0 -13 -4 -10 -3 4 -7 14 -8 22
-1 9 0 13 4 10 3 -4 7 -14 8 -22z m100 14 c5 4 6 3 2 -2 -4 -5 -2 -16 4 -25
10 -12 7 -12 -8 2 -11 9 -23 15 -26 12 -2 -3 -5 2 -5 10 0 10 4 12 12 5 7 -5
16 -6 21 -2z m340 -3 c-1 -8 -5 -17 -8 -21 -5 -4 -4 16 1 34 3 9 9 -1 7 -13z
m241 0 c0 -8 -3 -13 -5 -10 -3 3 -15 -3 -26 -12 -15 -14 -18 -14 -8 -2 6 9 8
20 4 24 -4 5 -2 5 5 1 6 -3 14 -2 18 4 9 14 12 13 12 -5z m59 3 c5 4 6 3 2 -2
-4 -5 -2 -16 4 -25 10 -12 7 -12 -8 2 -11 9 -23 15 -26 12 -2 -3 -5 2 -5 10 0
10 4 12 12 5 7 -5 16 -6 21 -2z m380 -14 c1 -9 0 -13 -4 -10 -3 4 -7 14 -8 22
-1 9 0 13 4 10 3 -4 7 -14 8 -22z m-162 0 c3 -8 2 -12 -4 -9 -6 3 -10 10 -10
16 0 14 7 11 14 -7z m-1497 -9 c0 -8 -10 -23 -21 -32 -21 -18 -21 -18 -2 5 11
12 16 22 12 22 -4 0 -4 5 -1 10 9 14 12 13 12 -5z m359 -11 c1 -9 0 -13 -4
-10 -3 4 -7 14 -8 22 -1 9 0 13 4 10 3 -4 7 -14 8 -22z m-586 13 c0 -2 -10
-12 -22 -23 l-23 -19 19 23 c18 21 26 27 26 19z m110 -1 c0 -2 -7 -7 -16 -10
-8 -3 -12 -2 -9 4 6 10 25 14 25 6z m35 -4 c-3 -3 0 -11 6 -19 17 -20 5 -16
-14 5 -15 16 -15 19 -2 19 8 0 13 -3 10 -5z m45 -6 c-7 -7 -13 -7 -20 0 -6 6
-3 10 10 10 13 0 16 -4 10 -10z m85 5 c-9 -8 -36 -10 -30 -2 2 4 11 8 20 8 8
0 13 -3 10 -6z m352 -8 c0 -9 -4 -10 -14 -2 -7 6 -13 12 -13 14 0 1 6 2 13 2
8 0 14 -6 14 -14z m40 0 c0 -9 -4 -10 -14 -2 -7 6 -13 12 -13 14 0 1 6 2 13 2
8 0 14 -6 14 -14z m40 0 c0 -9 -4 -10 -14 -2 -7 6 -13 12 -13 14 0 1 6 2 13 2
8 0 14 -6 14 -14z m34 0 c13 -16 12 -17 -3 -4 -17 13 -22 21 -14 21 2 0 10 -8
17 -17z m299 12 c0 -1 -10 -10 -22 -21 -14 -12 -18 -13 -10 -3 6 9 10 18 7 21
-3 2 2 5 10 5 8 0 15 -1 15 -2z m35 -5 c3 -6 -1 -7 -9 -4 -18 7 -21 14 -7 14
6 0 13 -4 16 -10z m-1224 -17 c13 -16 12 -17 -3 -4 -10 7 -18 15 -18 17 0 8 8
3 21 -13z m66 -1 c-10 -10 -14 -22 -10 -27 5 -4 2 -5 -5 -1 -11 6 -10 12 4 27
9 10 19 19 22 19 3 0 -2 -8 -11 -18z m153 15 c0 -2 -8 -11 -18 -20 -15 -14
-19 -15 -19 -2 0 8 4 12 8 9 4 -2 10 0 14 6 6 10 15 14 15 7z m261 -14 c13
-16 12 -17 -3 -4 -10 7 -18 15 -18 17 0 8 8 3 21 -13z m63 -4 c-10 -12 -18
-24 -17 -28 1 -3 0 -8 -2 -9 -2 -2 -3 3 -1 11 2 16 25 47 34 47 3 0 -3 -9 -14
-21z m731 9 c5 4 5 1 1 -6 -6 -10 -11 -10 -22 -1 -8 6 -14 14 -14 16 0 3 6 0
13 -6 8 -6 18 -7 22 -3z m142 -39 c2 -23 -7 -20 -11 4 -1 8 -8 23 -16 33 -14
18 -14 18 6 2 11 -9 20 -27 21 -39z m80 6 c0 -8 -4 -12 -9 -9 -5 4 -7 9 -4 12
3 3 -2 15 -11 26 -18 21 -18 21 3 3 11 -9 21 -24 21 -32z m100 30 c0 -8 -3
-13 -5 -10 -3 3 -12 -1 -21 -7 -10 -8 -9 -4 3 10 23 26 23 26 23 7z m57 -14
c-2 -3 -12 3 -22 13 -16 17 -16 18 5 5 12 -7 20 -15 17 -18z m90 8 c-10 -12
-18 -24 -17 -28 1 -3 0 -8 -2 -9 -2 -2 -3 3 -1 11 2 16 25 47 34 47 3 0 -3 -9
-14 -21z m112 9 c5 4 6 3 2 -2 -4 -5 -3 -14 2 -21 7 -8 5 -12 -5 -12 -8 0 -13
3 -10 5 3 3 -3 15 -12 26 -14 15 -14 18 -2 8 9 -6 20 -8 25 -4z m65 -5 c13
-16 12 -17 -3 -4 -17 13 -22 21 -14 21 2 0 10 -8 17 -17z m63 -4 c-10 -12 -18
-24 -17 -28 1 -3 0 -8 -2 -9 -2 -2 -3 3 -1 11 2 16 25 47 34 47 3 0 -3 -9 -14
-21z m-2011 -7 c15 -16 15 -19 2 -19 -8 0 -13 3 -10 5 3 3 0 11 -6 19 -17 20
-5 16 14 -5z m113 -10 c-17 -16 -18 -16 -5 5 7 12 15 20 18 17 3 -2 -3 -12
-13 -22z m185 11 c13 -16 12 -17 -3 -4 -10 7 -18 15 -18 17 0 8 8 3 21 -13z
m179 13 c0 -2 -8 -10 -17 -17 -16 -13 -17 -12 -4 4 13 16 21 21 21 13z m760 0
c0 -2 -8 -10 -17 -17 -16 -13 -17 -12 -4 4 13 16 21 21 21 13z m170 -21 c14
-19 14 -19 -2 -6 -10 7 -18 18 -18 24 0 6 1 8 3 6 1 -2 9 -13 17 -24z m430 21
c0 -2 -8 -10 -17 -17 -16 -13 -17 -12 -4 4 13 16 21 21 21 13z m83 -14 c15
-16 15 -19 2 -19 -8 0 -13 3 -10 5 3 3 0 11 -6 19 -17 20 -5 16 14 -5z m113
-10 c-17 -16 -18 -16 -5 5 7 12 15 20 18 17 3 -2 -3 -12 -13 -22z m49 8 c10
-11 16 -20 13 -20 -3 0 -13 9 -23 20 -10 11 -16 20 -13 20 3 0 13 -9 23 -20z
m125 -5 c14 -19 14 -19 -2 -6 -10 7 -18 18 -18 24 0 6 1 8 3 6 1 -2 9 -13 17
-24z m-1929 -12 c13 -16 12 -17 -3 -4 -10 7 -18 15 -18 17 0 8 8 3 21 -13z
m254 7 c-3 -5 -12 -10 -18 -10 -7 0 -6 4 3 10 19 12 23 12 15 0z m716 -3 c-6
-8 -8 -16 -5 -20 3 -3 -2 -4 -13 -2 -10 1 -27 -5 -38 -14 -20 -16 -20 -16 -1
6 10 13 22 20 26 18 4 -3 13 2 20 10 7 8 15 15 17 15 3 0 0 -6 -6 -13z m245 1
c3 -4 -1 -5 -10 -4 -8 1 -18 5 -22 8 -3 4 1 5 10 4 8 -1 18 -5 22 -8z m479 2
c-3 -5 -12 -10 -18 -10 -7 0 -6 4 3 10 19 12 23 12 15 0z m275 -22 c0 -19 -16
-5 -17 14 -2 18 0 20 7 8 5 -8 10 -18 10 -22z m-2188 7 c2 3 5 -2 5 -10 0 -19
0 -19 -23 7 -12 14 -13 18 -3 10 9 -6 18 -10 21 -7z m355 0 c35 0 60 -1 57 -4
-3 -3 -36 -6 -73 -6 -49 -1 -68 2 -68 12 0 8 5 9 11 4 6 -4 39 -7 73 -6z m773
11 c0 -2 -8 -10 -17 -17 -16 -13 -17 -12 -4 4 13 16 21 21 21 13z m116 -11
c-1 -8 -5 -17 -8 -21 -5 -4 -4 16 1 34 3 9 9 -1 7 -13z m80 -11 c1 -9 0 -13
-4 -10 -3 4 -7 14 -8 22 -1 9 0 13 4 10 3 -4 7 -14 8 -22z m321 11 c0 -8 -3
-13 -5 -10 -3 3 -12 -1 -21 -7 -10 -8 -9 -4 3 10 23 26 23 26 23 7z m479 -11
c1 -9 0 -13 -4 -10 -3 4 -7 14 -8 22 -1 9 0 13 4 10 3 -4 7 -14 8 -22z m-2222
5 c3 -3 -11 -5 -32 -4 -21 1 -46 -5 -57 -14 -19 -16 -20 -15 -3 5 17 19 77 28
92 13z m256 5 c0 -8 -19 -13 -24 -6 -3 5 1 9 9 9 8 0 15 -2 15 -3z m1390 -19
c14 -19 14 -19 -2 -6 -10 7 -18 18 -18 24 0 6 1 8 3 6 1 -2 9 -13 17 -24z
m234 14 c3 -3 -5 -5 -19 -5 -13 0 -22 3 -19 7 4 8 30 6 38 -2z m231 1 c3 -6
-1 -7 -9 -4 -18 7 -21 14 -7 14 6 0 13 -4 16 -10z m-2228 -15 c0 -8 -4 -12 -9
-9 -5 3 -6 10 -3 15 9 13 12 11 12 -6z m284 -2 c13 -16 12 -17 -3 -4 -10 7
-18 15 -18 17 0 8 8 3 21 -13z m1518 4 c8 -10 7 -14 -2 -14 -8 0 -14 6 -14 14
0 7 1 13 2 13 2 0 8 -6 14 -13z m402 -4 c13 -16 12 -17 -3 -4 -17 13 -22 21
-14 21 2 0 10 -8 17 -17z m-1766 -13 c-10 -11 -20 -18 -23 -15 -3 3 -15 -3
-26 -12 -21 -18 -21 -18 -2 4 10 13 22 20 26 18 4 -3 13 2 20 10 7 8 15 15 18
15 3 0 -3 -9 -13 -20z m1897 -4 c3 3 8 1 12 -4 11 -18 -25 -8 -41 12 -18 21
-18 21 3 3 11 -9 23 -14 26 -11z m-2243 -2 c-7 -9 -14 -23 -15 -31 -2 -8 -5
-18 -8 -21 -4 -3 -5 4 -3 15 3 20 24 53 34 53 3 0 -1 -7 -8 -16z m172 -1 c13
-16 12 -17 -3 -4 -17 13 -22 21 -14 21 2 0 10 -8 17 -17z m71 2 c2 3 5 -2 5
-10 0 -19 0 -19 -23 7 -12 14 -13 18 -3 10 9 -6 18 -10 21 -7z m169 -2 c13
-16 12 -17 -3 -4 -17 13 -22 21 -14 21 2 0 10 -8 17 -17z m66 -1 c-10 -10 -15
-21 -12 -24 3 -3 -5 -13 -17 -24 l-23 -19 19 23 c11 12 15 22 11 22 -4 0 0 9
10 20 10 11 20 20 23 20 3 0 -2 -8 -11 -18z m810 5 c0 -7 -9 -14 -20 -14 -19
-2 -19 -2 -1 12 11 8 19 15 20 15 0 0 1 -6 1 -13z m369 -9 c12 -14 13 -18 3
-10 -9 6 -18 10 -21 7 -2 -3 -5 2 -5 10 0 19 0 19 23 -7z m111 7 c0 -8 -3 -13
-5 -10 -3 3 -12 -1 -21 -7 -10 -8 -9 -4 3 10 23 26 23 26 23 7z m150 -3 c-10
-10 -15 -21 -12 -24 3 -3 -5 -13 -17 -24 l-23 -19 19 23 c11 12 15 22 11 22
-4 0 0 9 10 20 10 11 20 20 23 20 3 0 -2 -8 -11 -18z m68 -20 c-3 -3 3 -15 12
-26 18 -21 18 -21 -5 -2 -12 11 -20 21 -17 24 3 3 -3 15 -12 26 -18 21 -18 21
5 2 12 -11 20 -21 17 -24z m122 -7 c0 -8 -4 -12 -9 -9 -5 4 -7 9 -4 12 3 3 -2
15 -11 26 -18 21 -18 21 3 3 11 -9 21 -24 21 -32z m55 30 c2 3 5 -2 5 -10 0
-19 0 -19 -23 7 -12 14 -13 18 -3 10 9 -6 18 -10 21 -7z m-2281 -18 c-10 -9
-11 -8 -5 6 3 10 9 15 12 12 3 -3 0 -11 -7 -18z m262 5 c15 -16 15 -19 2 -19
-8 0 -13 3 -10 5 3 3 0 11 -6 19 -17 20 -5 16 14 -5z m237 14 c0 -2 -8 -10
-17 -17 -16 -13 -17 -12 -4 4 13 16 21 21 21 13z m807 -11 c0 -8 -4 -12 -9 -9
-5 3 -6 10 -3 15 9 13 12 11 12 -6z m189 8 c-2 -3 -6 -3 -9 -1 -3 2 -15 -6
-28 -17 l-24 -20 18 21 c9 11 24 21 32 21 8 0 13 -2 11 -4z m71 -10 c0 -10 -4
-10 -16 -1 -9 7 -18 13 -20 15 -2 1 5 1 16 0 11 0 20 -7 20 -14z m62 14 c-2
-2 -11 -8 -20 -15 -12 -9 -16 -9 -16 1 0 7 9 14 20 14 11 1 18 1 16 0z m32
-20 c-10 -9 -11 -8 -5 6 3 10 9 15 12 12 3 -3 0 -11 -7 -18z m519 19 c0 -2 -8
-10 -17 -17 -16 -13 -17 -12 -4 4 13 16 21 21 21 13z m-1514 -30 c0 -14 -3
-23 -7 -20 -6 3 -6 22 0 42 3 10 7 -2 7 -22z m-511 5 c-9 -8 -36 -10 -30 -2 2
4 11 8 20 8 8 0 13 -3 10 -6z m79 1 c3 -5 -1 -9 -9 -9 -8 0 -15 4 -15 9 0 4 4
8 9 8 6 0 12 -4 15 -8z m81 -2 c-3 -5 -12 -10 -18 -10 -7 0 -6 4 3 10 19 12
23 12 15 0z m240 0 c-3 -5 -12 -10 -18 -10 -7 0 -6 4 3 10 19 12 23 12 15 0z
m80 1 c-9 -8 -36 -10 -30 -2 2 4 11 8 20 8 8 0 13 -3 10 -6z m927 -15 c3 3 8
1 12 -4 11 -18 -25 -8 -41 12 -18 21 -18 21 3 3 11 -9 23 -14 26 -11z m78 21
c0 -2 -9 -12 -19 -21 -14 -13 -21 -14 -27 -5 -4 7 -3 10 3 6 6 -4 16 0 23 8
12 14 20 19 20 12z m190 -11 c-7 -7 -13 -7 -20 0 -6 6 -3 10 10 10 13 0 16 -4
10 -10z m240 6 c0 -5 -7 -9 -15 -9 -8 0 -12 4 -9 9 3 4 9 8 15 8 5 0 9 -4 9
-8z m212 -17 c2 3 5 -2 5 -10 0 -10 -4 -12 -12 -5 -7 5 -16 6 -21 2 -5 -4 -6
-3 -2 2 4 5 2 16 -4 25 -10 12 -7 12 8 -2 11 -9 23 -15 26 -12z m179 2 c-10
-9 -11 -8 -5 6 3 10 9 15 12 12 3 -3 0 -11 -7 -18z m-2015 -2 c-1 -8 -5 -17
-8 -21 -5 -4 -4 16 1 34 3 9 9 -1 7 -13z m939 -23 c-3 -3 3 -15 12 -26 18 -21
18 -21 -5 -2 -12 11 -20 21 -17 24 3 3 -3 15 -12 26 -18 21 -18 21 5 2 12 -11
20 -21 17 -24z m95 23 c-7 -8 -17 -15 -23 -15 -6 0 -2 7 9 15 25 19 30 19 14
0z m886 -11 c1 -9 0 -13 -4 -10 -3 4 -7 14 -8 22 -1 9 0 13 4 10 3 -4 7 -14 8
-22z m-2165 -1 c13 -17 13 -17 -6 -3 -11 8 -22 16 -24 17 -2 2 0 3 6 3 6 0 17
-8 24 -17z m161 6 c2 -2 1 -3 -1 -1 -2 1 -14 -6 -25 -15 -15 -14 -18 -14 -8
-2 6 9 9 18 6 22 -3 3 1 4 10 3 8 -1 17 -4 18 -7z m1159 -6 c13 -16 12 -17 -3
-4 -17 13 -22 21 -14 21 2 0 10 -8 17 -17z m139 13 c0 -2 -8 -10 -17 -17 -16
-13 -17 -12 -4 4 13 16 21 21 21 13z m-1353 -21 c0 -8 -10 -23 -21 -32 -21
-18 -21 -18 -2 5 11 12 16 22 12 22 -4 0 -4 5 -1 10 9 14 12 13 12 -5z m1044
-2 c13 -16 12 -17 -3 -4 -17 13 -22 21 -14 21 2 0 10 -8 17 -17z m356 2 c0 -8
-10 -23 -21 -32 -21 -18 -21 -18 -2 5 11 12 16 22 12 22 -4 0 -4 5 -1 10 9 14
12 13 12 -5z m235 -2 c-1 -4 7 -17 16 -28 17 -20 17 -20 -4 -2 -11 9 -21 24
-21 32 0 8 2 13 5 11 2 -2 4 -8 4 -13z m-1917 -1 c-3 -3 0 -11 6 -19 17 -20 5
-16 -14 5 -15 16 -15 19 -2 19 8 0 13 -3 10 -5z m51 -4 c3 -4 -1 -5 -10 -4 -8
1 -18 5 -22 8 -3 4 1 5 10 4 8 -1 18 -5 22 -8z m126 -13 c3 3 13 -5 24 -17 19
-23 19 -23 -2 -5 -11 9 -23 15 -26 12 -3 -3 -13 5 -24 17 -19 23 -19 23 2 5
11 -9 23 -15 26 -12z m1234 13 c3 -4 -1 -5 -10 -4 -8 1 -18 5 -22 8 -3 4 1 5
10 4 8 -1 18 -5 22 -8z m244 8 c0 -2 -8 -10 -17 -17 -16 -13 -17 -12 -4 4 13
16 21 21 21 13z m75 -5 c-9 -8 -36 -10 -30 -2 2 4 11 8 20 8 8 0 13 -3 10 -6z
m285 5 c0 -2 -8 -10 -17 -17 -16 -13 -17 -12 -4 4 13 16 21 21 21 13z m61 -13
c13 -16 12 -17 -3 -4 -17 13 -22 21 -14 21 2 0 10 -8 17 -17z m99 12 c0 -1
-10 -10 -22 -21 -14 -12 -18 -13 -10 -3 6 9 10 18 7 21 -3 2 2 5 10 5 8 0 15
-1 15 -2z m35 -5 c3 -6 -1 -7 -9 -4 -18 7 -21 14 -7 14 6 0 13 -4 16 -10z
m106 -7 c13 -16 12 -17 -3 -4 -17 13 -22 21 -14 21 2 0 10 -8 17 -17z m99 12
c0 -1 -10 -10 -22 -21 -14 -12 -18 -13 -10 -3 6 9 10 18 7 21 -3 2 2 5 10 5 8
0 15 -1 15 -2z m-2318 -20 c2 3 5 -2 5 -10 0 -19 0 -19 -23 7 -12 14 -13 18
-3 10 9 -6 18 -10 21 -7z m129 -2 c13 -16 12 -17 -3 -4 -10 7 -18 15 -18 17 0
8 8 3 21 -13z m116 2 c0 -8 -3 -13 -5 -10 -3 3 -12 -1 -21 -7 -10 -8 -9 -4 3
10 23 26 23 26 23 7z m140 -34 c1 -11 -6 -26 -15 -33 -15 -11 -15 -11 -5 2 14
19 12 42 -7 66 -14 18 -14 18 6 2 11 -9 20 -26 21 -37z m759 37 c5 4 6 3 2 -2
-4 -5 -3 -14 2 -21 7 -8 5 -12 -5 -12 -8 0 -13 3 -10 5 3 3 -3 15 -12 26 -14
15 -14 18 -2 8 9 -6 20 -8 25 -4z m65 -5 c13 -16 12 -17 -3 -4 -17 13 -22 21
-14 21 2 0 10 -8 17 -17z m267 8 c16 12 16 12 0 -6 -18 -19 -18 -19 -35 0 -17
18 -17 18 0 6 14 -11 20 -11 35 0z m240 0 c16 12 16 12 0 -6 -18 -19 -18 -19
-35 0 -17 18 -17 18 0 6 14 -11 20 -11 35 0z m-1853 -10 c3 -5 2 -12 -3 -15
-5 -3 -9 1 -9 9 0 17 3 19 12 6z m485 -16 c14 -19 14 -19 -2 -6 -10 7 -18 18
-18 24 0 6 1 8 3 6 1 -2 9 -13 17 -24z m134 13 c-3 -4 -11 -5 -19 -1 -21 7
-19 12 4 10 11 0 18 -5 15 -9z m601 3 c3 -5 2 -12 -3 -15 -5 -3 -9 1 -9 9 0
17 3 19 12 6z m98 -9 c15 -16 15 -19 2 -19 -8 0 -13 3 -10 5 3 3 0 11 -6 19
-17 20 -5 16 14 -5z m240 0 c15 -16 15 -19 2 -19 -8 0 -13 3 -10 5 3 3 0 11
-6 19 -17 20 -5 16 14 -5z m88 5 c-6 -8 -9 -16 -6 -19 3 -2 -2 -5 -10 -5 -13
0 -13 3 2 19 19 21 31 25 14 5z m157 -8 c9 -12 9 -16 -1 -16 -7 0 -14 9 -14
20 -1 11 -1 18 0 16 2 -2 8 -11 15 -20z m83 8 c-6 -8 -9 -16 -6 -19 3 -2 -2
-5 -10 -5 -13 0 -13 3 2 19 19 21 31 25 14 5z m349 9 c0 -2 -8 -10 -17 -17
-16 -13 -17 -12 -4 4 13 16 21 21 21 13z m66 -8 c4 -7 4 -10 -1 -6 -4 4 -15 2
-24 -5 -14 -11 -14 -10 -2 6 16 20 18 21 27 5z m174 8 c0 -2 -8 -10 -17 -17
-16 -13 -17 -12 -4 4 13 16 21 21 21 13z m-2500 -21 c0 -2 -6 -8 -13 -14 -10
-8 -14 -7 -14 2 0 8 6 14 14 14 7 0 13 -1 13 -2z m149 -29 c-3 -3 -11 5 -18
17 -13 21 -12 21 5 5 10 -10 16 -20 13 -22z m199 14 c-7 -10 -14 -17 -17 -15
-4 4 18 35 25 35 2 0 -1 -9 -8 -20z m1723 -7 c13 -15 17 -22 8 -15 -9 6 -20 8
-25 4 -5 -4 -6 -3 -2 2 4 5 3 15 -3 23 -21 25 -3 13 22 -14z m209 23 c0 -2 -8
-10 -17 -17 -16 -13 -17 -12 -4 4 13 16 21 21 21 13z m120 0 c0 -2 -8 -10 -17
-17 -16 -13 -17 -12 -4 4 13 16 21 21 21 13z m110 -11 c-10 -12 -10 -18 1 -32
12 -17 12 -17 -6 -1 -15 14 -16 20 -5 32 7 9 15 16 17 16 3 0 0 -7 -7 -15z
m-2470 -10 c-7 -9 -15 -13 -18 -10 -3 3 -12 -1 -21 -8 -14 -11 -14 -10 -2 5 7
10 17 16 21 13 5 -3 11 -1 15 5 3 5 9 10 12 10 3 0 0 -7 -7 -15z m48 -10 c-3
-3 -9 2 -12 12 -6 14 -5 15 5 6 7 -7 10 -15 7 -18z m396 -5 c-6 -6 -10 -3 -10
10 0 13 4 16 10 10 7 -7 7 -13 0 -20z m948 15 c21 1 35 -1 32 -4 -12 -12 -91
-7 -91 6 0 7 5 9 11 5 6 -5 28 -8 48 -7z m-1256 -23 c-17 -16 -18 -16 -5 5 7
12 15 20 18 17 3 -2 -3 -12 -13 -22z m214 3 c14 -19 14 -19 -2 -6 -10 7 -18
18 -18 24 0 6 1 8 3 6 1 -2 9 -13 17 -24z m51 8 c12 -16 12 -17 -2 -6 -9 7
-20 9 -24 5 -5 -4 -5 -1 -1 6 9 16 11 15 27 -5z m193 5 c-4 -5 -9 -7 -12 -4
-3 3 -12 0 -21 -7 -14 -10 -14 -10 -4 4 13 16 46 23 37 7z m630 1 c3 -3 -5 -5
-19 -5 -13 0 -22 3 -19 7 4 8 30 6 38 -2z m761 2 c-3 -2 1 -11 7 -20 12 -15
11 -15 -7 0 -11 9 -33 15 -48 14 -15 -1 -29 1 -32 4 -2 4 16 7 40 7 24 0 42
-2 40 -5z m270 -1 c-3 -5 -12 -10 -18 -10 -7 0 -6 4 3 10 19 12 23 12 15 0z
m58 -2 c-5 -7 -9 -30 -8 -51 1 -21 -1 -40 -5 -42 -3 -2 -6 15 -5 38 0 40 9 67
22 67 3 0 1 -6 -4 -12z m67 8 c0 -2 -8 -10 -17 -17 -16 -13 -17 -12 -4 4 13
16 21 21 21 13z m147 -11 c0 -8 -4 -12 -9 -9 -5 3 -6 10 -3 15 9 13 12 11 12
-6z m-2497 1 c0 -2 -8 -10 -17 -17 -16 -13 -17 -12 -4 4 13 16 21 21 21 13z
m2152 -13 c-1 -4 7 -17 16 -28 17 -20 17 -20 -4 -2 -11 9 -21 24 -21 32 0 8 2
13 5 11 2 -2 4 -8 4 -13z m-1940 -18 c3 3 13 -5 24 -17 19 -23 19 -23 -2 -5
-11 9 -23 15 -26 12 -3 -3 -13 5 -24 17 -19 23 -19 23 2 5 11 -9 23 -15 26
-12z m905 18 c-4 -3 -1 -13 6 -22 11 -14 10 -14 -5 -2 -16 12 -16 31 -1 31 4
0 3 -3 0 -7z m321 -12 c-7 -9 -13 -18 -15 -20 -1 -2 -1 5 0 16 0 11 7 20 14
20 10 0 10 -4 1 -16z m79 -4 c1 -11 1 -18 0 -16 -2 2 -8 11 -15 20 -9 12 -9
16 1 16 7 0 14 -9 14 -20z m173 18 c0 -1 -10 -10 -22 -21 -14 -12 -18 -13 -10
-3 6 9 10 18 7 21 -3 2 2 5 10 5 8 0 15 -1 15 -2z m65 -3 c-3 -3 0 -11 6 -19
17 -20 5 -16 -14 5 -15 16 -15 19 -2 19 8 0 13 -3 10 -5z m316 -9 c13 -16 12
-17 -3 -4 -17 13 -22 21 -14 21 2 0 10 -8 17 -17z m166 -1 c-17 -18 -51 -27
-41 -10 3 5 9 6 14 3 4 -3 13 2 20 10 7 8 15 15 18 15 3 0 -2 -8 -11 -18z
m118 -2 c-10 -11 -20 -18 -23 -15 -3 3 -15 -3 -26 -12 -21 -18 -21 -18 -2 4
10 13 22 20 26 18 4 -3 13 2 20 10 7 8 15 15 18 15 3 0 -3 -9 -13 -20z m-2338
-5 c0 -8 -3 -13 -5 -10 -3 3 -12 -1 -21 -7 -10 -8 -9 -4 3 10 23 26 23 26 23
7z m63 12 c0 -2 -8 -11 -18 -20 -15 -14 -19 -15 -19 -2 0 8 4 12 8 9 4 -2 10
0 14 6 6 10 15 14 15 7z m44 -18 c-10 -12 -18 -24 -17 -28 1 -3 0 -8 -2 -9 -2
-2 -3 3 -1 11 2 16 25 47 34 47 3 0 -3 -9 -14 -21z m182 -1 c12 -14 13 -18 3
-10 -9 6 -18 10 -21 7 -2 -3 -5 2 -5 10 0 19 0 19 23 -7z m191 9 c0 -7 -9 -14
-20 -14 -19 -2 -19 -2 -1 12 11 8 19 15 20 15 0 0 1 -6 1 -13z m778 -25 c-3
-3 3 -15 12 -26 18 -21 18 -21 -5 -2 -12 11 -20 21 -17 24 3 3 -3 15 -12 26
-18 21 -18 21 5 2 12 -11 20 -21 17 -24z m82 -7 c0 -8 -4 -12 -9 -9 -5 4 -7 9
-4 12 3 3 -2 15 -11 26 -18 21 -18 21 3 3 11 -9 21 -24 21 -32z m247 24 c-10
-12 -18 -24 -17 -28 1 -3 0 -8 -2 -9 -2 -2 -3 3 -1 11 2 16 25 47 34 47 3 0
-3 -9 -14 -21z m311 -17 c-3 -3 3 -15 12 -26 18 -21 18 -21 -5 -2 -12 11 -20
21 -17 24 3 3 -3 15 -12 26 -18 21 -18 21 5 2 12 -11 20 -21 17 -24z m97 23
c2 3 5 -2 5 -10 0 -19 0 -19 -23 7 -12 14 -13 18 -3 10 9 -6 18 -10 21 -7z
m423 -23 c-3 -3 3 -15 12 -26 14 -15 14 -18 2 -8 -9 6 -18 9 -22 6 -3 -3 -4 2
-2 13 1 10 -5 27 -14 38 -16 20 -16 20 7 1 12 -11 20 -21 17 -24z m57 23 c2 3
5 -2 5 -10 0 -19 0 -19 -23 7 -12 14 -13 18 -3 10 9 -6 18 -10 21 -7z m-2321
-12 c13 -16 12 -17 -3 -4 -10 7 -18 15 -18 17 0 8 8 3 21 -13z m222 -1 c15
-16 15 -19 2 -19 -8 0 -13 3 -10 5 3 3 0 11 -6 19 -17 20 -5 16 14 -5z m1098
1 c13 -16 12 -17 -3 -4 -15 11 -21 11 -35 0 -16 -13 -17 -12 -4 4 7 9 17 17
21 17 4 0 14 -8 21 -17z m235 5 c4 -7 3 -8 -5 -4 -6 4 -20 2 -29 -6 -15 -12
-16 -11 -3 5 16 20 27 22 37 5z m672 -9 c9 -12 9 -16 -1 -16 -7 0 -14 9 -14
20 -1 11 -1 18 0 16 2 -2 8 -11 15 -20z m-758 7 c0 -2 -8 -10 -17 -17 -16 -13
-17 -12 -4 4 13 16 21 21 21 13z m-1675 -15 c-9 -8 -36 -10 -30 -2 2 4 11 8
20 8 8 0 13 -3 10 -6z m116 -4 c-6 -8 -7 -18 -3 -22 4 -5 1 -5 -6 -1 -10 6
-10 11 -1 22 6 8 14 14 16 14 3 0 0 -6 -6 -13z m285 1 c3 -4 -1 -5 -10 -4 -8
1 -18 5 -22 8 -3 4 1 5 10 4 8 -1 18 -5 22 -8z m880 0 c3 -4 -1 -5 -10 -4 -8
1 -18 5 -22 8 -3 4 1 5 10 4 8 -1 18 -5 22 -8z m80 0 c3 -4 -1 -5 -10 -4 -8 1
-18 5 -22 8 -3 4 1 5 10 4 8 -1 18 -5 22 -8z m80 0 c3 -4 -1 -5 -10 -4 -8 1
-18 5 -22 8 -3 4 1 5 10 4 8 -1 18 -5 22 -8z m480 0 c3 -4 -1 -5 -10 -4 -8 1
-18 5 -22 8 -3 4 1 5 10 4 8 -1 18 -5 22 -8z m69 4 c-3 -3 2 -14 12 -24 24
-27 10 -22 -15 5 -17 18 -19 24 -7 24 8 0 13 -3 10 -5z m36 -9 c13 -16 12 -17
-3 -4 -17 13 -22 21 -14 21 2 0 10 -8 17 -17z m99 14 c0 -2 -10 -12 -22 -23
l-23 -19 19 23 c18 21 26 27 26 19z m381 -14 c13 -16 12 -17 -3 -4 -17 13 -22
21 -14 21 2 0 10 -8 17 -17z m-2237 -22 c-2 -3 -12 3 -22 13 -16 17 -16 18 5
5 12 -7 20 -15 17 -18z m226 8 c0 -5 -4 -9 -8 -9 -5 0 -9 7 -9 15 0 8 4 12 9
9 4 -3 8 -9 8 -15z m633 6 c-3 -9 -8 -14 -10 -11 -3 3 -2 9 2 15 9 16 15 13 8
-4z m48 -2 c13 -16 12 -17 -3 -4 -17 13 -22 21 -14 21 2 0 10 -8 17 -17z m519
13 c0 -2 -8 -10 -17 -17 -16 -13 -17 -12 -4 4 13 16 21 21 21 13z m73 -11 c-3
-9 -8 -14 -10 -11 -3 3 -2 9 2 15 9 16 15 13 8 -4z m48 -2 c13 -16 12 -17 -3
-4 -17 13 -22 21 -14 21 2 0 10 -8 17 -17z m435 2 c-1 -8 -5 -17 -8 -21 -5 -4
-4 16 1 34 3 9 9 -1 7 -13z m120 0 c-1 -8 -5 -17 -8 -21 -5 -4 -4 16 1 34 3 9
9 -1 7 -13z m-2019 -15 c-1 -12 -10 -29 -22 -38 l-20 -17 20 24 c11 13 19 25
18 27 -5 7 -3 24 1 24 3 0 4 -9 3 -20z m753 10 c0 -5 -2 -10 -4 -10 -3 0 -8 5
-11 10 -3 6 -1 10 4 10 6 0 11 -4 11 -10z m129 7 c-2 -1 -13 -9 -24 -17 -19
-14 -19 -14 -6 3 7 9 18 17 24 17 6 0 8 -1 6 -3z m507 -4 c-2 -3 -6 -3 -9 -1
-3 2 -15 -6 -28 -17 l-24 -20 18 21 c9 11 24 21 32 21 8 0 13 -2 11 -4z m133
4 c-2 -1 -13 -9 -24 -17 -19 -14 -19 -14 -6 3 7 9 18 17 24 17 6 0 8 -1 6 -3z
m172 -20 c-10 -9 -11 -8 -5 6 3 10 9 15 12 12 3 -3 0 -11 -7 -18z m108 20 c-2
-1 -13 -9 -24 -17 -19 -14 -19 -14 -6 3 7 9 18 17 24 17 6 0 8 -1 6 -3z m372
-20 c-10 -9 -11 -8 -5 6 3 10 9 15 12 12 3 -3 0 -11 -7 -18z m-2131 9 c0 -2
-8 -10 -17 -17 -16 -13 -17 -12 -4 4 13 16 21 21 21 13z m680 0 c0 -2 -8 -10
-17 -17 -16 -13 -17 -12 -4 4 13 16 21 21 21 13z m81 -13 c13 -16 12 -17 -3
-4 -17 13 -22 21 -14 21 2 0 10 -8 17 -17z m640 0 c13 -16 12 -17 -3 -4 -17
13 -22 21 -14 21 2 0 10 -8 17 -17z m-1757 -1 c2 -4 -4 -8 -14 -8 -10 0 -16 4
-14 8 3 4 9 8 14 8 5 0 11 -4 14 -8z m116 4 c0 -2 -7 -7 -16 -10 -8 -3 -12 -2
-9 4 6 10 25 14 25 6z m35 -4 c-3 -3 0 -11 6 -19 17 -20 5 -16 -14 5 -15 16
-15 19 -2 19 8 0 13 -3 10 -5z m51 -4 c3 -4 -1 -5 -10 -4 -8 1 -18 5 -22 8 -3
4 1 5 10 4 8 -1 18 -5 22 -8z m79 3 c-9 -8 -36 -10 -30 -2 2 4 11 8 20 8 8 0
13 -3 10 -6z m912 -9 c-17 -18 -51 -27 -41 -10 3 5 9 6 14 3 4 -3 13 2 20 10
7 8 15 15 18 15 3 0 -2 -8 -11 -18z m74 1 c13 -16 12 -17 -3 -4 -10 7 -18 15
-18 17 0 8 8 3 21 -13z m213 9 c2 -4 -4 -8 -14 -8 -10 0 -16 4 -14 8 3 4 9 8
14 8 5 0 11 -4 14 -8z m353 -10 c-17 -18 -51 -27 -41 -10 3 5 9 6 14 3 4 -3
13 2 20 10 7 8 15 15 18 15 3 0 -2 -8 -11 -18z m74 1 c13 -16 12 -17 -3 -4
-17 13 -22 21 -14 21 2 0 10 -8 17 -17z m244 9 c-3 -3 0 -11 6 -19 17 -20 5
-16 -14 5 -15 16 -15 19 -2 19 8 0 13 -3 10 -5z m95 4 c0 -2 -8 -10 -17 -17
-16 -13 -17 -12 -4 4 13 16 21 21 21 13z m-2334 -66 c1 -19 -7 -36 -20 -47
-21 -18 -21 -18 -5 2 19 24 19 65 0 91 -14 18 -14 18 4 1 11 -9 20 -31 21 -47z
m150 38 c12 -14 13 -18 3 -10 -9 6 -18 10 -21 7 -2 -3 -5 2 -5 10 0 19 0 19
23 -7z m343 6 c-7 -9 -14 -23 -15 -31 -2 -8 -5 -18 -8 -21 -4 -3 -5 4 -3 15 3
20 24 53 34 53 3 0 -1 -7 -8 -16z m697 -6 c12 -14 13 -18 3 -10 -9 6 -18 10
-21 7 -2 -3 -5 2 -5 10 0 19 0 19 23 -7z m334 19 c0 -2 -8 -11 -18 -20 -15
-14 -19 -15 -19 -2 0 8 4 12 8 9 4 -2 10 0 14 6 6 10 15 14 15 7z m92 -12 c2
3 5 -2 5 -10 0 -19 0 -19 -23 7 -12 14 -13 18 -3 10 9 -6 18 -10 21 -7z m101
0 c-3 -9 -8 -14 -10 -11 -3 3 -2 9 2 15 9 16 15 13 8 -4z m64 2 c0 -7 -9 -14
-20 -14 -19 -2 -19 -2 -1 12 11 8 19 15 20 15 0 0 1 -6 1 -13z m49 -9 c12 -14
13 -18 3 -10 -9 6 -18 10 -21 7 -2 -3 -5 2 -5 10 0 19 0 19 23 -7z m301 4
c-10 -10 -15 -21 -12 -24 3 -2 -2 -5 -10 -5 -10 0 -12 4 -5 12 5 7 6 16 2 20
-4 5 -2 5 5 1 6 -3 14 -2 18 4 3 5 9 10 12 10 3 0 -1 -8 -10 -18z m350 -27 c0
-8 -4 -12 -9 -9 -5 4 -7 9 -4 12 3 3 -2 15 -11 26 -18 21 -18 21 3 3 11 -9 21
-24 21 -32z m130 27 c-10 -10 -15 -21 -12 -24 3 -2 -2 -5 -10 -5 -10 0 -12 4
-5 12 5 7 6 16 2 20 -4 5 -2 5 5 1 6 -3 14 -2 18 4 3 5 9 10 12 10 3 0 -1 -8
-10 -18z m-2676 -9 c13 -16 12 -17 -3 -4 -10 7 -18 15 -18 17 0 8 8 3 21 -13z
m280 0 c13 -16 12 -17 -3 -4 -10 7 -18 15 -18 17 0 8 8 3 21 -13z m1180 -6
c-10 -9 -11 -8 -5 6 3 10 9 15 12 12 3 -3 0 -11 -7 -18z m770 10 c-6 -8 -9
-16 -6 -19 3 -2 -2 -5 -10 -5 -13 0 -13 3 2 19 19 21 31 25 14 5z m50 -4 c13
-17 13 -17 -6 -3 -11 8 -22 16 -24 17 -2 2 0 3 6 3 6 0 17 -8 24 -17z m229 -8
c14 -19 14 -19 -2 -6 -10 7 -18 18 -18 24 0 6 1 8 3 6 1 -2 9 -13 17 -24z
m121 12 c-6 -8 -9 -16 -6 -19 3 -2 -2 -5 -10 -5 -13 0 -13 3 2 19 19 21 31 25
14 5z m-2480 -14 c13 -16 12 -17 -3 -4 -10 7 -18 15 -18 17 0 8 8 3 21 -13z
m1040 0 c13 -16 12 -17 -3 -4 -17 13 -22 21 -14 21 2 0 10 -8 17 -17z m1516 4
c0 -8 -6 -14 -14 -14 -9 0 -10 4 -2 14 6 7 12 13 14 13 1 0 2 -6 2 -13z
m-2446 -14 c13 -16 12 -17 -3 -4 -10 7 -18 15 -18 17 0 8 8 3 21 -13z m259 13
c0 -2 -8 -10 -17 -17 -16 -13 -17 -12 -4 4 13 16 21 21 21 13z m905 -16 c-10
-11 -20 -18 -23 -15 -3 3 -15 -3 -26 -12 -15 -14 -18 -14 -8 -2 6 9 9 19 6 22
-4 4 3 5 14 2 11 -2 26 3 33 11 6 8 14 14 17 14 3 0 -3 -9 -13 -20z m175 17
c0 -2 -10 -13 -23 -25 -18 -17 -24 -19 -24 -8 0 8 4 13 8 11 3 -3 12 2 19 10
12 14 20 19 20 12z m82 -22 c2 3 5 -2 5 -10 0 -19 1 -20 -28 12 -17 20 -18 23
-3 10 11 -9 23 -15 26 -12z m383 5 c-10 -11 -20 -18 -23 -15 -3 3 -15 -3 -26
-12 -15 -14 -18 -14 -8 -2 6 9 9 19 6 22 -4 4 3 5 14 2 11 -2 26 3 33 11 6 8
14 14 17 14 3 0 -3 -9 -13 -20z m50 10 c3 -6 -1 -7 -9 -4 -18 7 -21 14 -7 14
6 0 13 -4 16 -10z m470 -8 c-3 -3 -11 0 -18 7 -9 10 -8 11 6 5 10 -3 15 -9 12
-12z m-2461 -22 c-6 -6 -10 -3 -10 10 0 13 4 16 10 10 7 -7 7 -13 0 -20z m207
13 c13 -16 12 -17 -3 -4 -10 7 -18 15 -18 17 0 8 8 3 21 -13z m854 -21 c-3 -3
3 -15 12 -26 18 -21 18 -21 -5 -2 -12 11 -20 21 -17 24 3 3 -3 15 -12 26 -18
21 -18 21 5 2 12 -11 20 -21 17 -24z m65 17 c0 -5 -4 -9 -8 -9 -5 0 -9 7 -9
15 0 8 4 12 9 9 4 -3 8 -9 8 -15z m73 6 c-3 -9 -8 -14 -10 -11 -3 3 -2 9 2 15
9 16 15 13 8 -4z m502 -23 c-3 -3 3 -15 12 -26 18 -21 18 -21 -5 -2 -12 11
-20 21 -17 24 3 3 -3 15 -12 26 -18 21 -18 21 5 2 12 -11 20 -21 17 -24z m61
12 c1 -9 0 -13 -4 -10 -3 4 -7 14 -8 22 -1 9 0 13 4 10 3 -4 7 -14 8 -22z m77
11 c-3 -9 -8 -14 -10 -11 -3 3 -2 9 2 15 9 16 15 13 8 -4z m361 -15 c-6 -6
-10 -3 -10 10 0 13 4 16 10 10 7 -7 7 -13 0 -20z m-1184 15 c0 -2 -6 -8 -13
-14 -10 -8 -14 -7 -14 2 0 8 6 14 14 14 7 0 13 -1 13 -2z m320 1 c0 -2 -8 -10
-17 -17 -16 -13 -17 -12 -4 4 13 16 21 21 21 13z m640 0 c0 -2 -8 -10 -17 -17
-16 -13 -17 -12 -4 4 13 16 21 21 21 13z m187 -13 c0 -9 -4 -10 -14 -2 -7 6
-13 12 -13 14 0 1 6 2 13 2 8 0 14 -6 14 -14z m143 13 c0 -2 -7 -7 -16 -10 -8
-3 -12 -2 -9 4 6 10 25 14 25 6z m-2245 -40 c0 -19 -3 -37 -6 -40 -4 -5 -4 62
0 72 4 10 7 -4 6 -32z m122 19 c0 -8 -10 -23 -21 -32 -21 -18 -21 -18 -2 5 11
12 16 22 12 22 -4 0 -4 5 -1 10 9 14 12 13 12 -5z m1200 0 c0 -8 -10 -23 -21
-32 -21 -18 -21 -18 -2 5 11 12 16 22 12 22 -4 0 -4 5 -1 10 9 14 12 13 12 -5z
m235 -2 c-1 -4 7 -17 16 -28 17 -20 17 -20 -4 -2 -11 9 -21 24 -21 32 0 8 2
13 5 11 2 -2 4 -8 4 -13z m648 13 c0 -2 -8 -10 -17 -17 -16 -13 -17 -12 -4 4
13 16 21 21 21 13z m120 0 c0 -2 -8 -10 -17 -17 -16 -13 -17 -12 -4 4 13 16
21 21 21 13z m-2480 -20 c-7 -7 -13 -7 -20 0 -6 6 -3 10 10 10 13 0 16 -4 10
-10z m130 10 c0 -2 -8 -10 -17 -17 -16 -13 -17 -12 -4 4 13 16 21 21 21 13z
m108 -16 c-7 -10 -14 -17 -17 -15 -4 4 18 35 25 35 2 0 -1 -9 -8 -20z m132 15
c0 -1 -10 -10 -22 -21 -14 -12 -18 -13 -10 -3 6 9 10 18 7 21 -3 2 2 5 10 5 8
0 15 -1 15 -2z m30 -10 c-5 -7 -9 -14 -7 -16 1 -2 0 -3 -2 -2 -2 2 -11 -3 -20
-9 -12 -10 -12 -7 2 8 9 11 15 23 12 26 -3 2 2 5 10 5 10 0 12 -4 5 -12z m837
-3 c-17 -18 -51 -27 -41 -10 3 5 9 6 14 3 4 -3 13 2 20 10 7 8 15 15 18 15 3
0 -2 -8 -11 -18z m213 14 c0 -2 -8 -10 -17 -17 -16 -13 -17 -12 -4 4 13 16 21
21 21 13z m316 -8 c3 -4 -1 -5 -10 -4 -8 1 -18 5 -22 8 -3 4 1 5 10 4 8 -1 18
-5 22 -8z m73 -22 c-3 -3 -11 5 -18 17 -13 21 -12 21 5 5 10 -10 16 -20 13
-22z m276 26 c-3 -3 0 -11 6 -19 17 -20 5 -16 -14 5 -15 16 -15 19 -2 19 8 0
13 -3 10 -5z m-809 -24 c12 -14 13 -18 3 -10 -9 6 -18 10 -21 7 -2 -3 -5 2 -5
10 0 19 0 19 23 -7z m74 18 c0 -2 -8 -10 -17 -17 -16 -13 -17 -12 -4 4 13 16
21 21 21 13z m566 -18 c12 -14 13 -18 3 -10 -9 6 -18 10 -21 7 -2 -3 -5 2 -5
10 0 19 0 19 23 -7z m74 18 c0 -2 -8 -10 -17 -17 -16 -13 -17 -12 -4 4 13 16
21 21 21 13z m187 -14 c-10 -10 -14 -22 -10 -27 5 -4 2 -5 -5 -1 -11 6 -10 12
4 27 9 10 19 19 22 19 3 0 -2 -8 -11 -18z m170 3 c0 -8 -3 -13 -5 -10 -3 3
-12 -1 -21 -7 -10 -8 -9 -4 3 10 23 26 23 26 23 7z m63 12 c0 -2 -8 -11 -18
-20 -15 -14 -19 -15 -19 -2 0 8 4 12 8 9 4 -2 10 0 14 6 6 10 15 14 15 7z m60
-1 c0 -2 -8 -10 -17 -17 -16 -13 -17 -12 -4 4 13 16 21 21 21 13z m175 -34
c-3 -3 3 -15 12 -26 18 -21 18 -21 -5 -2 -12 11 -20 21 -17 24 3 3 -3 15 -12
26 -18 21 -18 21 5 2 12 -11 20 -21 17 -24z m-1625 24 c0 -2 -7 -7 -16 -10 -8
-3 -12 -2 -9 4 6 10 25 14 25 6z m31 -9 c-6 -8 -9 -16 -6 -19 3 -2 -2 -5 -10
-5 -13 0 -13 3 2 19 19 21 31 25 14 5z m320 0 c-6 -8 -9 -16 -6 -19 3 -2 -2
-5 -10 -5 -13 0 -13 3 2 19 19 21 31 25 14 5z m176 -4 c0 -10 -4 -10 -16 -1
-9 7 -18 13 -20 15 -2 1 5 1 16 0 11 0 20 -7 20 -14z m62 14 c-2 -2 -11 -8
-20 -15 -12 -9 -16 -9 -16 1 0 7 9 14 20 14 11 1 18 1 16 0z m402 -10 c-6 -8
-9 -16 -6 -19 3 -2 -2 -5 -10 -5 -13 0 -13 3 2 19 19 21 31 25 14 5z m50 -4
c13 -17 13 -17 -6 -3 -11 8 -22 16 -24 17 -2 2 0 3 6 3 6 0 17 -8 24 -17z
m178 3 c9 -11 9 -16 -1 -22 -7 -4 -10 -4 -6 1 4 4 3 14 -3 22 -6 7 -9 13 -6
13 2 0 10 -6 16 -14z m252 1 c-6 -8 -9 -16 -6 -19 3 -2 -2 -5 -10 -5 -13 0
-13 3 2 19 19 21 31 25 14 5z m-2401 -21 c-7 -7 -13 -7 -20 0 -6 6 -3 10 10
10 13 0 16 -4 10 -10z m1235 -4 c-3 -3 -11 0 -18 7 -9 10 -8 11 6 5 10 -3 15
-9 12 -12z m217 -7 c2 3 5 -2 5 -10 0 -10 -4 -12 -12 -5 -7 5 -16 6 -21 2 -5
-4 -6 -3 -2 2 4 5 2 16 -4 25 -10 12 -7 12 8 -2 11 -9 23 -15 26 -12z m69 12
c-6 -8 -9 -17 -6 -20 3 -4 2 -5 -2 -2 -3 3 -11 0 -18 -5 -8 -7 -12 -5 -12 5 0
8 4 12 8 10 3 -3 12 2 19 10 7 8 15 15 17 15 3 0 0 -6 -6 -13z m354 -5 c-3 -3
-11 0 -18 7 -9 10 -8 11 6 5 10 -3 15 -9 12 -12z m249 10 c2 -4 -4 -8 -14 -8
-10 0 -16 4 -14 8 3 4 9 8 14 8 5 0 11 -4 14 -8z m81 -1 c-9 -8 -36 -10 -30
-2 2 4 11 8 20 8 8 0 13 -3 10 -6z m115 -6 c-10 -12 -10 -18 1 -32 12 -17 12
-17 -6 -1 -15 14 -16 20 -5 32 7 9 15 16 17 16 3 0 0 -7 -7 -15z m125 6 c-9
-8 -36 -10 -30 -2 2 4 11 8 20 8 8 0 13 -3 10 -6z m81 -3 c3 -4 -1 -5 -10 -4
-8 1 -18 5 -22 8 -3 4 1 5 10 4 8 -1 18 -5 22 -8z m69 4 c-3 -3 0 -11 6 -19
17 -20 5 -16 -14 5 -15 16 -15 19 -2 19 8 0 13 -3 10 -5z m-2782 -17 c-3 -9
-8 -14 -10 -11 -3 3 -2 9 2 15 9 16 15 13 8 -4z m62 -23 c-3 -3 3 -15 12 -26
18 -21 18 -21 -5 -2 -12 11 -20 21 -17 24 3 3 -3 15 -12 26 -18 21 -18 21 5 2
12 -11 20 -21 17 -24z m345 34 c0 -2 -6 -9 -14 -15 -11 -9 -16 -9 -22 0 -4 7
-3 9 4 5 6 -3 13 -2 17 4 6 10 15 14 15 6z m73 -11 c-3 -9 -8 -14 -10 -11 -3
3 -2 9 2 15 9 16 15 13 8 -4z m803 0 c-1 -8 -5 -17 -8 -21 -5 -4 -4 16 1 34 3
9 9 -1 7 -13z m100 3 c5 4 6 3 2 -2 -4 -5 -2 -16 4 -25 10 -12 7 -12 -8 2 -11
9 -23 15 -26 12 -2 -3 -5 2 -5 10 0 10 4 12 12 5 7 -5 16 -6 21 -2z m540 -3
c-1 -8 -5 -17 -8 -21 -5 -4 -4 16 1 34 3 9 9 -1 7 -13z m100 3 c5 4 6 3 2 -2
-4 -5 -2 -16 4 -25 10 -12 7 -12 -8 2 -11 9 -23 15 -26 12 -2 -3 -5 2 -5 10 0
10 4 12 12 5 7 -5 16 -6 21 -2z m180 -14 c1 -9 0 -13 -4 -10 -3 4 -7 14 -8 22
-1 9 0 13 4 10 3 -4 7 -14 8 -22z m241 11 c0 -8 -3 -13 -5 -10 -3 3 -15 -3
-26 -12 -15 -14 -18 -14 -8 -2 6 9 8 20 4 24 -4 5 -2 5 5 1 6 -3 14 -2 18 4 9
14 12 13 12 -5z m-2160 -10 c0 -8 -4 -12 -9 -9 -4 3 -8 9 -8 15 0 5 4 9 8 9 5
0 9 -7 9 -15z m153 12 c0 -2 -10 -12 -22 -23 l-23 -19 19 23 c18 21 26 27 26
19z m647 -12 c0 -8 -4 -12 -9 -9 -4 3 -8 9 -8 15 0 5 4 9 8 9 5 0 9 -7 9 -15z
m1582 12 c-2 -1 -13 -9 -24 -17 -19 -14 -19 -14 -6 3 7 9 18 17 24 17 6 0 8
-1 6 -3z m-2638 -24 c13 -16 12 -17 -3 -4 -17 13 -22 21 -14 21 2 0 10 -8 17
-17z m2511 0 c-1 -4 7 -17 16 -28 17 -20 17 -20 -4 -2 -11 9 -21 24 -21 32 0
8 2 13 5 11 2 -2 4 -8 4 -13z m-2437 -1 c-3 -3 0 -11 6 -19 17 -20 5 -16 -14
5 -15 16 -15 19 -2 19 8 0 13 -3 10 -5z m51 -4 c3 -4 -1 -5 -10 -4 -8 1 -18 5
-22 8 -3 4 1 5 10 4 8 -1 18 -5 22 -8z m105 -5 c13 -16 12 -17 -3 -4 -17 13
-22 21 -14 21 2 0 10 -8 17 -17z m84 9 c-3 -3 0 -11 6 -19 17 -20 5 -16 -14 5
-15 16 -15 19 -2 19 8 0 13 -3 10 -5z m40 -10 c-3 -3 -11 0 -18 7 -9 10 -8 11
6 5 10 -3 15 -9 12 -12z m760 10 c-3 -3 0 -11 6 -19 17 -20 5 -16 -14 5 -15
16 -15 19 -2 19 8 0 13 -3 10 -5z m40 0 c-3 -3 3 -15 12 -26 14 -15 14 -18 2
-8 -9 6 -20 8 -25 4 -5 -4 -6 -3 -2 2 4 5 3 14 -2 21 -7 8 -5 12 5 12 8 0 13
-3 10 -5z m40 0 c-3 -3 0 -11 6 -19 17 -20 5 -16 -14 5 -15 16 -15 19 -2 19 8
0 13 -3 10 -5z m95 4 c0 -2 -8 -10 -17 -17 -16 -13 -17 -12 -4 4 13 16 21 21
21 13z m240 -1 c0 -1 -10 -10 -22 -21 -14 -12 -18 -13 -10 -3 6 9 10 18 7 21
-3 2 2 5 10 5 8 0 15 -1 15 -2z m35 -5 c3 -6 -1 -7 -9 -4 -18 7 -21 14 -7 14
6 0 13 -4 16 -10z m155 6 c0 -2 -7 -7 -16 -10 -8 -3 -12 -2 -9 4 6 10 25 14
25 6z m35 -4 c-3 -3 0 -11 6 -19 17 -20 5 -16 -14 5 -15 16 -15 19 -2 19 8 0
13 -3 10 -5z m40 0 c-3 -3 3 -15 12 -26 14 -15 14 -18 2 -8 -9 6 -20 8 -25 4
-5 -4 -6 -3 -2 2 4 5 3 14 -2 21 -7 8 -5 12 5 12 8 0 13 -3 10 -5z m40 0 c-3
-3 0 -11 6 -19 17 -20 5 -16 -14 5 -15 16 -15 19 -2 19 8 0 13 -3 10 -5z m82
-10 c-9 -10 -26 -18 -39 -19 -17 -2 -19 0 -8 7 8 5 17 7 21 4 4 -2 12 3 19 11
7 8 15 15 18 15 3 0 -2 -8 -11 -18z m640 -5 c1 -11 1 -18 0 -16 -2 2 -8 11
-15 20 -9 12 -9 16 1 16 7 0 14 -9 14 -20z m78 3 c-10 -11 -20 -18 -23 -15 -3
3 -15 -3 -26 -12 -21 -18 -21 -18 -2 4 10 13 22 20 26 18 4 -3 13 2 20 10 7 8
15 15 18 15 3 0 -3 -9 -13 -20z m-2649 -12 c12 -14 13 -18 3 -10 -9 6 -18 10
-21 7 -2 -3 -5 2 -5 10 0 19 0 19 23 -7z m186 7 c2 3 5 -2 5 -10 0 -19 0 -19
-23 7 -12 14 -13 18 -3 10 9 -6 18 -10 21 -7z m283 6 c3 -5 2 -12 -3 -15 -5
-3 -9 1 -9 9 0 17 3 19 12 6z m891 -13 c12 -14 13 -18 3 -10 -9 6 -18 10 -21
7 -2 -3 -5 2 -5 10 0 19 0 19 23 -7z m98 1 c-10 -12 -18 -24 -17 -28 1 -3 0
-8 -2 -9 -2 -2 -3 3 -1 11 2 16 25 47 34 47 3 0 -3 -9 -14 -21z m168 6 c2 3 5
-2 5 -10 0 -19 0 -19 -23 7 -12 14 -13 18 -3 10 9 -6 18 -10 21 -7z m68 12 c0
-2 -8 -11 -18 -20 -15 -14 -19 -15 -19 -2 0 8 4 12 8 9 4 -2 10 0 14 6 6 10
15 14 15 7z m306 -19 c12 -14 13 -18 3 -10 -9 6 -18 10 -21 7 -2 -3 -5 2 -5
10 0 19 0 19 23 -7z m98 1 c-10 -12 -18 -24 -17 -28 1 -3 0 -8 -2 -9 -2 -2 -3
3 -1 11 2 16 25 47 34 47 3 0 -3 -9 -14 -21z m88 6 c2 3 5 -2 5 -10 0 -19 0
-19 -23 7 -12 14 -13 18 -3 10 9 -6 18 -10 21 -7z m143 -33 c-1 -9 3 -24 9
-32 9 -13 9 -13 -6 -2 -9 7 -15 21 -13 30 1 9 -5 26 -14 37 -16 20 -16 20 6 2
11 -10 20 -26 18 -35z m151 26 c12 -14 13 -18 3 -10 -9 6 -18 10 -21 7 -2 -3
-5 2 -5 10 0 19 0 19 23 -7z m301 4 c-10 -10 -15 -21 -12 -24 3 -3 -5 -13 -17
-24 l-23 -19 19 23 c11 12 15 22 11 22 -4 0 0 9 10 20 10 11 20 20 23 20 3 0
-2 -8 -11 -18z m-2478 -6 c9 -11 9 -16 -1 -22 -7 -4 -10 -4 -6 1 4 4 3 14 -3
22 -6 7 -9 13 -6 13 2 0 10 -6 16 -14z m750 11 c-2 -2 -11 -8 -20 -15 -12 -9
-16 -9 -16 1 0 7 9 14 20 14 11 1 18 1 16 0z m511 -1 c0 -2 -8 -10 -17 -17
-16 -13 -17 -12 -4 4 13 16 21 21 21 13z m181 -13 c13 -16 12 -17 -3 -4 -10 7
-18 15 -18 17 0 8 8 3 21 -13z m519 14 c0 -2 -10 -12 -22 -23 l-23 -19 19 23
c18 21 26 27 26 19z m30 -22 c14 -19 14 -19 -2 -6 -10 7 -18 18 -18 24 0 6 1
8 3 6 1 -2 9 -13 17 -24z m439 22 c-2 -2 -11 -8 -20 -15 -12 -9 -16 -9 -16 1
0 7 9 14 20 14 11 1 18 1 16 0z m-2318 -24 c13 -16 12 -17 -3 -4 -17 13 -22
21 -14 21 2 0 10 -8 17 -17z m1079 13 c0 -2 -8 -10 -17 -17 -16 -13 -17 -12
-4 4 13 16 21 21 21 13z m921 -13 c13 -16 12 -17 -3 -4 -17 13 -22 21 -14 21
2 0 10 -8 17 -17z m399 13 c0 -2 -8 -10 -17 -17 -16 -13 -17 -12 -4 4 13 16
21 21 21 13z m-2761 -40 c-3 -3 -11 5 -18 17 -13 21 -12 21 5 5 10 -10 16 -20
13 -22z m84 19 c-3 -9 -8 -14 -10 -11 -3 3 -2 9 2 15 9 16 15 13 8 -4z m117 9
c0 -8 -19 -13 -24 -6 -3 5 1 9 9 9 8 0 15 -2 15 -3z m810 2 c0 -2 -8 -10 -17
-17 -16 -13 -17 -12 -4 4 13 16 21 21 21 13z m349 -30 c-3 -3 -11 5 -18 17
-13 21 -12 21 5 5 10 -10 16 -20 13 -22z m192 17 c13 -16 12 -17 -3 -4 -17 13
-22 21 -14 21 2 0 10 -8 17 -17z m99 13 c0 -2 -8 -10 -17 -17 -16 -13 -17 -12
-4 4 13 16 21 21 21 13z m349 -30 c-3 -3 -11 5 -18 17 -13 21 -12 21 5 5 10
-10 16 -20 13 -22z m86 25 c-9 -8 -36 -10 -30 -2 2 4 11 8 20 8 8 0 13 -3 10
-6z m407 -16 c2 3 5 -2 5 -10 0 -19 1 -20 -28 12 -17 20 -18 23 -3 10 11 -9
23 -15 26 -12z m184 6 c-17 -18 -38 -22 -52 -8 -4 3 3 5 14 2 11 -2 26 3 33
11 6 8 14 14 17 14 3 0 -3 -9 -12 -19z m-1580 -17 c1 -9 0 -13 -4 -10 -3 4 -7
14 -8 22 -1 9 0 13 4 10 3 -4 7 -14 8 -22z m96 11 c3 3 11 -3 19 -12 12 -16
12 -17 -2 -6 -9 7 -18 11 -21 8 -3 -3 -11 3 -19 12 -12 16 -12 17 2 6 9 -7 18
-11 21 -8z m268 11 c0 -2 -8 -10 -17 -17 -16 -13 -17 -12 -4 4 13 16 21 21 21
13z m276 -22 c1 -9 0 -13 -4 -10 -3 4 -7 14 -8 22 -1 9 0 13 4 10 3 -4 7 -14
8 -22z m120 6 c0 -12 -4 -16 -9 -11 -5 5 -6 14 -3 20 10 15 12 14 12 -9z m482
-5 c-3 -3 -9 2 -12 12 -6 14 -5 15 5 6 7 -7 10 -15 7 -18z m80 0 c-3 -3 -9 2
-12 12 -6 14 -5 15 5 6 7 -7 10 -15 7 -18z m155 10 c-3 -9 -8 -14 -10 -11 -3
3 -2 9 2 15 9 16 15 13 8 -4z m-2676 -10 c0 -8 -4 -12 -9 -9 -5 3 -6 10 -3 15
9 13 12 11 12 -6z m1034 -8 c-10 -9 -11 -8 -5 6 3 10 9 15 12 12 3 -3 0 -11
-7 -18z m109 -2 c14 -19 14 -19 -2 -6 -10 7 -18 18 -18 24 0 6 1 8 3 6 1 -2 9
-13 17 -24z m117 1 c18 -21 18 -21 -3 -3 -11 9 -23 14 -26 11 -3 -3 -8 -1 -12
4 -11 18 25 8 41 -12z m119 12 c4 -7 4 -10 -1 -6 -4 4 -15 2 -24 -5 -14 -11
-14 -10 -2 6 16 20 18 21 27 5z m30 -16 c-17 -16 -18 -16 -5 5 7 12 15 20 18
17 3 -2 -3 -12 -13 -22z m265 5 c-10 -9 -11 -8 -5 6 3 10 9 15 12 12 3 -3 0
-11 -7 -18z m109 -2 c14 -19 14 -19 -2 -6 -10 7 -18 18 -18 24 0 6 1 8 3 6 1
-2 9 -13 17 -24z m117 1 c18 -21 18 -21 -3 -3 -11 9 -23 14 -26 11 -3 -3 -8
-1 -12 4 -11 18 25 8 41 -12z m119 12 c4 -7 4 -10 -1 -6 -4 4 -15 2 -24 -5
-14 -11 -14 -10 -2 6 16 20 18 21 27 5z m30 -16 c-17 -16 -18 -16 -5 5 7 12
15 20 18 17 3 -2 -3 -12 -13 -22z m189 19 c3 -5 2 -12 -3 -15 -5 -3 -9 1 -9 9
0 17 3 19 12 6z m85 -3 c0 -6 -3 -8 -7 -5 -3 4 -16 -1 -27 -10 -21 -18 -21
-18 -2 5 21 24 36 29 36 10z m-740 -2 c0 -2 -8 -10 -17 -17 -16 -13 -17 -12
-4 4 13 16 21 21 21 13z m1121 -13 c13 -16 12 -17 -3 -4 -17 13 -22 21 -14 21
2 0 10 -8 17 -17z m-1646 -13 c-10 -11 -20 -18 -23 -15 -3 3 -15 -3 -26 -12
-21 -18 -21 -18 -2 4 10 13 22 20 26 18 4 -3 13 2 20 10 7 8 15 15 18 15 3 0
-3 -9 -13 -20z m640 0 c-10 -11 -20 -18 -23 -15 -3 3 -15 -3 -26 -12 -21 -18
-21 -18 -2 4 10 13 22 20 26 18 4 -3 13 2 20 10 7 8 15 15 18 15 3 0 -3 -9
-13 -20z m897 -5 c3 3 13 -5 24 -17 19 -23 19 -23 -2 -5 -11 9 -23 15 -26 12
-3 -3 -13 5 -24 17 -19 23 -19 23 2 5 11 -9 23 -15 26 -12z m265 8 c0 -9 -4
-10 -14 -2 -7 6 -13 12 -13 14 0 1 6 2 13 2 8 0 14 -6 14 -14z m-1720 -38 c0
-8 -4 -12 -9 -9 -5 4 -7 9 -4 12 3 3 -2 15 -11 26 -18 21 -18 21 3 3 11 -9 21
-24 21 -32z m55 30 c2 3 5 -2 5 -10 0 -19 0 -19 -23 7 -12 14 -13 18 -3 10 9
-6 18 -10 21 -7z m54 -7 c12 -14 13 -18 3 -10 -9 6 -18 10 -21 7 -2 -3 -5 2
-5 10 0 19 0 19 23 -7z m191 7 c0 -8 -3 -13 -5 -10 -3 3 -12 -1 -21 -7 -10 -8
-9 -4 3 10 23 26 23 26 23 7z m96 0 c-3 -9 -8 -14 -10 -11 -3 3 -2 9 2 15 9
16 15 13 8 -4z m64 0 c0 -8 -3 -13 -5 -10 -3 3 -12 -1 -21 -7 -10 -8 -9 -4 3
10 23 26 23 26 23 7z m180 -30 c0 -8 -4 -12 -9 -9 -5 4 -7 9 -4 12 3 3 -2 15
-11 26 -18 21 -18 21 3 3 11 -9 21 -24 21 -32z m55 30 c2 3 5 -2 5 -10 0 -19
0 -19 -23 7 -12 14 -13 18 -3 10 9 -6 18 -10 21 -7z m54 -7 c12 -14 13 -18 3
-10 -9 6 -18 10 -21 7 -2 -3 -5 2 -5 10 0 19 0 19 23 -7z m191 7 c0 -8 -3 -13
-5 -10 -3 3 -12 -1 -21 -7 -10 -8 -9 -4 3 10 23 26 23 26 23 7z m113 0 c-14
-17 -30 -20 -30 -4 0 5 4 8 9 4 5 -3 12 -1 16 5 3 5 9 10 12 10 3 0 0 -7 -7
-15z m176 -7 c12 -14 13 -18 3 -10 -9 6 -18 10 -21 7 -2 -3 -5 2 -5 10 0 19 0
19 23 -7z m74 18 c0 -2 -8 -10 -17 -17 -16 -13 -17 -12 -4 4 13 16 21 21 21
13z m67 -14 c-10 -10 -15 -21 -12 -24 3 -2 -2 -5 -10 -5 -10 0 -12 4 -5 12 5
7 6 16 2 20 -4 5 -2 5 5 1 6 -3 14 -2 18 4 3 5 9 10 12 10 3 0 -1 -8 -10 -18z
m179 -4 c12 -14 13 -18 3 -10 -9 6 -18 10 -21 7 -2 -3 -5 2 -5 10 0 19 0 19
23 -7z m74 18 c0 -2 -8 -10 -17 -17 -16 -13 -17 -12 -4 4 13 16 21 21 21 13z
m-1662 -27 c9 -12 9 -16 -1 -16 -7 0 -14 9 -14 20 -1 11 -1 18 0 16 2 -2 8
-11 15 -20z m235 3 c15 -16 15 -19 2 -19 -8 0 -13 3 -10 5 3 3 0 11 -6 19 -17
20 -5 16 14 -5z m405 -3 c9 -12 9 -16 -1 -16 -7 0 -14 9 -14 20 -1 11 -1 18 0
16 2 -2 8 -11 15 -20z m235 3 c15 -16 15 -19 2 -19 -8 0 -13 3 -10 5 3 3 0 11
-6 19 -17 20 -5 16 14 -5z m248 5 c-6 -8 -9 -16 -6 -19 3 -2 -2 -5 -10 -5 -13
0 -13 3 2 19 19 21 31 25 14 5z m240 0 c-6 -8 -9 -16 -6 -19 3 -2 -2 -5 -10
-5 -13 0 -13 3 2 19 19 21 31 25 14 5z m76 -5 c0 -10 -6 -19 -13 -19 -9 0 -9
5 -1 19 7 10 13 18 14 18 1 0 1 -8 0 -18z m244 5 c-6 -8 -9 -16 -6 -19 3 -2
-2 -5 -10 -5 -13 0 -13 3 2 19 19 21 31 25 14 5z m50 -4 c13 -17 13 -17 -6 -3
-11 8 -22 16 -24 17 -2 2 0 3 6 3 6 0 17 -8 24 -17z m-530 -10 c13 -16 12 -17
-3 -4 -17 13 -22 21 -14 21 2 0 10 -8 17 -17z m-1136 -40 c-18 -17 -18 -17 -6
0 11 14 11 20 0 35 -12 16 -12 16 6 0 19 -18 19 -18 0 -35z m141 35 c3 -4 -1
-5 -10 -4 -8 1 -18 5 -22 8 -3 4 1 5 10 4 8 -1 18 -5 22 -8z m84 6 c0 -8 -19
-13 -24 -6 -3 5 1 9 9 9 8 0 15 -2 15 -3z m421 -36 c-11 -11 -13 -10 -7 0 4 7
2 21 -5 30 -12 15 -11 15 6 0 16 -15 17 -20 6 -30z m135 30 c3 -4 -1 -5 -10
-4 -8 1 -18 5 -22 8 -3 4 1 5 10 4 8 -1 18 -5 22 -8z m84 6 c0 -8 -19 -13 -24
-6 -3 5 1 9 9 9 8 0 15 -2 15 -3z m385 -12 c-3 -3 -11 0 -18 7 -9 10 -8 11 6
5 10 -3 15 -9 12 -12z m320 0 c-3 -3 -11 0 -18 7 -9 10 -8 11 6 5 10 -3 15 -9
12 -12z m-1705 -7 c-7 -8 -17 -15 -23 -15 -6 0 -2 7 9 15 25 19 30 19 14 0z
m640 0 c-7 -8 -17 -15 -23 -15 -6 0 -2 7 9 15 25 19 30 19 14 0z m606 -11 c1
-9 0 -13 -4 -10 -3 4 -7 14 -8 22 -1 9 0 13 4 10 3 -4 7 -14 8 -22z m100 14
c5 4 6 3 2 -2 -4 -5 -2 -16 4 -25 10 -12 7 -12 -8 2 -11 9 -23 15 -26 12 -2
-3 -5 2 -5 10 0 10 4 12 12 5 7 -5 16 -6 21 -2z m220 -14 c1 -9 0 -13 -4 -10
-3 4 -7 14 -8 22 -1 9 0 13 4 10 3 -4 7 -14 8 -22z m100 14 c5 4 6 3 2 -2 -4
-5 -2 -16 4 -25 10 -12 7 -12 -8 2 -11 9 -23 15 -26 12 -2 -3 -5 2 -5 10 0 10
4 12 12 5 7 -5 16 -6 21 -2z m-1122 -21 c1 -8 8 -23 16 -33 14 -18 14 -18 -6
-2 -11 9 -20 27 -21 39 -2 23 7 20 11 -4z m-82 -4 c-1 -4 7 -17 16 -28 17 -20
17 -20 -4 -2 -11 9 -21 24 -21 32 0 8 2 13 5 11 2 -2 4 -8 4 -13z m640 0 c-1
-4 7 -17 16 -28 17 -20 17 -20 -4 -2 -11 9 -21 24 -21 32 0 8 2 13 5 11 2 -2
4 -8 4 -13z m-1192 -3 c0 -5 -4 -10 -10 -10 -5 0 -10 5 -10 10 0 6 5 10 10 10
6 0 10 -4 10 -10z m125 1 c-9 -8 -36 -10 -30 -2 2 4 11 8 20 8 8 0 13 -3 10
-6z m45 4 c0 -1 -10 -10 -22 -21 -14 -12 -18 -13 -10 -3 6 9 10 18 7 21 -3 2
2 5 10 5 8 0 15 -1 15 -2z m356 -7 c3 -4 -1 -5 -10 -4 -8 1 -18 5 -22 8 -3 4
1 5 10 4 8 -1 18 -5 22 -8z m80 0 c3 -4 -1 -5 -10 -4 -8 1 -18 5 -22 8 -3 4 1
5 10 4 8 -1 18 -5 22 -8z m80 0 c3 -4 -1 -5 -10 -4 -8 1 -18 5 -22 8 -3 4 1 5
10 4 8 -1 18 -5 22 -8z m79 3 c-9 -8 -36 -10 -30 -2 2 4 11 8 20 8 8 0 13 -3
10 -6z m45 4 c0 -1 -10 -10 -22 -21 -14 -12 -18 -13 -10 -3 6 9 10 18 7 21 -3
2 2 5 10 5 8 0 15 -1 15 -2z m35 -5 c3 -6 -1 -7 -9 -4 -18 7 -21 14 -7 14 6 0
13 -4 16 -10z m321 -2 c3 -4 -1 -5 -10 -4 -8 1 -18 5 -22 8 -3 4 1 5 10 4 8
-1 18 -5 22 -8z m-909 -13 c0 -8 -3 -13 -5 -10 -3 3 -12 -1 -21 -7 -10 -8 -9
-4 3 10 23 26 23 26 23 7z m163 12 c0 -2 -10 -12 -22 -23 l-23 -19 19 23 c18
21 26 27 26 19z m27 -15 c-10 -10 -14 -22 -10 -25 3 -4 1 -7 -5 -7 -7 0 -12 3
-12 7 0 8 31 43 38 43 3 0 -2 -8 -11 -18z m450 3 c0 -8 -3 -13 -5 -10 -3 3
-12 -1 -21 -7 -10 -8 -9 -4 3 10 23 26 23 26 23 7z m163 12 c0 -2 -10 -12 -22
-23 l-23 -19 19 23 c18 21 26 27 26 19z m27 -15 c-10 -10 -14 -22 -10 -25 3
-4 1 -7 -5 -7 -7 0 -12 3 -12 7 0 8 31 43 38 43 3 0 -2 -8 -11 -18z m352 -9
c2 -1 -5 -1 -16 0 -11 0 -20 7 -20 14 0 10 4 10 16 1 9 -7 18 -13 20 -15z m85
6 c-10 -12 -18 -24 -17 -28 1 -3 0 -8 -2 -9 -2 -2 -3 3 -1 11 2 16 25 47 34
47 3 0 -3 -9 -14 -21z m83 3 c-10 -10 -15 -21 -12 -24 3 -3 -5 -13 -17 -24
l-23 -19 19 23 c11 12 15 22 11 22 -4 0 0 9 10 20 10 11 20 20 23 20 3 0 -2
-8 -11 -18z m152 -9 c2 -1 -5 -1 -16 0 -11 0 -20 7 -20 14 0 10 4 10 16 1 9
-7 18 -13 20 -15z m85 6 c-10 -12 -18 -24 -17 -28 1 -3 0 -8 -2 -9 -2 -2 -3 3
-1 11 2 16 25 47 34 47 3 0 -3 -9 -14 -21z m93 6 c0 -8 -3 -13 -5 -10 -3 3
-12 -1 -21 -7 -10 -8 -9 -4 3 10 23 26 23 26 23 7z m-1747 1 c0 -2 -8 -10 -17
-17 -16 -13 -17 -12 -4 4 13 16 21 21 21 13z m146 -8 c4 -7 3 -10 -1 -5 -5 4
-18 -1 -29 -10 -21 -18 -21 -18 -2 5 22 26 23 26 32 10z m155 -5 c13 -16 12
-17 -3 -4 -17 13 -22 21 -14 21 2 0 10 -8 17 -17z m339 13 c0 -2 -8 -10 -17
-17 -16 -13 -17 -12 -4 4 13 16 21 21 21 13z m146 -8 c4 -7 3 -10 -1 -5 -5 4
-18 -1 -29 -10 -21 -18 -21 -18 -2 5 22 26 23 26 32 10z m155 -5 c13 -16 12
-17 -3 -4 -17 13 -22 21 -14 21 2 0 10 -8 17 -17z m226 -7 c18 -21 18 -21 -3
-3 -11 9 -23 14 -26 11 -3 -3 -8 -1 -12 4 -11 18 25 8 41 -12z m269 -4 c-17
-16 -18 -16 -5 5 7 12 15 20 18 17 3 -2 -3 -12 -13 -22z m-1425 -5 c-6 -8 -9
-17 -6 -20 3 -4 2 -5 -2 -2 -3 3 -11 0 -18 -5 -8 -7 -12 -5 -12 5 0 8 4 12 8
10 3 -3 12 2 19 10 7 8 15 15 17 15 3 0 0 -6 -6 -13z m640 0 c-6 -8 -9 -17 -6
-20 3 -4 2 -5 -2 -2 -3 3 -11 0 -18 -5 -8 -7 -12 -5 -12 5 0 8 4 12 8 10 3 -3
12 2 19 10 7 8 15 15 17 15 3 0 0 -6 -6 -13z m724 4 c-9 -8 -36 -10 -30 -2 2
4 11 8 20 8 8 0 13 -3 10 -6z m320 0 c-9 -8 -36 -10 -30 -2 2 4 11 8 20 8 8 0
13 -3 10 -6z m-1549 -16 c-1 -8 -5 -17 -8 -21 -5 -4 -4 16 1 34 3 9 9 -1 7
-13z m561 0 c0 -8 -3 -13 -5 -10 -3 3 -15 -3 -26 -12 -15 -14 -18 -14 -8 -2 6
9 8 20 4 24 -4 5 -2 5 5 1 6 -3 14 -2 18 4 9 14 12 13 12 -5z m79 0 c-1 -8 -5
-17 -8 -21 -5 -4 -4 16 1 34 3 9 9 -1 7 -13z m438 -15 c-6 -6 -10 -3 -10 10 0
13 4 16 10 10 7 -7 7 -13 0 -20z m246 26 c0 -2 -8 -10 -17 -17 -16 -13 -17
-12 -4 4 13 16 21 21 21 13z m74 -26 c-6 -6 -10 -3 -10 10 0 13 4 16 10 10 7
-7 7 -13 0 -20z m198 18 c-14 -14 -44 -20 -36 -7 3 5 9 7 14 4 5 -3 11 -1 15
5 3 5 9 10 13 10 3 0 1 -5 -6 -12z m-1412 -10 c0 -4 -9 -7 -20 -5 -29 5 -33
13 -5 13 14 0 25 -4 25 -8z m160 0 c0 -4 -9 -7 -20 -5 -29 5 -33 13 -5 13 14
0 25 -4 25 -8z m480 0 c0 -4 -9 -7 -20 -5 -29 5 -33 13 -5 13 14 0 25 -4 25
-8z m119 9 c-2 -1 -13 -9 -24 -17 -19 -14 -19 -14 -6 3 7 9 18 17 24 17 6 0 8
-1 6 -3z m431 -1 c0 -2 -8 -10 -17 -17 -16 -13 -17 -12 -4 4 13 16 21 21 21
13z m-394 -31 c-1 -13 -4 -27 -7 -30 -5 -4 -4 41 0 53 4 10 8 -2 7 -23z m160
0 c-1 -13 -4 -27 -7 -30 -5 -4 -4 41 0 53 4 10 8 -2 7 -23z m320 0 c-1 -13 -4
-27 -7 -30 -5 -4 -4 41 0 53 4 10 8 -2 7 -23z m-1441 -5 c-10 -11 -20 -18 -23
-15 -3 3 -12 -1 -21 -8 -14 -11 -14 -10 -2 5 7 10 17 16 21 13 4 -3 13 2 20
10 7 8 15 15 18 15 3 0 -3 -9 -13 -20z m640 0 c-10 -11 -20 -18 -23 -15 -3 3
-12 -1 -21 -8 -14 -11 -14 -10 -2 5 7 10 17 16 21 13 4 -3 13 2 20 10 7 8 15
15 18 15 3 0 -3 -9 -13 -20z m280 0 c-10 -11 -20 -18 -23 -15 -3 3 -12 -1 -21
-8 -14 -11 -14 -10 -2 5 7 10 17 16 21 13 4 -3 13 2 20 10 7 8 15 15 18 15 3
0 -3 -9 -13 -20z m160 0 c-20 -22 -35 -26 -35 -9 0 5 4 8 9 5 5 -3 14 1 21 9
7 8 15 15 18 15 3 0 -3 -9 -13 -20z m320 0 c-20 -22 -35 -26 -35 -9 0 5 4 8 9
5 5 -3 14 1 21 9 7 8 15 15 18 15 3 0 -3 -9 -13 -20z m209 12 c2 -4 -4 -8 -14
-8 -10 0 -16 4 -14 8 3 4 9 8 14 8 5 0 11 -4 14 -8z m-1384 -5 c0 -2 -10 -12
-22 -23 l-23 -19 19 23 c18 21 26 27 26 19z m160 0 c0 -2 -10 -12 -22 -23
l-23 -19 19 23 c18 21 26 27 26 19z m96 -12 c-1 -8 -5 -17 -8 -21 -5 -4 -4 16
1 34 3 9 9 -1 7 -13z m61 -7 c0 -13 -1 -17 -4 -10 -3 6 -10 9 -16 5 -7 -4 -6
1 2 10 17 21 17 21 18 -5z m323 19 c0 -2 -10 -12 -22 -23 l-23 -19 19 23 c18
21 26 27 26 19z m677 -12 c0 -8 -4 -12 -9 -9 -4 3 -8 -1 -8 -8 0 -8 -3 -9 -8
-3 -9 13 -22 13 -42 0 -13 -7 -13 -6 -2 7 7 9 22 15 32 13 11 -2 22 0 25 6 9
13 12 11 12 -6z m-1427 -5 c8 -5 11 -10 5 -10 -5 0 -17 5 -25 10 -8 5 -10 10
-5 10 6 0 17 -5 25 -10z m160 0 c8 -5 11 -10 5 -10 -5 0 -17 5 -25 10 -8 5
-10 10 -5 10 6 0 17 -5 25 -10z m180 6 c0 -2 -8 -10 -17 -17 -16 -13 -17 -12
-4 4 13 16 21 21 21 13z m300 -6 c8 -5 11 -10 5 -10 -5 0 -17 5 -25 10 -8 5
-10 10 -5 10 6 0 17 -5 25 -10z m274 -2 c-4 -5 -9 -7 -12 -4 -3 3 -12 0 -21
-7 -14 -10 -14 -10 -4 4 13 16 46 23 37 7z m211 4 c-3 -3 -20 -6 -38 -7 -17 0
-39 -5 -47 -10 -12 -7 -13 -6 -3 6 6 8 30 14 52 15 23 1 39 -1 36 -4z m109 -4
c-4 -5 -9 -7 -12 -4 -3 3 -12 0 -21 -7 -14 -10 -14 -10 -4 4 13 16 46 23 37 7z
m-187 -427 c1 -11 -6 -26 -15 -33 -15 -11 -16 -11 -4 3 7 9 12 21 11 25 -2 11
0 24 4 24 1 0 3 -9 4 -19z m-439 -16 c-3 -3 -9 2 -12 12 -6 14 -5 15 5 6 7 -7
10 -15 7 -18z m94 10 c19 0 14 -11 -6 -11 -12 0 -23 6 -23 13 0 6 5 9 11 5 6
-4 14 -7 18 -7z m782 -15 c-6 -6 -10 -3 -10 10 0 13 4 16 10 10 7 -7 7 -13 0
-20z m-1174 16 c0 -2 -7 -7 -16 -10 -8 -3 -12 -2 -9 4 6 10 25 14 25 6z m576
-18 c19 -23 19 -23 -2 -5 -11 9 -24 14 -27 10 -4 -3 -7 -1 -7 5 0 19 15 14 36
-10z m104 13 c0 -6 -4 -12 -8 -15 -5 -3 -9 1 -9 9 0 8 4 15 9 15 4 0 8 -4 8
-9z m197 -6 c0 -8 -4 -12 -9 -9 -4 3 -8 9 -8 15 0 5 4 9 8 9 5 0 9 -7 9 -15z
m123 3 c0 -6 -3 -8 -7 -5 -3 4 -16 -1 -27 -10 -21 -18 -21 -18 -2 5 21 24 36
29 36 10z m-980 -2 c0 -2 -8 -10 -17 -17 -16 -13 -17 -12 -4 4 13 16 21 21 21
13z m801 -13 c13 -16 12 -17 -3 -4 -17 13 -22 21 -14 21 2 0 10 -8 17 -17z
m-680 -6 c-6 -8 -8 -16 -5 -20 3 -3 -2 -4 -13 -2 -10 1 -27 -5 -38 -14 -20
-16 -20 -16 -1 6 10 13 22 20 26 18 4 -3 13 2 20 10 7 8 15 15 17 15 3 0 0 -6
-6 -13z m49 8 c0 -1 -10 -10 -22 -21 -14 -12 -18 -13 -10 -3 6 9 10 18 7 21
-3 2 2 5 10 5 8 0 15 -1 15 -2z m65 -3 c-3 -3 0 -11 6 -19 17 -20 5 -16 -14 5
-15 16 -15 19 -2 19 8 0 13 -3 10 -5z m846 -5 c-6 -8 -8 -16 -5 -20 3 -3 -2
-4 -13 -2 -10 1 -27 -5 -38 -14 -20 -16 -20 -16 -1 6 10 13 22 20 26 18 4 -3
13 2 20 10 7 8 15 15 17 15 3 0 0 -6 -6 -13z m49 8 c0 -1 -10 -10 -22 -21 -14
-12 -18 -13 -10 -3 6 9 10 18 7 21 -3 2 2 5 10 5 8 0 15 -1 15 -2z m-1230 -9
c0 -2 -8 -10 -17 -17 -16 -13 -17 -12 -4 4 13 16 21 21 21 13z m117 -11 c0 -8
-3 -13 -5 -10 -3 3 -12 -1 -21 -7 -10 -8 -9 -4 3 10 23 26 23 26 23 7z m378
-23 c-3 -3 3 -15 12 -26 18 -21 18 -21 -5 -2 -12 11 -20 21 -17 24 3 3 -3 15
-12 26 -18 21 -18 21 5 2 12 -11 20 -21 17 -24z m151 16 c12 -14 13 -18 3 -10
-9 6 -18 10 -21 7 -2 -3 -5 2 -5 10 0 19 0 19 23 -7z m191 7 c0 -8 -3 -13 -5
-10 -3 3 -12 -1 -21 -7 -10 -8 -9 -4 3 10 23 26 23 26 23 7z m49 -7 c12 -14
13 -18 3 -10 -9 6 -18 10 -21 7 -2 -3 -5 2 -5 10 0 19 0 19 23 -7z m191 7 c0
-8 -3 -13 -5 -10 -3 3 -12 -1 -21 -7 -10 -8 -9 -4 3 10 23 26 23 26 23 7z
m-1056 -8 c-6 -8 -9 -16 -6 -19 3 -2 -2 -5 -10 -5 -13 0 -13 3 2 19 19 21 31
25 14 5z m290 -4 c13 -16 12 -17 -3 -4 -15 11 -21 11 -35 0 -16 -13 -17 -12
-4 4 7 9 17 17 21 17 4 0 14 -8 21 -17z m266 -7 c18 -21 18 -21 -3 -3 -11 9
-23 14 -26 11 -3 -3 -8 -1 -12 4 -11 18 25 8 41 -12z m156 6 c15 -16 15 -19 2
-19 -8 0 -13 3 -10 5 3 3 0 11 -6 19 -17 20 -5 16 14 -5z m248 5 c-6 -8 -7
-18 -3 -22 4 -5 1 -5 -6 -1 -10 6 -10 11 -1 22 6 8 14 14 16 14 3 0 0 -6 -6
-13z m278 10 c-2 -1 -13 -9 -24 -17 -19 -14 -19 -14 -6 3 7 9 18 17 24 17 6 0
8 -1 6 -3z m-1194 -26 c-9 -8 -36 -10 -30 -2 2 4 11 8 20 8 8 0 13 -3 10 -6z
m401 -3 c3 -4 -1 -5 -10 -4 -8 1 -18 5 -22 8 -3 4 1 5 10 4 8 -1 18 -5 22 -8z
m240 0 c3 -4 -1 -5 -10 -4 -8 1 -18 5 -22 8 -3 4 1 5 10 4 8 -1 18 -5 22 -8z
m79 2 c-3 -5 -12 -10 -18 -10 -7 0 -6 4 3 10 19 12 23 12 15 0z m161 -2 c3 -4
-1 -5 -10 -4 -8 1 -18 5 -22 8 -3 4 1 5 10 4 8 -1 18 -5 22 -8z m79 3 c-9 -8
-36 -10 -30 -2 2 4 11 8 20 8 8 0 13 -3 10 -6z m-835 -16 c-7 -8 -17 -15 -23
-15 -6 0 -2 7 9 15 25 19 30 19 14 0z m37 -3 c-10 -10 -14 -22 -10 -25 3 -4 1
-7 -5 -7 -7 0 -12 3 -12 7 0 8 31 43 38 43 3 0 -2 -8 -11 -18z m134 1 c13 -16
12 -17 -3 -4 -17 13 -22 21 -14 21 2 0 10 -8 17 -17z m213 -12 c-2 -3 -12 3
-22 13 -16 17 -16 18 5 5 12 -7 20 -15 17 -18z m263 14 c0 -8 -3 -13 -5 -10
-3 3 -15 -3 -26 -12 -15 -14 -18 -14 -8 -2 6 9 8 20 4 24 -4 5 -2 5 5 1 6 -3
14 -2 18 4 9 14 12 13 12 -5z m59 3 c5 4 6 3 2 -2 -4 -5 -2 -16 4 -25 10 -12
7 -12 -8 2 -11 9 -23 15 -26 12 -2 -3 -5 2 -5 10 0 10 4 12 12 5 7 -5 16 -6
21 -2z m291 -6 c-10 -10 -14 -22 -10 -25 3 -4 1 -7 -5 -7 -7 0 -12 3 -12 7 0
8 31 43 38 43 3 0 -2 -8 -11 -18z m-850 -16 c18 -21 18 -21 -3 -3 -11 9 -23
14 -26 11 -3 -3 -8 -1 -12 4 -11 18 25 8 41 -12z m82 21 c-2 -1 -13 -9 -24
-17 -19 -14 -19 -14 -6 3 7 9 18 17 24 17 6 0 8 -1 6 -3z m238 -17 c-1 -12
-10 -29 -22 -38 l-20 -17 20 24 c11 13 19 25 18 27 -5 7 -3 24 1 24 3 0 4 -9
3 -20z m589 13 c-2 -3 -6 -3 -9 -1 -3 2 -15 -6 -28 -17 l-24 -20 18 21 c9 11
24 21 32 21 8 0 13 -2 11 -4z m-986 -7 c0 -2 -8 -10 -17 -17 -16 -13 -17 -12
-4 4 13 16 21 21 21 13z m872 -13 c-1 -4 7 -17 16 -28 17 -20 17 -20 -4 -2
-11 9 -21 24 -21 32 0 8 2 13 5 11 2 -2 4 -8 4 -13z m-986 -5 c3 -4 -1 -5 -10
-4 -8 1 -18 5 -22 8 -3 4 1 5 10 4 8 -1 18 -5 22 -8z m271 -6 c-17 -18 -51
-27 -41 -10 3 5 9 6 14 3 4 -3 13 2 20 10 7 8 15 15 18 15 3 0 -2 -8 -11 -18z
m208 9 c-9 -8 -36 -10 -30 -2 2 4 11 8 20 8 8 0 13 -3 10 -6z m481 -3 c3 -4
-1 -5 -10 -4 -8 1 -18 5 -22 8 -3 4 1 5 10 4 8 -1 18 -5 22 -8z m-921 -18 c10
-11 16 -20 13 -20 -3 0 -13 9 -23 20 -10 11 -16 20 -13 20 3 0 13 -9 23 -20z
m92 5 c0 -8 -3 -13 -5 -10 -3 3 -12 -1 -21 -7 -10 -8 -9 -4 3 10 23 26 23 26
23 7z m62 -12 c2 -1 -5 -1 -16 0 -11 0 -20 7 -20 14 0 10 4 10 16 1 9 -7 18
-13 20 -15z m398 -23 c1 -11 -2 -20 -7 -20 -4 0 -7 8 -5 18 1 9 -5 26 -14 37
-16 19 -15 20 4 3 12 -9 21 -26 22 -38z m100 37 c0 -7 -9 -14 -20 -14 -19 -2
-19 -2 -1 12 11 8 19 15 20 15 0 0 1 -6 1 -13z m151 -4 c-9 -10 -14 -26 -13
-35 2 -10 -1 -18 -6 -18 -5 0 -8 9 -6 19 3 19 25 51 35 51 3 0 -2 -8 -10 -17z
m-877 -10 c13 -16 12 -17 -3 -4 -10 7 -18 15 -18 17 0 8 8 3 21 -13z m388 14
c-2 -2 -11 -8 -20 -15 -12 -9 -16 -9 -16 1 0 7 9 14 20 14 11 1 18 1 16 0z
m572 -14 c13 -16 12 -17 -3 -4 -10 7 -18 15 -18 17 0 8 8 3 21 -13z m-171 3
c0 -2 -8 -10 -17 -17 -16 -13 -17 -12 -4 4 13 16 21 21 21 13z m-849 -23 c13
-16 12 -17 -3 -4 -10 7 -18 15 -18 17 0 8 8 3 21 -13z m445 -2 c-17 -18 -38
-22 -52 -8 -4 3 3 5 14 2 11 -2 26 3 33 11 6 8 14 14 17 14 3 0 -3 -9 -12 -19z
m-103 -6 c-3 -9 -8 -14 -10 -11 -3 3 -2 9 2 15 9 16 15 13 8 -4z m401 -15 c-6
-6 -10 -3 -10 10 0 13 4 16 10 10 7 -7 7 -13 0 -20z m122 10 c0 -12 -4 -16 -9
-11 -5 5 -6 14 -3 20 10 15 12 14 12 -9z m-662 -13 c1 -8 8 -23 16 -33 14 -18
14 -18 -6 -2 -11 9 -20 27 -21 39 -2 23 7 20 11 -4z m276 19 c0 -2 -8 -10 -17
-17 -16 -13 -17 -12 -4 4 13 16 21 21 21 13z m-109 -23 c13 -16 12 -17 -3 -4
-17 13 -22 21 -14 21 2 0 10 -8 17 -17z m-311 2 c0 -2 -6 -8 -13 -14 -10 -8
-14 -7 -14 2 0 8 6 14 14 14 7 0 13 -1 13 -2z m30 -10 c-5 -7 -9 -14 -7 -16 1
-2 0 -3 -2 -2 -2 2 -11 -3 -20 -9 -12 -10 -12 -7 2 8 9 11 15 23 12 26 -3 2 2
5 10 5 10 0 12 -4 5 -12z m50 10 c0 -1 -10 -10 -22 -21 -14 -12 -18 -13 -10
-3 6 9 10 18 7 21 -3 2 2 5 10 5 8 0 15 -1 15 -2z m35 -5 c3 -6 -1 -7 -9 -4
-18 7 -21 14 -7 14 6 0 13 -4 16 -10z m74 -24 c-3 -3 -11 5 -18 17 -13 21 -12
21 5 5 10 -10 16 -20 13 -22z m359 15 c-7 -9 -13 -18 -15 -20 -1 -2 -1 5 0 16
0 11 7 20 14 20 10 0 10 -4 1 -16z m47 9 c3 -6 -1 -7 -9 -4 -18 7 -21 14 -7
14 6 0 13 -4 16 -10z m112 -8 c-17 -18 -51 -27 -41 -10 3 5 9 6 14 3 4 -3 13
2 20 10 7 8 15 15 18 15 3 0 -2 -8 -11 -18z m95 -6 c3 3 8 1 12 -4 11 -18 -25
-8 -41 12 -18 21 -18 21 3 3 11 -9 23 -14 26 -11z m105 17 c-4 -3 1 -16 10
-27 18 -21 18 -21 -4 -2 -25 21 -30 36 -11 36 6 0 8 -3 5 -7z m-611 -25 c12
-14 13 -18 3 -10 -9 6 -18 10 -21 7 -2 -3 -5 2 -5 10 0 19 0 19 23 -7z m74 18
c0 -2 -8 -10 -17 -17 -16 -13 -17 -12 -4 4 13 16 21 21 21 13z m97 -41 c0 -8
-4 -12 -9 -9 -5 4 -7 9 -4 12 3 3 -2 15 -11 26 -18 21 -18 21 3 3 11 -9 21
-24 21 -32z m408 25 c10 -11 16 -20 13 -20 -3 0 -13 9 -23 20 -10 11 -16 20
-13 20 3 0 13 -9 23 -20z m95 16 c0 -2 -8 -10 -17 -17 -16 -13 -17 -12 -4 4
13 16 21 21 21 13z m64 -17 c-10 -12 -18 -24 -17 -28 1 -3 0 -8 -2 -9 -2 -2
-3 3 -1 11 2 16 25 47 34 47 3 0 -3 -9 -14 -21z m-643 -2 c-6 -8 -9 -16 -6
-19 3 -2 -2 -5 -10 -5 -13 0 -13 3 2 19 19 21 31 25 14 5z m189 9 c0 -2 -8
-10 -17 -17 -16 -13 -17 -12 -4 4 13 16 21 21 21 13z m-235 -34 c-3 -3 -11 0
-18 7 -9 10 -8 11 6 5 10 -3 15 -9 12 -12z m89 10 c2 -4 -4 -8 -14 -8 -10 0
-16 4 -14 8 3 4 9 8 14 8 5 0 11 -4 14 -8z m82 -4 c3 -4 -1 -5 -10 -4 -8 1
-18 5 -22 8 -3 4 1 5 10 4 8 -1 18 -5 22 -8z m479 3 c-9 -8 -36 -10 -30 -2 2
4 11 8 20 8 8 0 13 -3 10 -6z m79 1 c2 -4 -4 -8 -14 -8 -10 0 -16 4 -14 8 3 4
9 8 14 8 5 0 11 -4 14 -8z m-1031 -17 c-3 -9 -8 -14 -10 -11 -3 3 -2 9 2 15 9
16 15 13 8 -4z m60 1 c3 3 4 -2 2 -13 -1 -10 5 -27 14 -38 16 -20 16 -20 -7
-1 -12 11 -20 21 -17 24 3 3 -3 15 -12 26 -14 15 -14 18 -2 8 9 -6 18 -9 22
-6z m103 -1 c-1 -8 -5 -17 -8 -21 -5 -4 -4 16 1 34 3 9 9 -1 7 -13z m100 3 c5
4 6 3 2 -2 -4 -5 -2 -16 4 -25 10 -12 7 -12 -8 2 -11 9 -23 15 -26 12 -2 -3
-5 2 -5 10 0 10 4 12 12 5 7 -5 16 -6 21 -2z m-235 -25 c13 -16 12 -17 -3 -4
-17 13 -22 21 -14 21 2 0 10 -8 17 -17z m76 -16 c1 -11 1 -18 0 -16 -2 2 -8
11 -15 20 -9 12 -9 16 1 16 7 0 14 -9 14 -20z m78 3 c-10 -11 -20 -18 -23 -15
-3 3 -15 -3 -26 -12 -21 -18 -21 -18 -2 4 10 13 22 20 26 18 4 -3 13 2 20 10
7 8 15 15 18 15 3 0 -3 -9 -13 -20z m365 16 c0 -2 -7 -7 -16 -10 -8 -3 -12 -2
-9 4 6 10 25 14 25 6z m35 -4 c-3 -3 0 -11 6 -19 17 -20 5 -16 -14 5 -15 16
-15 19 -2 19 8 0 13 -3 10 -5z m210 -1 c-9 -8 -36 -10 -30 -2 2 4 11 8 20 8 8
0 13 -3 10 -6z m45 4 c0 -1 -10 -10 -22 -21 -14 -12 -18 -13 -10 -3 6 9 10 18
7 21 -3 2 2 5 10 5 8 0 15 -1 15 -2z m35 -5 c3 -6 -1 -7 -9 -4 -18 7 -21 14
-7 14 6 0 13 -4 16 -10z m-859 -22 c12 -14 13 -18 3 -10 -9 6 -18 10 -21 7 -2
-3 -5 2 -5 10 0 19 0 19 23 -7z m253 -5 c2 -1 -5 -1 -16 0 -11 0 -20 7 -20 14
0 10 4 10 16 1 9 -7 18 -13 20 -15z m85 6 c-10 -12 -18 -24 -17 -28 1 -3 0 -8
-2 -9 -2 -2 -3 3 -1 11 2 16 25 47 34 47 3 0 -3 -9 -14 -21z m156 18 c0 -2 -8
-11 -18 -20 -15 -14 -19 -15 -19 -2 0 8 4 12 8 9 4 -2 10 0 14 6 6 10 15 14
15 7z m172 -12 c2 3 5 -2 5 -10 0 -19 0 -19 -23 7 -12 14 -13 18 -3 10 9 -6
18 -10 21 -7z m68 12 c0 -2 -8 -11 -18 -20 -15 -14 -19 -15 -19 -2 0 8 4 12 8
9 4 -2 10 0 14 6 6 10 15 14 15 7z m172 -12 c2 3 5 -2 5 -10 0 -19 0 -19 -23
7 -12 14 -13 18 -3 10 9 -6 18 -10 21 -7z m-546 -23 c-17 -16 -18 -16 -5 5 7
12 15 20 18 17 3 -2 -3 -12 -13 -22z m185 11 c13 -16 12 -17 -3 -4 -17 13 -22
21 -14 21 2 0 10 -8 17 -17z m469 -8 c14 -19 14 -19 -2 -6 -10 7 -18 18 -18
24 0 6 1 8 3 6 1 -2 9 -13 17 -24z m-969 -12 c13 -16 12 -17 -3 -4 -17 13 -22
21 -14 21 2 0 10 -8 17 -17z m459 13 c0 -2 -8 -10 -17 -17 -16 -13 -17 -12 -4
4 13 16 21 21 21 13z m141 -13 c13 -16 12 -17 -3 -4 -10 7 -18 15 -18 17 0 8
8 3 21 -13z m89 2 c-10 -12 -10 -18 1 -32 12 -17 12 -17 -6 -1 -15 14 -16 20
-5 32 7 9 15 16 17 16 3 0 0 -7 -7 -15z m145 -32 c-18 -17 -18 -17 -6 0 11 14
11 20 0 35 -12 16 -12 16 6 0 19 -18 19 -18 0 -35z m-88 22 c0 -8 -3 -13 -5
-10 -3 3 -10 0 -17 -5 -8 -7 -12 -5 -12 5 0 8 4 12 8 9 4 -2 10 0 14 6 9 14
12 13 12 -5z m37 -15 c-6 -6 -10 -3 -10 10 0 13 4 16 10 10 7 -7 7 -13 0 -20z
m-693 -7 c13 -16 12 -17 -3 -4 -17 13 -22 21 -14 21 2 0 10 -8 17 -17z m240 0
c13 -16 12 -17 -3 -4 -17 13 -22 21 -14 21 2 0 10 -8 17 -17z m639 13 c0 -2
-8 -10 -17 -17 -16 -13 -17 -12 -4 4 13 16 21 21 21 13z m-965 -26 c-10 -11
-21 -17 -25 -15 -4 3 -13 -2 -20 -10 -7 -8 -17 -15 -23 -15 -6 0 0 8 13 17 14
10 28 18 32 18 4 0 13 6 20 13 20 20 23 14 3 -8z m457 -4 c3 3 8 1 12 -4 11
-18 -25 -8 -41 12 -18 21 -18 21 3 3 11 -9 23 -14 26 -11z m145 6 c-17 -18
-51 -27 -41 -10 3 5 9 6 14 3 4 -3 13 2 20 10 7 8 15 15 18 15 3 0 -2 -8 -11
-18z m-465 -7 c2 3 5 -2 5 -10 0 -19 0 -19 -23 7 -12 14 -13 18 -3 10 9 -6 18
-10 21 -7z m169 -2 c13 -16 12 -17 -3 -4 -17 13 -22 21 -14 21 2 0 10 -8 17
-17z m71 2 c2 3 5 -2 5 -10 0 -19 0 -19 -23 7 -12 14 -13 18 -3 10 9 -6 18
-10 21 -7z m294 -7 c12 -14 13 -18 3 -10 -9 6 -18 10 -21 7 -2 -3 -5 2 -5 10
0 19 0 19 23 -7z m74 18 c0 -2 -8 -10 -17 -17 -16 -13 -17 -12 -4 4 13 16 21
21 21 13z m117 -9 c0 -7 -9 -14 -20 -14 -19 -2 -19 -2 -1 12 11 8 19 15 20 15
0 0 1 -6 1 -13z m63 10 c0 -2 -8 -11 -18 -20 -15 -14 -19 -15 -19 -2 0 8 4 12
8 9 4 -2 10 0 14 6 6 10 15 14 15 7z m-890 -11 c0 -2 -8 -10 -17 -17 -16 -13
-17 -12 -4 4 13 16 21 21 21 13z m207 -2 c-3 -3 -12 -6 -20 -8 -8 -1 -23 -8
-33 -16 -18 -14 -18 -14 -2 6 9 11 27 20 39 21 12 1 19 0 16 -3z m36 -12 c15
-16 15 -19 2 -19 -8 0 -13 3 -10 5 3 3 0 11 -6 19 -17 20 -5 16 14 -5z m488 5
c-6 -8 -9 -16 -6 -19 3 -2 -2 -5 -10 -5 -13 0 -13 3 2 19 19 21 31 25 14 5z
m-629 -32 c2 3 5 -2 5 -10 0 -10 -4 -12 -12 -5 -7 5 -16 6 -21 2 -5 -4 -6 -3
-2 2 4 5 2 16 -4 25 -10 12 -7 12 8 -2 11 -9 23 -15 26 -12z m193 15 c-3 -5
-12 -10 -18 -10 -7 0 -6 4 3 10 19 12 23 12 15 0z m390 -8 c-3 -3 -11 0 -18 7
-9 10 -8 11 6 5 10 -3 15 -9 12 -12z m205 3 c-6 -8 -9 -19 -6 -24 4 -5 3 -12
-2 -15 -12 -7 -11 26 1 42 5 6 12 12 14 12 3 0 0 -7 -7 -15z m-704 -10 c-1 -8
-5 -17 -8 -21 -5 -4 -4 16 1 34 3 9 9 -1 7 -13z m460 3 c5 4 6 3 2 -2 -4 -5
-2 -16 4 -25 10 -12 7 -12 -8 2 -11 9 -23 15 -26 12 -2 -3 -5 2 -5 10 0 10 4
12 12 5 7 -5 16 -6 21 -2z m159 -26 c-3 -3 3 -15 12 -26 18 -21 18 -21 -5 -2
-12 11 -20 21 -17 24 3 3 -3 15 -12 26 -18 21 -18 21 5 2 12 -11 20 -21 17
-24z m-464 5 c-10 -9 -11 -8 -5 6 3 10 9 15 12 12 3 -3 0 -11 -7 -18z m-419
-4 c-1 -4 7 -17 16 -28 17 -20 17 -20 -4 -2 -11 9 -21 24 -21 32 0 8 2 13 5
11 2 -2 4 -8 4 -13z m48 -7 c-7 -7 -13 -7 -20 0 -6 6 -3 10 10 10 13 0 16 -4
10 -10z m50 9 c0 -1 -10 -10 -22 -21 -14 -12 -18 -13 -10 -3 6 9 10 18 7 21
-3 2 2 5 10 5 8 0 15 -1 15 -2z m35 -5 c3 -6 -1 -7 -9 -4 -18 7 -21 14 -7 14
6 0 13 -4 16 -10z m390 2 c-3 -3 0 -11 6 -19 17 -20 5 -16 -14 5 -15 16 -15
19 -2 19 8 0 13 -3 10 -5z m40 0 c-3 -3 0 -11 6 -19 17 -20 5 -16 -14 5 -15
16 -15 19 -2 19 8 0 13 -3 10 -5z m371 -4 c3 -4 -1 -5 -10 -4 -8 1 -18 5 -22
8 -3 4 1 5 10 4 8 -1 18 -5 22 -8z m-751 -10 c5 4 5 1 1 -6 -6 -10 -11 -10
-22 -1 -8 6 -14 14 -14 16 0 3 6 0 13 -6 8 -6 18 -7 22 -3z m140 -26 c-3 -3 3
-15 12 -26 18 -21 18 -21 -5 -2 -12 11 -20 21 -17 24 3 3 -3 15 -12 26 -18 21
-18 21 5 2 12 -11 20 -21 17 -24z m65 34 c0 -2 -8 -10 -17 -17 -16 -13 -17
-12 -4 4 13 16 21 21 21 13z m67 -14 c-10 -10 -15 -21 -12 -24 3 -2 -2 -5 -10
-5 -10 0 -12 4 -5 12 5 7 6 16 2 20 -4 5 -2 5 5 1 6 -3 14 -2 18 4 3 5 9 10
12 10 3 0 -1 -8 -10 -18z m205 3 c2 3 5 -2 5 -10 0 -19 0 -19 -23 7 -12 14
-13 18 -3 10 9 -6 18 -10 21 -7z m54 -7 c12 -14 13 -18 3 -10 -9 6 -18 10 -21
7 -2 -3 -5 2 -5 10 0 19 0 19 23 -7z m102 5 c-9 -10 -14 -26 -13 -35 2 -10 -1
-18 -6 -18 -5 0 -8 9 -6 19 3 19 25 51 35 51 3 0 -2 -8 -10 -17z m-698 3 c0
-2 -8 -10 -17 -17 -16 -13 -17 -12 -4 4 13 16 21 21 21 13z m170 -21 c14 -19
14 -19 -2 -6 -10 7 -18 18 -18 24 0 6 1 8 3 6 1 -2 9 -13 17 -24z m121 12 c-6
-8 -9 -16 -6 -19 3 -2 -2 -5 -10 -5 -13 0 -13 3 2 19 19 21 31 25 14 5z m90
-4 c13 -16 12 -17 -3 -4 -17 13 -22 21 -14 21 2 0 10 -8 17 -17z m-370 -16
c-6 -8 -8 -16 -5 -20 3 -3 -2 -4 -13 -2 -10 1 -27 -5 -38 -14 -20 -16 -20 -16
-1 6 10 13 22 20 26 18 4 -3 13 2 20 10 7 8 15 15 17 15 3 0 0 -6 -6 -13z
m234 -5 c-3 -3 -11 0 -18 7 -9 10 -8 11 6 5 10 -3 15 -9 12 -12z m270 -29
c-18 -17 -18 -17 -6 0 11 14 11 20 0 35 -12 16 -12 16 6 0 19 -18 19 -18 0
-35z m-578 19 c-10 -10 -15 -21 -12 -24 3 -3 -3 -11 -12 -19 -16 -13 -17 -12
-4 4 7 9 10 17 6 17 -5 0 0 9 10 20 10 11 20 20 23 20 3 0 -2 -8 -11 -18z
m490 5 c0 -8 -6 -14 -14 -14 -9 0 -10 4 -2 14 6 7 12 13 14 13 1 0 2 -6 2 -13z
m37 -17 c-6 -6 -10 -3 -10 10 0 13 4 16 10 10 7 -7 7 -13 0 -20z m-317 5 c0
-8 -4 -12 -9 -9 -4 3 -8 9 -8 15 0 5 4 9 8 9 5 0 9 -7 9 -15z m474 -2 c13 -16
12 -17 -3 -4 -17 13 -22 21 -14 21 2 0 10 -8 17 -17z m-532 -6 c8 -10 7 -14
-2 -14 -8 0 -14 6 -14 14 0 7 1 13 2 13 2 0 8 -6 14 -13z m112 -14 c13 -16 12
-17 -3 -4 -17 13 -22 21 -14 21 2 0 10 -8 17 -17z m84 9 c-3 -3 0 -11 6 -19
17 -20 5 -16 -14 5 -15 16 -15 19 -2 19 8 0 13 -3 10 -5z m40 0 c-3 -3 3 -15
12 -26 14 -15 14 -18 2 -8 -9 6 -20 8 -25 4 -5 -4 -6 -3 -2 2 4 5 3 14 -2 21
-7 8 -5 12 5 12 8 0 13 -3 10 -5z m40 0 c-3 -3 0 -11 6 -19 17 -20 5 -16 -14
5 -15 16 -15 19 -2 19 8 0 13 -3 10 -5z m257 -16 c3 3 8 1 12 -4 11 -18 -25
-8 -41 12 -18 21 -18 21 3 3 11 -9 23 -14 26 -11z m108 20 c0 -2 -7 -7 -16
-10 -8 -3 -12 -2 -9 4 6 10 25 14 25 6z m37 -19 c1 -11 1 -18 0 -16 -2 2 -8
11 -15 20 -9 12 -9 16 1 16 7 0 14 -9 14 -20z m-625 -2 c2 3 5 -2 5 -10 0 -19
0 -19 -23 7 -12 14 -13 18 -3 10 9 -6 18 -10 21 -7z m278 0 c-7 -8 -17 -15
-23 -15 -6 0 -2 7 9 15 25 19 30 19 14 0z m127 2 c0 -7 -9 -14 -20 -14 -19 -2
-19 -2 -1 12 11 8 19 15 20 15 0 0 1 -6 1 -13z m-481 -9 c4 -7 3 -10 -1 -5 -5
4 -18 -1 -29 -10 -21 -18 -21 -18 -2 5 22 26 23 26 32 10z m195 -5 c13 -16 12
-17 -3 -4 -17 13 -22 21 -14 21 2 0 10 -8 17 -17z m190 4 c-6 -8 -9 -16 -6
-19 3 -2 -2 -5 -10 -5 -13 0 -13 3 2 19 19 21 31 25 14 5z m290 -4 c13 -16 12
-17 -3 -4 -17 13 -22 21 -14 21 2 0 10 -8 17 -17z m-770 -10 c13 -16 12 -17
-3 -4 -17 13 -22 21 -14 21 2 0 10 -8 17 -17z m150 -10 c13 -16 12 -17 -3 -4
-17 13 -22 21 -14 21 2 0 10 -8 17 -17z m86 -1 c-17 -18 -51 -27 -41 -10 3 5
9 6 14 3 4 -3 13 2 20 10 7 8 15 15 18 15 3 0 -2 -8 -11 -18z m359 -7 c-1 -13
-4 -27 -7 -30 -5 -4 -4 41 0 53 4 10 8 -2 7 -23z m-601 -23 c-3 -3 3 -15 12
-26 18 -21 18 -21 -5 -2 -12 11 -20 21 -17 24 3 3 -3 15 -12 26 -18 21 -18 21
5 2 12 -11 20 -21 17 -24z m95 23 c-7 -8 -17 -15 -23 -15 -6 0 -2 7 9 15 25
19 30 19 14 0z m248 -10 c-3 -3 -9 2 -12 12 -6 14 -5 15 5 6 7 -7 10 -15 7
-18z m198 -1 c1 -9 0 -13 -4 -10 -3 4 -7 14 -8 22 -1 9 0 13 4 10 3 -4 7 -14
8 -22z m120 0 c1 -9 0 -13 -4 -10 -3 4 -7 14 -8 22 -1 9 0 13 4 10 3 -4 7 -14
8 -22z m-525 -1 c13 -16 12 -17 -3 -4 -17 13 -22 21 -14 21 2 0 10 -8 17 -17z
m40 -6 c-10 -9 -11 -8 -5 6 3 10 9 15 12 12 3 -3 0 -11 -7 -18z m113 11 c-4
-5 -9 -7 -12 -4 -3 3 -12 0 -21 -7 -14 -10 -14 -10 -4 4 13 16 46 23 37 7z
m36 -2 c0 -2 -8 -10 -17 -17 -16 -13 -17 -12 -4 4 13 16 21 21 21 13z m-280
-18 c0 -4 -4 -8 -9 -8 -6 0 -12 4 -15 8 -3 5 1 9 9 9 8 0 15 -4 15 -9z m690 7
c0 -1 -10 -10 -22 -21 -14 -12 -18 -13 -10 -3 6 9 10 18 7 21 -3 2 2 5 10 5 8
0 15 -1 15 -2z m35 -5 c3 -6 -1 -7 -9 -4 -18 7 -21 14 -7 14 6 0 13 -4 16 -10z
m-685 -3 c0 -2 -10 -12 -22 -23 l-23 -19 19 23 c18 21 26 27 26 19z m127 -15
c-10 -10 -16 -21 -15 -23 2 -2 1 -3 -1 -1 -3 1 -6 9 -7 17 -1 8 2 13 6 10 5
-3 11 -1 15 5 3 5 9 10 12 10 3 0 -1 -8 -10 -18z m130 3 c0 -8 -3 -13 -5 -10
-3 3 -12 -1 -21 -7 -10 -8 -9 -4 3 10 23 26 23 26 23 7z m-184 -13 c15 -16 15
-19 2 -19 -8 0 -13 3 -10 5 3 3 0 11 -6 19 -17 20 -5 16 14 -5z m88 5 c-6 -8
-9 -16 -6 -19 3 -2 -2 -5 -10 -5 -13 0 -13 3 2 19 19 21 31 25 14 5z m185 6
c-2 -3 -6 -3 -9 -1 -3 2 -15 -6 -28 -17 l-24 -20 18 21 c9 11 24 21 32 21 8 0
13 -2 11 -4z m131 -17 c18 -21 18 -21 -3 -3 -11 9 -23 14 -26 11 -3 -3 -8 -1
-12 4 -11 18 25 8 41 -12z m82 21 c-2 -2 -11 -8 -20 -15 -12 -9 -16 -9 -16 1
0 7 9 14 20 14 11 1 18 1 16 0z m111 -1 c0 -2 -8 -10 -17 -17 -16 -13 -17 -12
-4 4 13 16 21 21 21 13z m-465 -25 c-9 -8 -36 -10 -30 -2 2 4 11 8 20 8 8 0
13 -3 10 -6z m365 5 c0 -2 -8 -10 -17 -17 -16 -13 -17 -12 -4 4 13 16 21 21
21 13z m-690 -27 c0 -5 -4 -9 -8 -9 -5 0 -9 7 -9 15 0 8 4 12 9 9 4 -3 8 -9 8
-15z m66 -1 c3 -4 -1 -5 -10 -4 -8 1 -18 5 -22 8 -3 4 1 5 10 4 8 -1 18 -5 22
-8z m88 -4 c3 -8 2 -12 -4 -9 -6 3 -10 10 -10 16 0 14 7 11 14 -7z m566 -9
c14 -19 14 -19 -2 -6 -10 7 -18 18 -18 24 0 6 1 8 3 6 1 -2 9 -13 17 -24z m54
9 c3 -8 2 -12 -4 -9 -6 3 -10 10 -10 16 0 14 7 11 14 -7z m-299 -59 c1 -30 -1
-52 -4 -49 -3 3 -6 30 -6 59 -1 30 1 52 4 49 3 -3 6 -30 6 -59z m122 50 c0 -8
-10 -23 -21 -32 -21 -18 -21 -18 -2 5 11 12 16 22 12 22 -4 0 -4 5 -1 10 9 14
12 13 12 -5z m-402 -3 c-3 -3 0 -11 6 -19 17 -20 5 -16 -14 5 -15 16 -15 19
-2 19 8 0 13 -3 10 -5z m40 0 c-3 -3 3 -15 12 -26 14 -15 14 -18 2 -8 -9 6
-20 8 -25 4 -5 -4 -6 -3 -2 2 4 5 3 14 -2 21 -7 8 -5 12 5 12 8 0 13 -3 10 -5z
m42 -15 c1 -11 1 -18 0 -16 -2 2 -8 11 -15 20 -9 12 -9 16 1 16 7 0 14 -9 14
-20z m135 -2 c3 3 13 -5 24 -17 19 -23 19 -23 -2 -5 -11 9 -23 15 -26 12 -3
-3 -13 5 -24 17 -19 23 -19 23 2 5 11 -9 23 -15 26 -12z m146 5 c-7 -10 -14
-17 -17 -15 -4 4 18 35 25 35 2 0 -1 -9 -8 -20z m87 11 c-9 -8 -36 -10 -30 -2
2 4 11 8 20 8 8 0 13 -3 10 -6z m-528 -52 c2 -23 -7 -20 -11 4 -1 8 -8 23 -16
33 -14 18 -14 18 6 2 11 -9 20 -27 21 -39z m213 36 c-7 -8 -17 -15 -23 -15 -6
0 -2 7 9 15 25 19 30 19 14 0z m371 -2 c13 -16 12 -17 -3 -4 -10 7 -18 15 -18
17 0 8 8 3 21 -13z m-674 -5 c14 -24 13 -46 -5 -59 -15 -12 -15 -12 -5 1 15
20 11 49 -8 61 -9 5 -10 9 -2 9 6 0 15 -6 20 -12z m144 -5 c13 -16 12 -17 -3
-4 -17 13 -22 21 -14 21 2 0 10 -8 17 -17z m186 -1 c0 -10 -6 -19 -13 -19 -9
0 -9 5 -1 19 7 10 13 18 14 18 1 0 1 -8 0 -18z m313 14 c0 -2 -8 -10 -17 -17
-16 -13 -17 -12 -4 4 13 16 21 21 21 13z m-584 -28 c3 -4 -1 -5 -10 -4 -8 1
-18 5 -22 8 -3 4 1 5 10 4 8 -1 18 -5 22 -8z m65 -5 c13 -16 12 -17 -3 -4 -17
13 -22 21 -14 21 2 0 10 -8 17 -17z m574 7 c-3 -5 -12 -10 -18 -10 -7 0 -6 4
3 10 19 12 23 12 15 0z m-507 -25 c-3 -3 -9 2 -12 12 -6 14 -5 15 5 6 7 -7 10
-15 7 -18z m198 -1 c1 -9 0 -13 -4 -10 -3 4 -7 14 -8 22 -1 9 0 13 4 10 3 -4
7 -14 8 -22z m120 0 c1 -9 0 -13 -4 -10 -3 4 -7 14 -8 22 -1 9 0 13 4 10 3 -4
7 -14 8 -22z m-336 2 c0 -2 -8 -10 -17 -17 -16 -13 -17 -12 -4 4 13 16 21 21
21 13z m337 -32 c24 -4 27 -13 4 -11 -12 1 -30 10 -39 21 -16 20 -16 20 2 6
10 -8 25 -15 33 -16z m73 21 c0 -1 -10 -10 -22 -21 -14 -12 -18 -13 -10 -3 6
9 10 18 7 21 -3 2 2 5 10 5 8 0 15 -1 15 -2z m30 -10 c-5 -7 -9 -14 -7 -16 1
-2 0 -3 -2 -2 -2 2 -11 -3 -20 -9 -12 -10 -12 -7 2 8 9 11 15 23 12 26 -3 2 2
5 10 5 10 0 12 -4 5 -12z m50 10 c0 -1 -10 -10 -22 -21 -14 -12 -18 -13 -10
-3 6 9 10 18 7 21 -3 2 2 5 10 5 8 0 15 -1 15 -2z m-633 -18 c0 -7 -9 -14 -20
-14 -19 -2 -19 -2 -1 12 11 8 19 15 20 15 0 0 1 -6 1 -13z m160 -2 c0 -8 -3
-13 -5 -10 -3 3 -12 -1 -21 -7 -10 -8 -9 -4 3 10 23 26 23 26 23 7z m152 -1
c-7 -9 -14 -23 -15 -31 -2 -8 -5 -18 -8 -21 -4 -3 -5 4 -3 15 3 20 24 53 34
53 3 0 -1 -7 -8 -16z m-250 3 c-2 -2 -11 -8 -20 -15 -12 -9 -16 -9 -16 1 0 7
9 14 20 14 11 1 18 1 16 0z m187 -4 c-2 -3 -6 -3 -9 -1 -3 2 -15 -6 -28 -17
l-24 -20 18 21 c9 11 24 21 32 21 8 0 13 -2 11 -4z m80 -21 c-17 -16 -18 -16
-5 5 7 12 15 20 18 17 3 -2 -3 -12 -13 -22z m-256 4 c0 -2 -8 -10 -17 -17 -16
-13 -17 -12 -4 4 13 16 21 21 21 13z m30 -11 c-5 -6 -8 -22 -5 -35 2 -12 1
-20 -3 -16 -13 13 -10 63 4 63 9 0 11 -4 4 -12z m56 -15 c0 -12 -4 -16 -9 -11
-5 5 -6 14 -3 20 10 15 12 14 12 -9z m74 5 c-7 -8 -17 -15 -23 -15 -6 0 -2 7
9 15 25 19 30 19 14 0z m126 0 c-1 -8 -5 -17 -8 -21 -5 -4 -4 16 1 34 3 9 9
-1 7 -13z m125 -2 c13 -16 12 -17 -3 -4 -17 13 -22 21 -14 21 2 0 10 -8 17
-17z m35 2 c-1 -8 -5 -17 -8 -21 -5 -4 -4 16 1 34 3 9 9 -1 7 -13z m71 -3
c-10 -10 -15 -21 -12 -24 3 -2 -2 -5 -10 -5 -10 0 -12 4 -5 12 5 7 6 16 2 20
-4 5 -2 5 5 1 6 -3 14 -2 18 4 3 5 9 10 12 10 3 0 -1 -8 -10 -18z m-553 -8 c3
-8 2 -12 -4 -9 -6 3 -10 10 -10 16 0 14 7 11 14 -7z m397 -1 c13 -17 13 -17
-6 -3 -11 8 -22 16 -24 17 -2 2 0 3 6 3 6 0 17 -8 24 -17z m-412 -37 c-3 -3
-11 5 -18 17 -13 21 -12 21 5 5 10 -10 16 -20 13 -22z m133 10 c3 3 8 1 12 -4
11 -18 -25 -8 -41 12 -18 21 -18 21 3 3 11 -9 23 -14 26 -11z m-196 -6 c0 -12
-4 -16 -9 -11 -5 5 -6 14 -3 20 10 15 12 14 12 -9z m584 17 c0 -2 -8 -11 -18
-20 -15 -14 -19 -15 -19 -2 0 8 4 12 8 9 4 -2 10 0 14 6 6 10 15 14 15 7z
m-549 -24 c13 -16 12 -17 -3 -4 -17 13 -22 21 -14 21 2 0 10 -8 17 -17z m326
0 c0 -10 -4 -10 -16 -1 -9 7 -18 13 -20 15 -2 1 5 1 16 0 11 0 20 -7 20 -14z
m62 14 c-2 -2 -11 -8 -20 -15 -12 -9 -16 -9 -16 1 0 7 9 14 20 14 11 1 18 1
16 0z m78 -21 c18 -21 18 -21 -3 -3 -11 9 -23 14 -26 11 -3 -3 -8 -1 -12 4
-11 18 25 8 41 -12z m-144 -19 c4 3 7 4 7 0 0 -17 -20 -14 -36 6 -19 22 -19
22 2 4 11 -9 24 -14 27 -10z m64 5 c-17 -18 -51 -27 -41 -10 3 5 9 6 14 3 4
-3 13 2 20 10 7 8 15 15 18 15 3 0 -2 -8 -11 -18z m-341 -7 c-1 -8 -5 -17 -8
-21 -5 -4 -4 16 1 34 3 9 9 -1 7 -13z m120 -11 c1 -9 0 -13 -4 -10 -3 4 -7 14
-8 22 -1 9 0 13 4 10 3 -4 7 -14 8 -22z m301 -19 c0 -8 -4 -12 -9 -9 -5 4 -7
9 -4 12 3 3 -2 15 -11 26 -18 21 -18 21 3 3 11 -9 21 -24 21 -32z m-186 18
c13 -17 13 -17 -6 -3 -11 8 -22 16 -24 17 -2 2 0 3 6 3 6 0 17 -8 24 -17z
m139 13 c0 -2 -8 -10 -17 -17 -16 -13 -17 -12 -4 4 13 16 21 21 21 13z m-433
-39 c1 -11 1 -18 0 -16 -2 2 -8 11 -15 20 -9 12 -9 16 1 16 7 0 14 -9 14 -20z
m78 3 c-10 -11 -20 -18 -23 -15 -3 3 -15 -3 -26 -12 -21 -18 -21 -18 -2 4 10
13 22 20 26 18 4 -3 13 2 20 10 7 8 15 15 18 15 3 0 -3 -9 -13 -20z m175 15
c0 -1 -10 -10 -22 -21 -14 -12 -18 -13 -10 -3 6 9 10 18 7 21 -3 2 2 5 10 5 8
0 15 -1 15 -2z m270 -1 c0 -8 -19 -13 -24 -6 -3 5 1 9 9 9 8 0 15 -2 15 -3z
m-152 -13 c16 12 16 12 0 -6 -18 -19 -18 -19 -35 0 -17 18 -17 18 0 6 14 -11
20 -11 35 0z m-397 -18 c13 -16 12 -17 -3 -4 -17 13 -22 21 -14 21 2 0 10 -8
17 -17z m188 14 c-2 -2 -11 -8 -20 -15 -12 -9 -16 -9 -16 1 0 7 9 14 20 14 11
1 18 1 16 0z m120 0 c-2 -1 -13 -9 -24 -17 -19 -14 -19 -14 -6 3 7 9 18 17 24
17 6 0 8 -1 6 -3z m34 -15 c15 -16 15 -19 2 -19 -8 0 -13 3 -10 5 3 3 0 11 -6
19 -17 20 -5 16 14 -5z m88 5 c-6 -8 -9 -16 -6 -19 3 -2 -2 -5 -10 -5 -13 0
-13 3 2 19 19 21 31 25 14 5z m-231 -11 c0 -2 -8 -10 -17 -17 -16 -13 -17 -12
-4 4 13 16 21 21 21 13z m43 -21 c-3 -9 -8 -14 -10 -11 -3 3 -2 9 2 15 9 16
15 13 8 -4z m-79 -11 c3 -8 2 -12 -4 -9 -6 3 -10 10 -10 16 0 14 7 11 14 -7z
m-62 -11 c-1 -4 7 -17 16 -28 17 -20 17 -20 -4 -2 -11 9 -21 24 -21 32 0 8 2
13 5 11 2 -2 4 -8 4 -13z m169 0 c13 -16 12 -17 -3 -4 -17 13 -22 21 -14 21 2
0 10 -8 17 -17z m-242 -27 c-3 -3 -11 5 -18 17 -13 21 -12 21 5 5 10 -10 16
-20 13 -22z m120 0 c-3 -3 -11 5 -18 17 -13 21 -12 21 5 5 10 -10 16 -20 13
-22z m107 2 c12 -14 13 -18 3 -10 -9 6 -18 10 -21 7 -2 -3 -5 2 -5 10 0 19 0
19 23 -7z m75 5 c13 -16 12 -17 -3 -4 -10 7 -18 15 -18 17 0 8 8 3 21 -13z
m49 3 c0 -2 -8 -10 -17 -17 -16 -13 -17 -12 -4 4 13 16 21 21 21 13z m-64 -28
c3 -4 -1 -5 -10 -4 -8 1 -18 5 -22 8 -3 4 1 5 10 4 8 -1 18 -5 22 -8z m-270
-13 c-1 -8 -5 -17 -8 -21 -5 -4 -4 16 1 34 3 9 9 -1 7 -13z m88 -6 c3 -3 -10
-5 -29 -4 -18 0 -36 3 -39 6 -3 3 10 5 29 4 18 0 36 -3 39 -6z m53 -14 c0 -8
-10 -23 -21 -32 -21 -18 -21 -18 -2 5 11 12 16 22 12 22 -4 0 -4 5 -1 10 9 14
12 13 12 -5z m101 -30 c-3 -3 -9 2 -12 12 -6 14 -5 15 5 6 7 -7 10 -15 7 -18z
m-232 8 c-2 -3 -6 -3 -9 -1 -3 2 -15 -6 -28 -17 l-24 -20 18 21 c9 11 24 21
32 21 8 0 13 -2 11 -4z m-10 -43 c0 -12 -4 -16 -9 -11 -5 5 -6 14 -3 20 10 15
12 14 12 -9z m60 -21 c2 -35 -5 -33 -12 5 -2 14 -1 26 3 26 5 0 9 -14 9 -31z
m-64 -13 c3 3 8 1 12 -4 11 -18 -25 -8 -41 12 -18 21 -18 21 3 3 11 -9 23 -14
26 -11z m108 18 c0 -8 -19 -13 -24 -6 -3 5 1 9 9 9 8 0 15 -2 15 -3z m-156
-62 c2 -4 -4 -8 -14 -8 -10 0 -16 4 -14 8 3 4 9 8 14 8 5 0 11 -4 14 -8z"/>
</g>
</svg>
