<svg width="180" height="182" viewBox="0 0 180 182" fill="none" xmlns="http://www.w3.org/2000/svg">
<g clip-path="url(#clip0_11000_59739)">
<path fill-rule="evenodd" clip-rule="evenodd" d="M32.3659 28.4375C29.5268 13.65 40.8833 0 55.6467 0C68.7066 0 79.4953 10.8062 79.4953 23.8875V53.4625C82.9022 53.4625 86.3091 52.8938 89.7161 52.8938C93.123 52.8938 95.9621 52.8937 99.3691 53.4625V23.8875C99.3691 10.8062 110.158 0 123.218 0C137.981 0 149.338 13.65 147.066 28.4375L140.82 63.1313C162.965 72.8 180 89.8625 180 110.906V123.987C180 141.619 168.644 156.406 152.177 166.075C135.71 176.313 114.132 182 89.7161 182C65.2997 182 43.7224 176.313 27.2555 166.075C11.3565 156.406 0 141.619 0 123.987V110.906C0 89.8625 16.4669 72.8 38.612 63.1313L32.3659 28.4375ZM132.303 67.6812L139.685 26.7312C141.388 16.4937 134.006 6.825 123.218 6.825C114.132 6.825 106.751 14.2187 106.751 23.3187V60.8562C104.479 60.2875 101.64 60.2875 99.3691 60.2875C95.9621 60.2875 93.123 59.7188 89.7161 59.7188C86.3091 59.7188 82.9022 59.7188 79.4953 60.2875C77.224 60.2875 74.3849 60.8562 72.1136 60.8562V23.8875C72.1136 14.7875 64.7319 7.39375 55.6467 7.39375C45.4259 7.39375 37.4763 17.0625 39.7476 27.3L47.1293 68.25C23.2808 77.35 7.3817 93.275 7.3817 111.475V124.556C7.3817 152.425 44.2902 175.175 89.7161 175.175C135.142 175.175 172.05 152.425 172.05 124.556V111.475C172.618 92.7063 156.719 76.7812 132.303 67.6812Z" fill="#633001"/>
<path d="M173.426 125.143C173.426 153.143 136.124 176 90.2131 176C44.3024 176 7 153.143 7 125.143V112H174L173.5 124L173.426 125.143Z" fill="#FEDC90"/>
<path fill-rule="evenodd" clip-rule="evenodd" d="M39.2483 26.0735C36.9448 15.75 45.0069 6 55.3724 6C64.5862 6 72.0724 13.4559 72.0724 22.6324V60.4853C77.831 59.9118 83.5897 59.3382 89.9241 59.3382C95.6828 59.3382 100.741 59.9265 106.5 60.5L106 22.6324C106 13.4559 114.686 6 123.9 6C134.266 6 142.328 15.75 140.6 26.0735L133.114 67.3676C157.3 76.5441 174 92.6029 174 110.956C174 139.059 136.569 162 90.5 162C44.431 162 7 139.059 7 110.956C7 92.6029 22.8138 76.6765 47 67.5L39.2483 26.0735Z" fill="#D1884F"/>
<path d="M67.0034 107.494C67.0034 114.887 63.0286 121.144 57.9182 121.144C52.8078 121.144 48.833 114.887 48.833 107.494C48.833 100.1 52.8078 93.8438 57.9182 93.8438C63.0286 93.8438 67.0034 100.1 67.0034 107.494Z" fill="#633001"/>
<path d="M130.032 107.494C130.032 114.887 126.057 121.144 120.946 121.144C115.836 121.144 111.861 114.887 111.861 107.494C111.861 100.1 115.836 93.8438 120.946 93.8438C126.057 93.8438 130.032 100.1 130.032 107.494Z" fill="#633001"/>
</g>
<defs>
<clipPath id="clip0_11000_59739">
<rect width="180" height="182" fill="white"/>
</clipPath>
</defs>
</svg>
